{
.appVersion = "1277";
copyright = "Copyright 2010 Google Inc. All Rights Reserved.";
customParameters = (
{
name = glyphOrder;
value = (
.notdef,
null,
nonmarkingreturn,
space,
exclam,
quotedbl,
numbersign,
dollar,
percent,
ampersand,
quotesingle,
parenleft,
parenright,
asterisk,
plus,
comma,
hyphen,
period,
slash,
zero,
one,
two,
three,
four,
five,
six,
seven,
eight,
nine,
colon,
semicolon,
less,
equal,
greater,
question,
at,
A,
B,
C,
D,
E,
F,
G,
H,
I,
J,
K,
L,
M,
N,
O,
P,
Q,
R,
S,
T,
U,
V,
W,
X,
Y,
Z,
bracketleft,
backslash,
bracketright,
asciicircum,
underscore,
grave,
a,
b,
c,
d,
e,
f,
g,
h,
i,
j,
k,
l,
m,
n,
o,
p,
q,
r,
s,
t,
u,
v,
w,
x,
y,
z,
braceleft,
bar,
braceright,
asciitilde,
Adieresis,
Aring,
Ccedilla,
Eacute,
Ntilde,
Odieresis,
Udieresis,
aacute,
agrave,
acircumflex,
adieresis,
atilde,
aring,
ccedilla,
eacute,
egrave,
ecircumflex,
edieresis,
iacute,
igrave,
icircumflex,
idieresis,
ntilde,
oacute,
ograve,
ocircumflex,
odieresis,
otilde,
uacute,
ugrave,
ucircumflex,
udieresis,
dagger,
degree,
cent,
sterling,
section,
bullet,
paragraph,
germandbls,
registered,
copyright,
trademark,
acute,
dieresis,
notequal,
AE,
Oslash,
infinity,
plusminus,
lessequal,
greaterequal,
yen,
uni00B5,
partialdiff,
summation,
product,
integral,
ordfeminine,
ordmasculine,
uni2126,
ae,
oslash,
questiondown,
exclamdown,
logicalnot,
radical,
florin,
approxequal,
uni2206,
guillemotleft,
guillemotright,
ellipsis,
Agrave,
Atilde,
Otilde,
OE,
oe,
endash,
emdash,
quotedblleft,
quotedblright,
quoteleft,
quoteright,
divide,
lozenge,
ydieresis,
Ydieresis,
fraction,
Euro,
guilsinglleft,
guilsinglright,
uniFB01,
uniFB02,
daggerdbl,
periodcentered,
quotesinglbase,
quotedblbase,
perthousand,
Acircumflex,
Ecircumflex,
Aacute,
Edieresis,
Egrave,
Iacute,
Icircumflex,
Idieresis,
Igrave,
Oacute,
Ocircumflex,
Ograve,
Uacute,
Ucircumflex,
Ugrave,
dotlessi,
circumflex,
tilde,
uni02C9,
breve,
dotaccent,
ring,
cedilla,
hungarumlaut,
ogonek,
caron,
Lslash,
lslash,
Scaron,
scaron,
Zcaron,
zcaron,

glyphs = (
{
glyphname = .notdef;
lastChange = "2019-12-20 16:17:20 +0000";
layers = (
{
layerId = "1E4AACC9-6A88-4B03-8BB8-E9E25DEE74AF";
paths = (
{
closed = 1;
nodes = (
"234 0 LINE",
"1359 0 LINE",
"1359 1409 LINE",
"234 1409 LINE"
);
},
{
closed = 1;
nodes = (
"1283 1333 LINE",
"1283 76 LINE",
"310 76 LINE",
"310 1333 LINE"
);
}
);
width = 1593;
}
);
note = .notdef;
},
{
glyphname = exclam;
lastChange = "2019-12-20 15:51:09 +0000";
layers = (
{
layerId = "1E4AACC9-6A88-4B03-8BB8-E9E25DEE74AF";
paths = (
{
closed = 1;
nodes = (
"679 1341 LINE",
"380 1341 LINE",
"320 420 LINE",
"415 420 LINE"
);
},
{
closed = 1;
nodes = (
"392 -29 OFFCURVE",
"488 68 OFFCURVE",
"488 137 QCURVE SMOOTH",
"488 207 OFFCURVE",
"391 303 OFFCURVE",
"322 303 QCURVE SMOOTH",
"252 303 OFFCURVE",
"156 206 OFFCURVE",
"156 137 QCURVE SMOOTH",
"156 67 OFFCURVE",
"253 -29 OFFCURVE",
"322 -29 QCURVE SMOOTH"
);
}
);
width = 797;
}
);
note = exclam;
unicode = 0021;
},
{
glyphname = quotedbl;
lastChange = "2019-12-20 15:51:09 +0000";
layers = (
{
layerId = "1E4AACC9-6A88-4B03-8BB8-E9E25DEE74AF";
paths = (
{
closed = 1;
nodes = (
"754 860 LINE",
"838 860 LINE",
"1001 1341 LINE",
"763 1341 LINE"
);
},
{
closed = 1;
nodes = (
"368 860 LINE",
"452 860 LINE",
"615 1341 LINE",
"377 1341 LINE"
);
}
);
width = 1137;
}
);
note = quotedbl;
unicode = 0022;
},
{
glyphname = numbersign;
lastChange = "2019-12-20 15:51:09 +0000";
layers = (
{
layerId = "1E4AACC9-6A88-4B03-8BB8-E9E25DEE74AF";
paths = (
{
closed = 1;
nodes = (
"965 411 LINE",
"987 534 LINE",
"762 534 LINE",
"863 821 LINE",
"1037 821 LINE",
"1059 944 LINE",
"907 944 LINE",
"1051 1341 LINE",
"900 1341 LINE",
"756 944 LINE",
"494 944 LINE",
"638 1341 LINE",
"486 1341 LINE",
"343 944 LINE",
"89 944 LINE",
"67 821 LINE",
"298 821 LINE",
"195 534 LINE",
"17 534 LINE",
"-5 411 LINE",
"148 411 LINE",
"0 0 LINE",
"154 0 LINE",
"300 411 LINE",
"562 411 LINE",
"414 0 LINE",
"565 0 LINE",
"713 411 LINE"
);
},
{
closed = 1;
nodes = (
"712 821 LINE",
"608 534 LINE",
"346 534 LINE",
"449 821 LINE"
);
}
);
width = 1024;
}
);
note = numbersign;
unicode = 0023;
},
{
glyphname = dollar;
lastChange = "2019-12-20 15:51:09 +0000";
layers = (
{
layerId = "1E4AACC9-6A88-4B03-8BB8-E9E25DEE74AF";
paths = (
{
closed = 1;
nodes = (
"738 1483 LINE",
"635 1483 LINE",
"611 1355 LINE",
"159 1339 OFFCURVE",
"159 979 QCURVE SMOOTH",
"159 892 OFFCURVE",
"222 765 OFFCURVE",
"332 667 OFFCURVE",
"468 596 QCURVE",
"371 81 LINE",
"280 82 OFFCURVE",
"161 149 OFFCURVE",
"129 196 QCURVE",
"128 411 LINE",
"40 411 LINE",
"-24 51 LINE",
"140 -17 OFFCURVE",
"352 -20 QCURVE",
"327 -156 LINE",
"429 -156 LINE",
"455 -16 LINE",
"929 19 OFFCURVE",
"929 423 QCURVE SMOOTH",
"929 504 OFFCURVE",
"865 628 OFFCURVE",
"756 728 OFFCURVE",
"611 810 QCURVE",
"693 1247 LINE",
"768 1236 OFFCURVE",
"830 1190 QCURVE",
"837 994 LINE",
"926 994 LINE",
"982 1313 LINE",
"857 1346 OFFCURVE",
"713 1354 QCURVE"
);
},
{
closed = 1;
nodes = (
"685 249 OFFCURVE",
"573 113 OFFCURVE",
"476 91 QCURVE",
"563 553 LINE",
"630 507 OFFCURVE",
"685 409 OFFCURVE",
"685 346 QCURVE SMOOTH"
);
},
{
closed = 1;
nodes = (
"399 1135 OFFCURVE",
"499 1241 OFFCURVE",
"592 1250 QCURVE",
"517 856 LINE",
"465 892 OFFCURVE",
"399 982 OFFCURVE",
"399 1047 QCURVE SMOOTH"
);
}
);
width = 1024;
}
);
note = dollar;
unicode = 0024;
},
{
glyphname = percent;
lastChange = "2019-12-20 15:51:09 +0000";
layers = (
{
layerId = "1E4AACC9-6A88-4B03-8BB8-E9E25DEE74AF";
paths = (
{
closed = 1;
nodes = (
"1545 1362 LINE",
"1394 1362 LINE",
"202 -20 LINE",
"352 -20 LINE"
);
},
{
closed = 1;
nodes = (
"801 1233 OFFCURVE",
"662 1362 OFFCURVE",
"528 1362 QCURVE SMOOTH",
"345 1362 OFFCURVE",
"132 1100 OFFCURVE",
"132 882 QCURVE SMOOTH",
"132 623 OFFCURVE",
"401 623 QCURVE SMOOTH",
"724 623 OFFCURVE",
"790 995 QCURVE SMOOTH",
"801 1061 OFFCURVE",
"801 1105 QCURVE SMOOTH"
);
},
{
closed = 1;
nodes = (
"323 938 OFFCURVE",
"373 1151 OFFCURVE",
"461 1268 OFFCURVE",
"518 1268 QCURVE SMOOTH",
"566 1268 OFFCURVE",
"606 1190 OFFCURVE",
"606 1115 QCURVE SMOOTH",
"606 1031 OFFCURVE",
"554 830 OFFCURVE",
"462 716 OFFCURVE",
"405 716 QCURVE SMOOTH",
"323 716 OFFCURVE",
"323 853 QCURVE SMOOTH"
);
},
{
closed = 1;
nodes = (
"1601 583 OFFCURVE",
"1462 712 OFFCURVE",
"1328 712 QCURVE SMOOTH",
"1145 712 OFFCURVE",
"932 450 OFFCURVE",
"932 232 QCURVE SMOOTH",
"932 -27 OFFCURVE",
"1201 -27 QCURVE SMOOTH",
"1524 -27 OFFCURVE",
"1590 345 QCURVE SMOOTH",
"1601 411 OFFCURVE",
"1601 455 QCURVE SMOOTH"
);
},
{
closed = 1;
nodes = (
"1123 288 OFFCURVE",
"1173 501 OFFCURVE",
"1261 618 OFFCURVE",
"1318 618 QCURVE SMOOTH",
"1366 618 OFFCURVE",
"1406 540 OFFCURVE",
"1406 465 QCURVE SMOOTH",
"1406 381 OFFCURVE",
"1354 180 OFFCURVE",
"1262 66 OFFCURVE",
"1205 66 QCURVE SMOOTH",
"1123 66 OFFCURVE",
"1123 203 QCURVE SMOOTH"
);
}
);
width = 1706;
}
);
note = percent;
unicode = 0025;
},
{
glyphname = ampersand;
lastChange = "2019-12-20 15:51:09 +0000";
layers = (
{
layerId = "1E4AACC9-6A88-4B03-8BB8-E9E25DEE74AF";
paths = (
{
closed = 1;
nodes = (
"1099 1178 OFFCURVE",
"1015 1296 OFFCURVE",
"857 1361 OFFCURVE",
"747 1361 QCURVE SMOOTH",
"567 1361 OFFCURVE",
"361 1185 OFFCURVE",
"361 1037 QCURVE SMOOTH",
"361 889 OFFCURVE",
"447 753 QCURVE",
"291 698 OFFCURVE",
"139 592 OFFCURVE",
"50 447 OFFCURVE",
"50 347 QCURVE SMOOTH",
"50 167 OFFCURVE",
"288 -20 OFFCURVE",
"515 -20 QCURVE SMOOTH",
"645 -20 OFFCURVE",
"862 41 OFFCURVE",
"980 120 QCURVE",
"1081 0 LINE",
"1445 0 LINE",
"1456 63 LINE",
"1334 88 LINE",
"1161 282 LINE",
"1241 370 OFFCURVE",
"1386 608 OFFCURVE",
"1432 717 QCURVE",
"1557 743 LINE",
"1568 807 LINE",
"1091 807 LINE",
"1080 743 LINE",
"1196 717 LINE",
"1168 572 OFFCURVE",
"1057 401 QCURVE",
"745 752 LINE",
"904 815 OFFCURVE",
"1029 903 OFFCURVE",
"1099 1020 OFFCURVE",
"1099 1102 QCURVE SMOOTH"
);
},
{
closed = 1;
nodes = (
"886 228 LINE",
"744 108 OFFCURVE",
"547 108 QCURVE SMOOTH",
"442 108 OFFCURVE",
"316 242 OFFCURVE",
"316 356 QCURVE SMOOTH",
"316 429 OFFCURVE",
"357 536 OFFCURVE",
"431 614 OFFCURVE",
"517 658 QCURVE"
);
},
{
closed = 1;
nodes = (
"595 1160 OFFCURVE",
"673 1264 OFFCURVE",
"747 1264 QCURVE SMOOTH",
"804 1264 OFFCURVE",
"879 1172 OFFCURVE",
"879 1088 QCURVE SMOOTH",
"879 1011 OFFCURVE",
"792 897 OFFCURVE",
"675 843 QCURVE",
"595 958 OFFCURVE",
"595 1071 QCURVE SMOOTH"
);
}
);
width = 1593;
}
);
note = ampersand;
unicode = 0026;
},
{
glyphname = quotesingle;
lastChange = "2019-12-20 15:51:09 +0000";
layers = (
{
layerId = "1E4AACC9-6A88-4B03-8BB8-E9E25DEE74AF";
paths = (
{
closed = 1;
nodes = (
"282 860 LINE",
"366 860 LINE",
"529 1341 LINE",
"291 1341 LINE"
);
}
);
width = 569;
}
);
note = quotesingle;
unicode = 0027;
},
{
glyphname = parenleft;
lastChange = "2019-12-20 15:51:09 +0000";
layers = (
{
layerId = "1E4AACC9-6A88-4B03-8BB8-E9E25DEE74AF";
paths = (
{
closed = 1;
nodes = (
"339 313 OFFCURVE",
"457 863 OFFCURVE",
"648 1207 OFFCURVE",
"783 1297 QCURVE",
"805 1421 LINE",
"598 1321 OFFCURVE",
"349 1102 OFFCURVE",
"190 805 OFFCURVE",
"101 387 OFFCURVE",
"101 218 QCURVE SMOOTH",
"101 -9 OFFCURVE",
"282 -323 OFFCURVE",
"478 -436 QCURVE",
"500 -332 LINE",
"339 -189 OFFCURVE",
"339 120 QCURVE SMOOTH"
);
}
);
width = 682;
}
);
note = parenleft;
unicode = 0028;
},
{
glyphname = parenright;
lastChange = "2019-12-20 15:51:09 +0000";
layers = (
{
layerId = "1E4AACC9-6A88-4B03-8BB8-E9E25DEE74AF";
paths = (
{
closed = 1;
nodes = (
"56 -333 OFFCURVE",
"304 -113 OFFCURVE",
"462 187 OFFCURVE",
"551 604 OFFCURVE",
"551 769 QCURVE SMOOTH",
"551 994 OFFCURVE",
"374 1303 OFFCURVE",
"173 1421 QCURVE",
"155 1317 LINE",
"314 1176 OFFCURVE",
"314 870 QCURVE SMOOTH",
"314 671 OFFCURVE",
"192 115 OFFCURVE",
"1 -222 OFFCURVE",
"-132 -312 QCURVE",
"-153 -436 LINE"
);
}
);
width = 682;
}
);
note = parenright;
unicode = 0029;
},
{
glyphname = asterisk;
lastChange = "2019-12-20 15:51:09 +0000";
layers = (
{
layerId = "1E4AACC9-6A88-4B03-8BB8-E9E25DEE74AF";
paths = (
{
closed = 1;
nodes = (
"880 619 LINE",
"1007 812 LINE",
"712 946 LINE",
"1034 984 LINE",
"973 1205 LINE",
"653 1026 LINE",
"775 1328 LINE",
"545 1364 LINE",
"564 1040 LINE",
"317 1315 LINE",
"191 1120 LINE",
"480 983 LINE",
"163 944 LINE",
"223 719 LINE",
"543 907 LINE",
"424 602 LINE",
"654 565 LINE",
"632 889 LINE"
);
}
);
width = 1024;
}
);
note = asterisk;
unicode = 002A;
},
{
glyphname = plus;
lastChange = "2019-12-20 15:51:09 +0000";
layers = (
{
layerId = "1E4AACC9-6A88-4B03-8BB8-E9E25DEE74AF";
paths = (
{
closed = 1;
nodes = (
"1077 608 LINE",
"1077 751 LINE",
"672 751 LINE",
"672 1157 LINE",
"529 1157 LINE",
"529 751 LINE",
"125 751 LINE",
"125 608 LINE",
"529 608 LINE",
"529 203 LINE",
"672 203 LINE",
"672 608 LINE"
);
}
);
width = 1167;
}
);
note = plus;
unicode = 002B;
},
{
glyphname = comma;
lastChange = "2019-12-20 15:51:09 +0000";
layers = (
{
layerId = "1E4AACC9-6A88-4B03-8BB8-E9E25DEE74AF";
paths = (
{
closed = 1;
nodes = (
"343 193 OFFCURVE",
"240 301 OFFCURVE",
"156 301 QCURVE SMOOTH",
"87 301 OFFCURVE",
"-3 233 OFFCURVE",
"-3 168 QCURVE SMOOTH",
"-3 85 OFFCURVE",
"68 42 QCURVE SMOOTH",
"109 16 OFFCURVE",
"138 -17 OFFCURVE",
"138 -39 QCURVE SMOOTH",
"138 -73 OFFCURVE",
"94 -149 OFFCURVE",
"12 -210 OFFCURVE",
"-44 -225 QCURVE",
"-44 -317 LINE",
"145 -268 OFFCURVE",
"343 -51 OFFCURVE",
"343 106 QCURVE SMOOTH"
);
}
);
width = 512;
}
);
note = comma;
unicode = 002C;
},
{
glyphname = hyphen;
lastChange = "2019-12-20 15:51:09 +0000";
layers = (
{
layerId = "1E4AACC9-6A88-4B03-8BB8-E9E25DEE74AF";
paths = (
{
closed = 1;
nodes = (
"575 395 LINE",
"608 569 LINE",
"76 569 LINE",
"43 395 LINE"
);
}
);
width = 682;
}
);
note = hyphen;
unicode = "002D,00AD";
},
{
glyphname = period;
lastChange = "2019-12-20 15:51:09 +0000";
layers = (
{
layerId = "1E4AACC9-6A88-4B03-8BB8-E9E25DEE74AF";
paths = (
{
closed = 1;
nodes = (
"251 -29 OFFCURVE",
"347 68 OFFCURVE",
"347 137 QCURVE SMOOTH",
"347 207 OFFCURVE",
"250 303 OFFCURVE",
"181 303 QCURVE SMOOTH",
"111 303 OFFCURVE",
"15 206 OFFCURVE",
"15 137 QCURVE SMOOTH",
"15 67 OFFCURVE",
"112 -29 OFFCURVE",
"181 -29 QCURVE SMOOTH"
);
}
);
width = 512;
}
);
note = period;
unicode = 002E;
},
{
glyphname = slash;
lastChange = "2019-12-20 15:51:09 +0000";
layers = (
{
layerId = "1E4AACC9-6A88-4B03-8BB8-E9E25DEE74AF";
paths = (
{
closed = 1;
nodes = (
"726 1349 LINE",
"586 1349 LINE",
"-124 -20 LINE",
"16 -20 LINE"
);
}
);
width = 569;
}
);
note = slash;
unicode = 002F;
},
{
glyphname = zero;
lastChange = "2019-12-20 15:51:09 +0000";
layers = (
{
layerId = "1E4AACC9-6A88-4B03-8BB8-E9E25DEE74AF";
paths = (
{
closed = 1;
nodes = (
"988 1362 OFFCURVE",
"643 1362 QCURVE SMOOTH",
"466 1362 OFFCURVE",
"216 1123 OFFCURVE",
"71 635 OFFCURVE",
"71 399 QCURVE SMOOTH",
"71 -20 OFFCURVE",
"410 -20 QCURVE SMOOTH",
"591 -20 OFFCURVE",
"843 223 OFFCURVE",
"988 724 OFFCURVE",
"988 951 QCURVE SMOOTH"
);
},
{
closed = 1;
nodes = (
"737 859 OFFCURVE",
"684 499 OFFCURVE",
"608 226 OFFCURVE",
"504 90 OFFCURVE",
"435 90 QCURVE SMOOTH",
"316 90 OFFCURVE",
"316 367 QCURVE SMOOTH",
"316 515 OFFCURVE",
"410 1024 OFFCURVE",
"531 1251 OFFCURVE",
"617 1251 QCURVE SMOOTH",
"686 1251 OFFCURVE",
"741 1108 OFFCURVE",
"741 970 QCURVE SMOOTH"
);
}
);
width = 1024;
}
);
note = zero;
unicode = 0030;
},
{
glyphname = one;
lastChange = "2019-12-20 15:51:09 +0000";
layers = (
{
layerId = "1E4AACC9-6A88-4B03-8BB8-E9E25DEE74AF";
paths = (
{
closed = 1;
nodes = (
"797 1352 LINE",
"665 1352 LINE",
"248 1130 LINE",
"233 1045 LINE",
"486 1116 LINE",
"309 110 LINE",
"63 86 LINE",
"48 0 LINE",
"802 0 LINE",
"817 86 LINE",
"578 110 LINE"
);
}
);
width = 1024;
}
);
note = one;
unicode = 0031;
},
{
glyphname = two;
lastChange = "2019-12-20 15:51:09 +0000";
layers = (
{
layerId = "1E4AACC9-6A88-4B03-8BB8-E9E25DEE74AF";
paths = (
{
closed = 1;
nodes = (
"864 206 LINE",
"192 206 LINE",
"491 400 OFFCURVE",
"748 605 OFFCURVE",
"899 783 OFFCURVE",
"977 969 OFFCURVE",
"977 1067 QCURVE SMOOTH",
"977 1202 OFFCURVE",
"769 1356 OFFCURVE",
"582 1356 QCURVE SMOOTH",
"492 1356 OFFCURVE",
"335 1331 OFFCURVE",
"251 1313 QCURVE",
"197 1008 LINE",
"284 1008 LINE",
"361 1202 LINE",
"431 1254 OFFCURVE",
"520 1254 QCURVE SMOOTH",
"601 1254 OFFCURVE",
"701 1157 OFFCURVE",
"701 1049 QCURVE SMOOTH",
"701 880 OFFCURVE",
"395 488 OFFCURVE",
"8 189 QCURVE",
"-25 0 LINE",
"825 0 LINE"
);
}
);
width = 1024;
}
);
note = two;
unicode = 0032;
},
{
glyphname = three;
lastChange = "2019-12-20 15:51:09 +0000";
layers = (
{
layerId = "1E4AACC9-6A88-4B03-8BB8-E9E25DEE74AF";
paths = (
{
closed = 1;
nodes = (
"604 -20 OFFCURVE",
"906 200 OFFCURVE",
"906 397 QCURVE SMOOTH",
"906 516 OFFCURVE",
"762 681 OFFCURVE",
"631 702 QCURVE",
"797 727 OFFCURVE",
"969 911 OFFCURVE",
"969 1065 QCURVE SMOOTH",
"969 1201 OFFCURVE",
"760 1356 OFFCURVE",
"574 1356 QCURVE SMOOTH",
"486 1356 OFFCURVE",
"346 1339 OFFCURVE",
"244 1313 QCURVE",
"190 1008 LINE",
"277 1008 LINE",
"354 1202 LINE",
"420 1254 OFFCURVE",
"510 1254 QCURVE SMOOTH",
"595 1254 OFFCURVE",
"691 1152 OFFCURVE",
"691 1051 QCURVE SMOOTH",
"691 784 OFFCURVE",
"452 769 QCURVE SMOOTH",
"339 761 LINE",
"317 640 LINE",
"432 633 LINE",
"529 622 OFFCURVE",
"628 509 OFFCURVE",
"628 394 QCURVE SMOOTH",
"628 239 OFFCURVE",
"474 81 OFFCURVE",
"336 81 QCURVE SMOOTH",
"280 81 OFFCURVE",
"154 114 OFFCURVE",
"135 130 QCURVE",
"121 345 LINE",
"29 345 LINE",
"-16 20 LINE",
"116 -20 OFFCURVE",
"347 -20 QCURVE SMOOTH"
);
}
);
width = 1024;
}
);
note = three;
unicode = 0033;
},
{
glyphname = four;
lastChange = "2019-12-20 15:51:09 +0000";
layers = (
{
layerId = "1E4AACC9-6A88-4B03-8BB8-E9E25DEE74AF";
paths = (
{
closed = 1;
nodes = (
"929 275 LINE",
"962 460 LINE",
"805 460 LINE",
"962 1348 LINE",
"759 1348 LINE",
"-4 428 LINE",
"-32 275 LINE",
"523 275 LINE",
"476 0 LINE",
"725 0 LINE",
"772 275 LINE"
);
},
{
closed = 1;
nodes = (
"638 915 OFFCURVE",
"625 846 QCURVE SMOOTH",
"556 460 LINE",
"171 460 LINE",
"681 1077 LINE"
);
}
);
width = 1024;
}
);
note = four;
unicode = 0034;
},
{
glyphname = five;
lastChange = "2019-12-20 15:51:09 +0000";
layers = (
{
layerId = "1E4AACC9-6A88-4B03-8BB8-E9E25DEE74AF";
paths = (
{
closed = 1;
nodes = (
"396 798 OFFCURVE",
"306 773 QCURVE",
"369 1138 LINE",
"935 1138 LINE",
"971 1341 LINE",
"279 1341 LINE",
"157 648 LINE",
"250 648 LINE",
"294 666 OFFCURVE",
"402 687 OFFCURVE",
"442 687 QCURVE SMOOTH",
"639 687 OFFCURVE",
"639 445 QCURVE SMOOTH",
"639 270 OFFCURVE",
"490 81 OFFCURVE",
"354 81 QCURVE SMOOTH",
"302 81 OFFCURVE",
"202 107 OFFCURVE",
"174 130 QCURVE",
"160 345 LINE",
"68 345 LINE",
"23 20 LINE",
"143 -8 OFFCURVE",
"265 -20 OFFCURVE",
"340 -20 QCURVE SMOOTH",
"615 -20 OFFCURVE",
"913 226 OFFCURVE",
"913 450 QCURVE SMOOTH",
"913 618 OFFCURVE",
"709 798 OFFCURVE",
"516 798 QCURVE SMOOTH"
);
}
);
width = 1024;
}
);
note = five;
unicode = 0035;
},
{
glyphname = six;
lastChange = "2019-12-20 15:51:09 +0000";
layers = (
{
layerId = "1E4AACC9-6A88-4B03-8BB8-E9E25DEE74AF";
paths = (
{
closed = 1;
nodes = (
"604 -20 OFFCURVE",
"825 108 OFFCURVE",
"944 339 OFFCURVE",
"944 483 QCURVE SMOOTH",
"944 641 OFFCURVE",
"777 815 OFFCURVE",
"624 815 QCURVE SMOOTH",
"498 815 OFFCURVE",
"360 742 QCURVE",
"407 979 OFFCURVE",
"605 1254 OFFCURVE",
"733 1254 QCURVE SMOOTH",
"810 1254 OFFCURVE",
"874 1202 QCURVE",
"883 1008 LINE",
"970 1008 LINE",
"1024 1313 LINE",
"887 1356 OFFCURVE",
"742 1356 QCURVE SMOOTH",
"561 1356 OFFCURVE",
"250 1108 OFFCURVE",
"70 687 OFFCURVE",
"70 446 QCURVE SMOOTH",
"70 224 OFFCURVE",
"271 -20 OFFCURVE",
"459 -20 QCURVE SMOOTH"
);
},
{
closed = 1;
nodes = (
"329 535 OFFCURVE",
"344 649 QCURVE",
"442 690 OFFCURVE",
"513 690 QCURVE SMOOTH",
"585 690 OFFCURVE",
"677 579 OFFCURVE",
"677 459 QCURVE SMOOTH",
"677 289 OFFCURVE",
"570 81 OFFCURVE",
"482 81 QCURVE SMOOTH",
"407 81 OFFCURVE",
"329 249 OFFCURVE",
"329 415 QCURVE SMOOTH"
);
}
);
width = 1024;
}
);
note = six;
unicode = 0036;
},
{
glyphname = seven;
lastChange = "2019-12-20 15:51:09 +0000";
layers = (
{
layerId = "1E4AACC9-6A88-4B03-8BB8-E9E25DEE74AF";
paths = (
{
closed = 1;
nodes = (
"331 1138 LINE",
"860 1138 LINE",
"86 0 LINE",
"345 0 LINE",
"1078 1262 LINE",
"1092 1341 LINE",
"235 1341 LINE",
"167 958 LINE",
"254 958 LINE"
);
}
);
width = 1024;
}
);
note = seven;
unicode = 0037;
},
{
glyphname = eight;
lastChange = "2019-12-20 15:51:09 +0000";
layers = (
{
layerId = "1E4AACC9-6A88-4B03-8BB8-E9E25DEE74AF";
paths = (
{
closed = 1;
nodes = (
"993 1219 OFFCURVE",
"818 1362 OFFCURVE",
"649 1362 QCURVE SMOOTH",
"427 1362 OFFCURVE",
"195 1167 OFFCURVE",
"195 980 QCURVE SMOOTH",
"195 891 OFFCURVE",
"273 745 OFFCURVE",
"337 711 QCURVE",
"198 679 OFFCURVE",
"37 477 OFFCURVE",
"37 321 QCURVE SMOOTH",
"37 161 OFFCURVE",
"234 -20 OFFCURVE",
"419 -20 QCURVE SMOOTH",
"919 -20 OFFCURVE",
"919 440 QCURVE SMOOTH",
"919 542 OFFCURVE",
"824 681 OFFCURVE",
"741 711 QCURVE",
"858 746 OFFCURVE",
"993 944 OFFCURVE",
"993 1085 QCURVE SMOOTH"
);
},
{
closed = 1;
nodes = (
"447 1081 OFFCURVE",
"540 1261 OFFCURVE",
"625 1261 QCURVE SMOOTH",
"740 1261 OFFCURVE",
"740 1109 QCURVE SMOOTH",
"740 955 OFFCURVE",
"638 766 OFFCURVE",
"553 766 QCURVE SMOOTH",
"447 766 OFFCURVE",
"447 914 QCURVE SMOOTH"
);
},
{
closed = 1;
nodes = (
"289 449 OFFCURVE",
"404 654 OFFCURVE",
"513 654 QCURVE SMOOTH",
"666 654 OFFCURVE",
"666 471 QCURVE SMOOTH",
"666 283 OFFCURVE",
"553 83 OFFCURVE",
"443 83 QCURVE SMOOTH",
"289 83 OFFCURVE",
"289 272 QCURVE SMOOTH"
);
}
);
width = 1024;
}
);
note = eight;
unicode = 0038;
},
{
glyphname = nine;
lastChange = "2019-12-20 15:51:09 +0000";
layers = (
{
layerId = "1E4AACC9-6A88-4B03-8BB8-E9E25DEE74AF";
paths = (
{
closed = 1;
nodes = (
"450 1355 OFFCURVE",
"233 1230 OFFCURVE",
"114 1008 OFFCURVE",
"114 872 QCURVE SMOOTH",
"114 707 OFFCURVE",
"287 521 OFFCURVE",
"443 521 QCURVE SMOOTH",
"572 521 OFFCURVE",
"703 584 QCURVE",
"657 344 OFFCURVE",
"464 82 OFFCURVE",
"339 82 QCURVE SMOOTH",
"245 82 OFFCURVE",
"180 134 QCURVE",
"171 328 LINE",
"84 328 LINE",
"30 23 LINE",
"165 -20 OFFCURVE",
"326 -20 QCURVE SMOOTH",
"506 -20 OFFCURVE",
"814 220 OFFCURVE",
"988 634 OFFCURVE",
"988 880 QCURVE SMOOTH",
"988 1098 OFFCURVE",
"769 1355 OFFCURVE",
"588 1355 QCURVE SMOOTH"
);
},
{
closed = 1;
nodes = (
"730 782 OFFCURVE",
"718 685 QCURVE",
"612 646 OFFCURVE",
"535 646 QCURVE SMOOTH",
"461 646 OFFCURVE",
"379 758 OFFCURVE",
"379 872 QCURVE SMOOTH",
"379 1044 OFFCURVE",
"488 1255 OFFCURVE",
"576 1255 QCURVE SMOOTH",
"647 1255 OFFCURVE",
"730 1056 OFFCURVE",
"730 883 QCURVE SMOOTH"
);
}
);
width = 1024;
}
);
note = nine;
unicode = 0039;
},
{
glyphname = colon;
lastChange = "2019-12-20 15:51:09 +0000";
layers = (
{
layerId = "1E4AACC9-6A88-4B03-8BB8-E9E25DEE74AF";
paths = (
{
closed = 1;
nodes = (
"444 628 OFFCURVE",
"540 725 OFFCURVE",
"540 794 QCURVE SMOOTH",
"540 863 OFFCURVE",
"445 960 OFFCURVE",
"374 960 QCURVE SMOOTH",
"302 960 OFFCURVE",
"209 864 OFFCURVE",
"209 794 QCURVE SMOOTH",
"209 724 OFFCURVE",
"304 628 OFFCURVE",
"374 628 QCURVE SMOOTH"
);
},
{
closed = 1;
nodes = (
"305 -29 OFFCURVE",
"401 68 OFFCURVE",
"401 137 QCURVE SMOOTH",
"401 207 OFFCURVE",
"304 303 OFFCURVE",
"235 303 QCURVE SMOOTH",
"165 303 OFFCURVE",
"69 206 OFFCURVE",
"69 137 QCURVE SMOOTH",
"69 67 OFFCURVE",
"166 -29 OFFCURVE",
"235 -29 QCURVE SMOOTH"
);
}
);
width = 682;
}
);
note = colon;
unicode = 003A;
},
{
glyphname = semicolon;
lastChange = "2019-12-20 15:51:09 +0000";
layers = (
{
layerId = "1E4AACC9-6A88-4B03-8BB8-E9E25DEE74AF";
paths = (
{
closed = 1;
nodes = (
"413 193 OFFCURVE",
"310 301 OFFCURVE",
"226 301 QCURVE SMOOTH",
"157 301 OFFCURVE",
"67 233 OFFCURVE",
"67 168 QCURVE SMOOTH",
"67 85 OFFCURVE",
"138 42 QCURVE SMOOTH",
"179 16 OFFCURVE",
"208 -17 OFFCURVE",
"208 -39 QCURVE SMOOTH",
"208 -73 OFFCURVE",
"164 -149 OFFCURVE",
"82 -210 OFFCURVE",
"26 -225 QCURVE",
"26 -317 LINE",
"215 -268 OFFCURVE",
"413 -51 OFFCURVE",
"413 106 QCURVE SMOOTH"
);
},
{
closed = 1;
nodes = (
"452 628 OFFCURVE",
"548 725 OFFCURVE",
"548 794 QCURVE SMOOTH",
"548 863 OFFCURVE",
"453 960 OFFCURVE",
"382 960 QCURVE SMOOTH",
"310 960 OFFCURVE",
"217 864 OFFCURVE",
"217 794 QCURVE SMOOTH",
"217 724 OFFCURVE",
"312 628 OFFCURVE",
"382 628 QCURVE SMOOTH"
);
}
);
width = 682;
}
);
note = semicolon;
unicode = "003B,037E";
},
{
glyphname = less;
lastChange = "2019-12-20 15:51:09 +0000";
layers = (
{
layerId = "1E4AACC9-6A88-4B03-8BB8-E9E25DEE74AF";
paths = (
{
closed = 1;
nodes = (
"1053 166 LINE",
"1053 309 LINE",
"286 680 LINE",
"1053 1050 LINE",
"1053 1193 LINE",
"101 725 LINE",
"101 635 LINE"
);
}
);
width = 1167;
}
);
note = less;
unicode = 003C;
},
{
glyphname = equal;
lastChange = "2019-12-20 15:51:09 +0000";
layers = (
{
layerId = "1E4AACC9-6A88-4B03-8BB8-E9E25DEE74AF";
paths = (
{
closed = 1;
nodes = (
"118 547 LINE",
"118 403 LINE",
"1070 403 LINE",
"1070 547 LINE"
);
},
{
closed = 1;
nodes = (
"118 956 LINE",
"118 813 LINE",
"1070 813 LINE",
"1070 956 LINE"
);
}
);
width = 1167;
}
);
note = equal;
unicode = 003D;
},
{
glyphname = greater;
lastChange = "2019-12-20 15:51:09 +0000";
layers = (
{
layerId = "1E4AACC9-6A88-4B03-8BB8-E9E25DEE74AF";
paths = (
{
closed = 1;
nodes = (
"1105 635 LINE",
"1105 725 LINE",
"153 1193 LINE",
"153 1050 LINE",
"921 680 LINE",
"153 309 LINE",
"153 166 LINE"
);
}
);
width = 1167;
}
);
note = greater;
unicode = 003E;
},
{
glyphname = question;
lastChange = "2019-12-20 15:51:09 +0000";
layers = (
{
layerId = "1E4AACC9-6A88-4B03-8BB8-E9E25DEE74AF";
paths = (
{
closed = 1;
nodes = (
"950 1195 OFFCURVE",
"737 1356 OFFCURVE",
"542 1356 QCURVE SMOOTH",
"388 1356 OFFCURVE",
"230 1308 QCURVE",
"190 1013 LINE",
"279 1013 LINE",
"344 1207 LINE",
"370 1227 OFFCURVE",
"453 1254 OFFCURVE",
"491 1254 QCURVE SMOOTH",
"680 1254 OFFCURVE",
"680 1051 QCURVE SMOOTH",
"680 777 OFFCURVE",
"436 726 QCURVE SMOOTH",
"329 703 LINE",
"331 390 LINE",
"434 390 LINE",
"497 592 LINE",
"578 614 LINE SMOOTH",
"769 666 OFFCURVE",
"950 872 OFFCURVE",
"950 1043 QCURVE SMOOTH"
);
},
{
closed = 1;
nodes = (
"420 -29 OFFCURVE",
"516 68 OFFCURVE",
"516 137 QCURVE SMOOTH",
"516 207 OFFCURVE",
"419 303 OFFCURVE",
"350 303 QCURVE SMOOTH",
"280 303 OFFCURVE",
"185 207 OFFCURVE",
"185 137 QCURVE SMOOTH",
"185 67 OFFCURVE",
"280 -29 OFFCURVE",
"350 -29 QCURVE SMOOTH"
);
}
);
width = 1024;
}
);
note = question;
unicode = 003F;
},
{
glyphname = at;
lastChange = "2019-12-20 15:51:09 +0000";
layers = (
{
layerId = "1E4AACC9-6A88-4B03-8BB8-E9E25DEE74AF";
paths = (
{
closed = 1;
nodes = (
"713 1364 OFFCURVE",
"289 1107 OFFCURVE",
"48 647 OFFCURVE",
"48 362 QCURVE SMOOTH",
"48 146 OFFCURVE",
"238 -201 OFFCURVE",
"587 -389 OFFCURVE",
"815 -389 QCURVE SMOOTH",
"991 -389 OFFCURVE",
"1289 -287 OFFCURVE",
"1431 -173 QCURVE",
"1379 -97 LINE",
"1283 -167 OFFCURVE",
"1130 -236 OFFCURVE",
"951 -274 OFFCURVE",
"846 -274 QCURVE SMOOTH",
"661 -274 OFFCURVE",
"387 -112 OFFCURVE",
"242 179 OFFCURVE",
"242 365 QCURVE SMOOTH",
"242 618 OFFCURVE",
"427 1027 OFFCURVE",
"754 1253 OFFCURVE",
"964 1253 QCURVE SMOOTH",
"1194 1253 OFFCURVE",
"1455 989 OFFCURVE",
"1455 750 QCURVE SMOOTH",
"1455 598 OFFCURVE",
"1375 318 OFFCURVE",
"1245 169 OFFCURVE",
"1169 169 QCURVE SMOOTH",
"1117 169 OFFCURVE",
"1117 223 QCURVE SMOOTH",
"1117 253 OFFCURVE",
"1147 379 QCURVE SMOOTH",
"1268 913 LINE",
"1172 924 OFFCURVE",
"1085 924 QCURVE SMOOTH",
"906 924 OFFCURVE",
"691 838 OFFCURVE",
"495 655 OFFCURVE",
"394 413 OFFCURVE",
"394 267 QCURVE SMOOTH",
"394 154 OFFCURVE",
"495 25 OFFCURVE",
"580 25 QCURVE SMOOTH",
"633 25 OFFCURVE",
"784 99 OFFCURVE",
"853 156 QCURVE",
"861 100 OFFCURVE",
"953 25 OFFCURVE",
"1020 25 QCURVE SMOOTH",
"1184 25 OFFCURVE",
"1473 215 OFFCURVE",
"1649 552 OFFCURVE",
"1649 752 QCURVE SMOOTH",
"1649 1043 OFFCURVE",
"1295 1364 OFFCURVE",
"972 1364 QCURVE SMOOTH"
);
},
{
closed = 1;
nodes = (
"644 434 OFFCURVE",
"716 688 OFFCURVE",
"760 744 QCURVE",
"823 810 OFFCURVE",
"928 810 QCURVE",
"983 805 LINE",
"856 253 LINE",
"779 189 OFFCURVE",
"712 189 QCURVE SMOOTH",
"684 189 OFFCURVE",
"644 254 OFFCURVE",
"644 320 QCURVE SMOOTH"
);
}
);
width = 1704;
}
);
note = at;
unicode = 0040;
},
{
glyphname = A;
lastChange = "2019-12-20 15:51:09 +0000";
layers = (
{
layerId = "1E4AACC9-6A88-4B03-8BB8-E9E25DEE74AF";
paths = (
{
closed = 1;
nodes = (
"154 100 LINE",
"338 447 LINE",
"810 447 LINE",
"871 100 LINE",
"733 73 LINE",
"719 0 LINE",
"1268 0 LINE",
"1282 73 LINE",
"1173 100 LINE",
"919 1352 LINE",
"679 1352 LINE",
"11 100 LINE",
"-92 73 LINE",
"-106 0 LINE",
"288 0 LINE",
"302 73 LINE"
);
},
{
closed = 1;
nodes = (
"790 557 LINE",
"394 557 LINE",
"689 1118 LINE"
);
}
);
width = 1366;
}
);
note = A;
unicode = 0041;
},
{
glyphname = B;
lastChange = "2019-12-20 15:51:09 +0000";
layers = (
{
layerId = "1E4AACC9-6A88-4B03-8BB8-E9E25DEE74AF";
paths = (
{
closed = 1;
nodes = (
"583 764 LINE",
"666 1231 LINE",
"755 1231 LINE SMOOTH",
"872 1231 OFFCURVE",
"993 1130 OFFCURVE",
"993 1035 QCURVE SMOOTH",
"993 764 OFFCURVE",
"677 764 QCURVE SMOOTH"
);
},
{
closed = 1;
nodes = (
"573 104 OFFCURVE",
"468 110 QCURVE",
"564 654 LINE",
"678 654 LINE SMOOTH",
"829 654 OFFCURVE",
"981 527 OFFCURVE",
"981 405 QCURVE SMOOTH",
"981 251 OFFCURVE",
"823 104 OFFCURVE",
"654 104 QCURVE SMOOTH"
);
},
{
closed = 1;
nodes = (
"963 -6 OFFCURVE",
"1278 195 OFFCURVE",
"1278 404 QCURVE SMOOTH",
"1278 536 OFFCURVE",
"1105 703 OFFCURVE",
"953 716 QCURVE",
"1113 738 OFFCURVE",
"1290 907 OFFCURVE",
"1290 1048 QCURVE SMOOTH",
"1290 1341 OFFCURVE",
"804 1341 QCURVE SMOOTH",
"218 1341 LINE",
"204 1268 LINE",
"372 1242 LINE",
"171 100 LINE",
"-7 73 LINE",
"-19 0 LINE",
"303 0 LINE",
"648 -6 LINE SMOOTH"
);
}
);
width = 1366;
}
);
note = B;
unicode = 0042;
},
{
glyphname = C;
lastChange = "2019-12-20 15:51:09 +0000";
layers = (
{
layerId = "1E4AACC9-6A88-4B03-8BB8-E9E25DEE74AF";
paths = (
{
closed = 1;
nodes = (
"800 -20 OFFCURVE",
"1074 27 OFFCURVE",
"1187 64 QCURVE",
"1253 404 LINE",
"1168 404 LINE",
"1091 184 LINE",
"1030 140 OFFCURVE",
"832 83 OFFCURVE",
"734 83 QCURVE SMOOTH",
"567 83 OFFCURVE",
"383 315 OFFCURVE",
"383 522 QCURVE SMOOTH",
"383 732 OFFCURVE",
"529 1067 OFFCURVE",
"792 1251 OFFCURVE",
"957 1251 QCURVE SMOOTH",
"1041 1251 OFFCURVE",
"1194 1204 OFFCURVE",
"1248 1161 QCURVE",
"1248 967 LINE",
"1332 967 LINE",
"1385 1304 LINE",
"1138 1356 OFFCURVE",
"912 1356 QCURVE SMOOTH",
"664 1356 OFFCURVE",
"278 1152 OFFCURVE",
"70 777 OFFCURVE",
"70 531 QCURVE SMOOTH",
"70 275 OFFCURVE",
"385 -20 OFFCURVE",
"670 -20 QCURVE SMOOTH"
);
}
);
width = 1366;
}
);
note = C;
unicode = 0043;
},
{
glyphname = D;
lastChange = "2019-12-20 15:51:09 +0000";
layers = (
{
layerId = "1E4AACC9-6A88-4B03-8BB8-E9E25DEE74AF";
paths = (
{
closed = 1;
nodes = (
"1120 464 OFFCURVE",
"839 106 OFFCURVE",
"595 106 QCURVE SMOOTH",
"556 106 OFFCURVE",
"471 114 QCURVE",
"668 1231 LINE",
"705 1231 LINE SMOOTH",
"1120 1231 OFFCURVE",
"1120 774 QCURVE SMOOTH"
);
},
{
closed = 1;
nodes = (
"221 1341 LINE",
"208 1268 LINE",
"375 1242 LINE",
"174 100 LINE",
"-3 73 LINE",
"-15 0 LINE",
"599 -4 LINE SMOOTH",
"849 -4 OFFCURVE",
"1228 188 OFFCURVE",
"1431 549 OFFCURVE",
"1431 788 QCURVE SMOOTH",
"1431 1054 OFFCURVE",
"1079 1341 OFFCURVE",
"742 1341 QCURVE SMOOTH"
);
}
);
width = 1479;
}
);
note = D;
unicode = 0044;
},
{
glyphname = E;
lastChange = "2019-12-20 15:51:09 +0000";
layers = (
{
layerId = "1E4AACC9-6A88-4B03-8BB8-E9E25DEE74AF";
paths = (
{
closed = 1;
nodes = (
"174 100 LINE",
"-3 73 LINE",
"-15 0 LINE",
"1102 0 LINE",
"1186 374 LINE",
"1095 374 LINE",
"992 126 LINE",
"907 110 OFFCURVE",
"654 110 QCURVE SMOOTH",
"471 110 LINE",
"562 627 LINE",
"843 627 LINE",
"847 475 LINE",
"936 475 LINE",
"1009 887 LINE",
"920 887 LINE",
"863 739 LINE",
"582 739 LINE",
"669 1231 LINE",
"807 1231 LINE SMOOTH",
"1019 1231 OFFCURVE",
"1128 1217 QCURVE",
"1122 1000 LINE",
"1213 1000 LINE",
"1273 1341 LINE",
"221 1341 LINE",
"208 1268 LINE",
"375 1242 LINE"
);
}
);
width = 1366;
}
);
note = E;
unicode = 0045;
},
{
glyphname = F;
lastChange = "2019-12-20 15:51:09 +0000";
layers = (
{
layerId = "1E4AACC9-6A88-4B03-8BB8-E9E25DEE74AF";
paths = (
{
closed = 1;
nodes = (
"919 592 LINE",
"920 420 LINE",
"1009 420 LINE",
"1089 872 LINE",
"1000 872 LINE",
"939 702 LINE",
"576 702 LINE",
"669 1231 LINE",
"807 1231 LINE SMOOTH",
"880 1231 OFFCURVE",
"1135 1224 OFFCURVE",
"1184 1217 QCURVE",
"1174 980 LINE",
"1268 980 LINE",
"1332 1341 LINE",
"221 1341 LINE",
"208 1268 LINE",
"375 1242 LINE",
"174 100 LINE",
"10 73 LINE",
"-2 0 LINE",
"675 0 LINE",
"687 73 LINE",
"469 100 LINE",
"556 592 LINE"
);
}
);
width = 1366;
}
);
note = F;
unicode = 0046;
},
{
glyphname = G;
lastChange = "2019-12-20 15:51:09 +0000";
layers = (
{
layerId = "1E4AACC9-6A88-4B03-8BB8-E9E25DEE74AF";
paths = (
{
closed = 1;
nodes = (
"70 268 OFFCURVE",
"381 -20 OFFCURVE",
"662 -20 QCURVE SMOOTH",
"815 -20 OFFCURVE",
"1083 24 OFFCURVE",
"1231 70 QCURVE",
"1308 506 LINE",
"1444 538 LINE",
"1456 606 LINE",
"858 606 LINE",
"846 538 LINE",
"1013 506 LINE",
"945 126 LINE",
"838 83 OFFCURVE",
"708 83 QCURVE SMOOTH",
"552 83 OFFCURVE",
"381 305 OFFCURVE",
"381 503 QCURVE SMOOTH",
"381 723 OFFCURVE",
"524 1064 OFFCURVE",
"782 1251 OFFCURVE",
"941 1251 QCURVE SMOOTH",
"1141 1251 OFFCURVE",
"1261 1160 QCURVE",
"1260 986 LINE",
"1344 986 LINE",
"1399 1294 LINE",
"1170 1356 OFFCURVE",
"924 1356 QCURVE SMOOTH",
"673 1356 OFFCURVE",
"283 1152 OFFCURVE",
"70 774 OFFCURVE",
"70 523 QCURVE SMOOTH"
);
}
);
width = 1479;
}
);
note = G;
unicode = 0047;
},
{
glyphname = H;
lastChange = "2019-12-20 15:51:09 +0000";
layers = (
{
layerId = "1E4AACC9-6A88-4B03-8BB8-E9E25DEE74AF";
paths = (
{
closed = 1;
nodes = (
"623 0 LINE",
"636 74 LINE",
"469 100 LINE",
"563 635 LINE",
"1051 635 LINE",
"957 100 LINE",
"780 74 LINE",
"767 0 LINE",
"1408 0 LINE",
"1421 74 LINE",
"1253 100 LINE",
"1454 1241 LINE",
"1632 1268 LINE",
"1645 1341 LINE",
"1004 1341 LINE",
"991 1268 LINE",
"1158 1241 LINE",
"1071 745 LINE",
"583 745 LINE",
"670 1241 LINE",
"847 1268 LINE",
"860 1341 LINE",
"221 1341 LINE",
"208 1268 LINE",
"375 1241 LINE",
"174 100 LINE",
"-2 74 LINE",
"-15 0 LINE"
);
}
);
width = 1593;
}
);
note = H;
unicode = 0048;
},
{
glyphname = I;
lastChange = "2019-12-20 15:51:09 +0000";
layers = (
{
layerId = "1E4AACC9-6A88-4B03-8BB8-E9E25DEE74AF";
paths = (
{
closed = 1;
nodes = (
"665 1241 LINE",
"842 1268 LINE",
"855 1341 LINE",
"216 1341 LINE",
"203 1268 LINE",
"370 1241 LINE",
"169 100 LINE",
"-7 74 LINE",
"-20 0 LINE",
"618 0 LINE",
"631 74 LINE",
"464 100 LINE"
);
}
);
width = 797;
}
);
note = I;
unicode = 0049;
},
{
glyphname = J;
lastChange = "2019-12-20 15:51:09 +0000";
layers = (
{
layerId = "1E4AACC9-6A88-4B03-8BB8-E9E25DEE74AF";
paths = (
{
closed = 1;
nodes = (
"443 276 LINE SMOOTH",
"428 188 OFFCURVE",
"324 86 OFFCURVE",
"250 86 QCURVE SMOOTH",
"169 86 OFFCURVE",
"137 135 QCURVE",
"133 314 LINE",
"50 314 LINE",
"-4 10 LINE",
"92 -20 OFFCURVE",
"244 -20 QCURVE SMOOTH",
"461 -20 OFFCURVE",
"728 216 OFFCURVE",
"766 432 QCURVE SMOOTH",
"908 1242 LINE",
"1065 1268 LINE",
"1078 1341 LINE",
"459 1341 LINE",
"446 1268 LINE",
"613 1242 LINE"
);
}
);
width = 1024;
}
);
note = J;
unicode = 004A;
},
{
glyphname = K;
lastChange = "2019-12-20 15:51:09 +0000";
layers = (
{
layerId = "1E4AACC9-6A88-4B03-8BB8-E9E25DEE74AF";
paths = (
{
closed = 1;
nodes = (
"555 591 LINE",
"648 636 LINE",
"944 0 LINE",
"1330 0 LINE",
"1342 73 LINE",
"1208 100 LINE",
"855 813 LINE",
"1328 1242 LINE",
"1467 1268 LINE",
"1480 1341 LINE",
"1055 1341 LINE",
"1042 1268 LINE",
"1155 1242 LINE",
"579 718 LINE",
"670 1242 LINE",
"837 1268 LINE",
"850 1341 LINE",
"221 1341 LINE",
"208 1268 LINE",
"375 1242 LINE",
"174 100 LINE",
"-3 73 LINE",
"-15 0 LINE",
"635 0 LINE",
"647 73 LINE",
"469 100 LINE"
);
}
);
width = 1366;
}
);
note = K;
unicode = 004B;
},
{
glyphname = L;
lastChange = "2019-12-20 15:51:09 +0000";
layers = (
{
layerId = "1E4AACC9-6A88-4B03-8BB8-E9E25DEE74AF";
paths = (
{
closed = 1;
nodes = (
"670 1242 LINE",
"872 1268 LINE",
"885 1341 LINE",
"222 1341 LINE",
"209 1268 LINE",
"375 1242 LINE",
"174 100 LINE",
"-3 73 LINE",
"-15 0 LINE",
"1070 0 LINE",
"1159 405 LINE",
"1075 405 LINE",
"958 126 LINE",
"920 119 OFFCURVE",
"679 106 OFFCURVE",
"583 106 QCURVE SMOOTH",
"470 106 LINE"
);
}
);
width = 1251;
}
);
note = L;
unicode = 004C;
},
{
glyphname = M;
lastChange = "2019-12-20 15:51:09 +0000";
layers = (
{
layerId = "1E4AACC9-6A88-4B03-8BB8-E9E25DEE74AF";
paths = (
{
closed = 1;
nodes = (
"1379 1158 LINE",
"1192 100 LINE",
"997 73 LINE",
"985 0 LINE",
"1642 0 LINE",
"1654 73 LINE",
"1487 100 LINE",
"1688 1242 LINE",
"1865 1268 LINE",
"1878 1341 LINE",
"1343 1341 LINE",
"867 467 LINE",
"702 1341 LINE",
"209 1341 LINE",
"196 1268 LINE",
"363 1242 LINE",
"162 100 LINE",
"-15 73 LINE",
"-27 0 LINE",
"450 0 LINE",
"462 73 LINE",
"287 100 LINE",
"474 1158 LINE",
"695 0 LINE",
"740 0 LINE"
);
}
);
width = 1821;
}
);
note = M;
unicode = 004D;
},
{
glyphname = N;
lastChange = "2019-12-20 15:51:09 +0000";
layers = (
{
layerId = "1E4AACC9-6A88-4B03-8BB8-E9E25DEE74AF";
paths = (
{
closed = 1;
nodes = (
"1085 447 LINE",
"650 1341 LINE",
"217 1341 LINE",
"204 1268 LINE",
"371 1242 LINE",
"170 100 LINE",
"-7 73 LINE",
"-19 0 LINE",
"458 0 LINE",
"470 73 LINE",
"295 100 LINE",
"476 1112 LINE",
"1017 0 LINE",
"1132 0 LINE",
"1350 1242 LINE",
"1527 1268 LINE",
"1540 1341 LINE",
"1063 1341 LINE",
"1050 1268 LINE",
"1225 1242 LINE"
);
}
);
width = 1479;
}
);
note = N;
unicode = 004E;
},
{
glyphname = O;
lastChange = "2019-12-20 15:51:09 +0000";
layers = (
{
layerId = "1E4AACC9-6A88-4B03-8BB8-E9E25DEE74AF";
paths = (
{
closed = 1;
nodes = (
"1120 653 OFFCURVE",
"988 281 OFFCURVE",
"782 83 OFFCURVE",
"657 83 QCURVE SMOOTH",
"523 83 OFFCURVE",
"375 297 OFFCURVE",
"375 485 QCURVE SMOOTH",
"375 672 OFFCURVE",
"505 1051 OFFCURVE",
"710 1251 OFFCURVE",
"832 1251 QCURVE SMOOTH",
"968 1251 OFFCURVE",
"1120 1033 OFFCURVE",
"1120 843 QCURVE SMOOTH"
);
},
{
closed = 1;
nodes = (
"871 -20 OFFCURVE",
"1220 179 OFFCURVE",
"1421 572 OFFCURVE",
"1421 812 QCURVE SMOOTH",
"1421 970 OFFCURVE",
"1279 1219 OFFCURVE",
"1022 1356 OFFCURVE",
"856 1356 QCURVE SMOOTH",
"625 1356 OFFCURVE",
"270 1149 OFFCURVE",
"74 766 OFFCURVE",
"74 524 QCURVE SMOOTH",
"74 366 OFFCURVE",
"216 117 OFFCURVE",
"473 -20 OFFCURVE",
"639 -20 QCURVE SMOOTH"
);
}
);
width = 1479;
}
);
note = O;
unicode = 004F;
},
{
glyphname = P;
lastChange = "2019-12-20 15:51:09 +0000";
layers = (
{
layerId = "1E4AACC9-6A88-4B03-8BB8-E9E25DEE74AF";
paths = (
{
closed = 1;
nodes = (
"564 636 LINE",
"669 1230 LINE",
"738 1230 LINE SMOOTH",
"854 1230 OFFCURVE",
"971 1100 OFFCURVE",
"971 980 QCURVE SMOOTH",
"971 821 OFFCURVE",
"796 636 OFFCURVE",
"643 636 QCURVE SMOOTH"
);
},
{
closed = 1;
nodes = (
"687 526 LINE SMOOTH",
"966 526 OFFCURVE",
"1264 766 OFFCURVE",
"1264 983 QCURVE SMOOTH",
"1264 1161 OFFCURVE",
"1003 1341 OFFCURVE",
"749 1341 QCURVE SMOOTH",
"218 1341 LINE",
"206 1268 LINE",
"374 1242 LINE",
"172 100 LINE",
"10 73 LINE",
"-1 0 LINE",
"676 0 LINE",
"687 73 LINE",
"468 100 LINE",
"544 526 LINE"
);
}
);
width = 1251;
}
);
note = P;
unicode = 0050;
},
{
glyphname = Q;
lastChange = "2019-12-20 15:51:09 +0000";
layers = (
{
layerId = "1E4AACC9-6A88-4B03-8BB8-E9E25DEE74AF";
paths = (
{
closed = 1;
nodes = (
"1421 970 OFFCURVE",
"1279 1219 OFFCURVE",
"1022 1356 OFFCURVE",
"856 1356 QCURVE SMOOTH",
"625 1356 OFFCURVE",
"270 1149 OFFCURVE",
"74 766 OFFCURVE",
"74 524 QCURVE SMOOTH",
"74 376 OFFCURVE",
"202 133 OFFCURVE",
"439 -9 OFFCURVE",
"593 -18 QCURVE",
"687 -176 OFFCURVE",
"793 -283 OFFCURVE",
"919 -332 OFFCURVE",
"1007 -332 QCURVE SMOOTH",
"1059 -332 OFFCURVE",
"1224 -301 OFFCURVE",
"1268 -283 QCURVE",
"1255 -205 LINE",
"1187 -213 OFFCURVE",
"1166 -213 QCURVE SMOOTH",
"1058 -213 OFFCURVE",
"942 -29 QCURVE SMOOTH",
"910 20 LINE",
"1068 71 OFFCURVE",
"1299 302 OFFCURVE",
"1421 627 OFFCURVE",
"1421 812 QCURVE SMOOTH"
);
},
{
closed = 1;
nodes = (
"1120 653 OFFCURVE",
"988 281 OFFCURVE",
"782 83 OFFCURVE",
"657 83 QCURVE SMOOTH",
"523 83 OFFCURVE",
"375 297 OFFCURVE",
"375 485 QCURVE SMOOTH",
"375 672 OFFCURVE",
"505 1051 OFFCURVE",
"710 1251 OFFCURVE",
"832 1251 QCURVE SMOOTH",
"968 1251 OFFCURVE",
"1120 1033 OFFCURVE",
"1120 843 QCURVE SMOOTH"
);
}
);
width = 1479;
}
);
note = Q;
unicode = 0051;
},
{
glyphname = R;
lastChange = "2019-12-20 15:51:09 +0000";
layers = (
{
layerId = "1E4AACC9-6A88-4B03-8BB8-E9E25DEE74AF";
paths = (
{
closed = 1;
nodes = (
"668 568 LINE",
"876 0 LINE",
"1276 0 LINE",
"1288 73 LINE",
"1141 100 LINE",
"940 596 LINE",
"1100 639 OFFCURVE",
"1269 847 OFFCURVE",
"1269 1003 QCURVE SMOOTH",
"1269 1175 OFFCURVE",
"1017 1341 OFFCURVE",
"755 1341 QCURVE SMOOTH",
"220 1341 LINE",
"207 1268 LINE",
"374 1242 LINE",
"173 100 LINE",
"9 73 LINE",
"-3 0 LINE",
"624 0 LINE",
"636 73 LINE",
"469 100 LINE",
"552 568 LINE"
);
},
{
closed = 1;
nodes = (
"571 678 LINE",
"669 1231 LINE",
"738 1231 LINE SMOOTH",
"855 1231 OFFCURVE",
"976 1117 OFFCURVE",
"976 987 QCURVE SMOOTH",
"976 841 OFFCURVE",
"790 678 OFFCURVE",
"626 678 QCURVE SMOOTH"
);
}
);
width = 1366;
}
);
note = R;
unicode = 0052;
},
{
glyphname = S;
lastChange = "2019-12-20 15:51:09 +0000";
layers = (
{
layerId = "1E4AACC9-6A88-4B03-8BB8-E9E25DEE74AF";
paths = (
{
closed = 1;
nodes = (
"714 -20 OFFCURVE",
"1011 207 OFFCURVE",
"1011 423 QCURVE SMOOTH",
"1011 499 OFFCURVE",
"962 613 OFFCURVE",
"880 703 OFFCURVE",
"761 782 OFFCURVE",
"627 857 QCURVE SMOOTH",
"535 908 OFFCURVE",
"448 1009 OFFCURVE",
"448 1069 QCURVE SMOOTH",
"448 1154 OFFCURVE",
"577 1252 OFFCURVE",
"690 1252 QCURVE SMOOTH",
"820 1252 OFFCURVE",
"901 1190 QCURVE",
"908 994 LINE",
"997 994 LINE",
"1053 1313 LINE",
"888 1356 OFFCURVE",
"717 1356 QCURVE SMOOTH",
"461 1356 OFFCURVE",
"194 1163 OFFCURVE",
"194 979 QCURVE SMOOTH",
"194 901 OFFCURVE",
"242 785 OFFCURVE",
"321 695 OFFCURVE",
"421 626 OFFCURVE",
"526 567 OFFCURVE",
"626 510 OFFCURVE",
"705 445 OFFCURVE",
"753 365 OFFCURVE",
"753 311 QCURVE SMOOTH",
"753 203 OFFCURVE",
"595 81 OFFCURVE",
"449 81 QCURVE SMOOTH",
"368 81 OFFCURVE",
"224 147 OFFCURVE",
"190 196 QCURVE",
"189 411 LINE",
"101 411 LINE",
"37 51 LINE",
"215 -20 OFFCURVE",
"432 -20 QCURVE SMOOTH"
);
}
);
width = 1139;
}
);
note = S;
unicode = 0053;
},
{
glyphname = T;
lastChange = "2019-12-20 15:51:09 +0000";
layers = (
{
layerId = "1E4AACC9-6A88-4B03-8BB8-E9E25DEE74AF";
paths = (
{
closed = 1;
nodes = (
"889 0 LINE",
"901 73 LINE",
"693 100 LINE",
"893 1233 LINE",
"952 1233 LINE SMOOTH",
"1000 1233 OFFCURVE",
"1149 1221 OFFCURVE",
"1177 1215 QCURVE",
"1164 966 LINE",
"1252 966 LINE",
"1318 1341 LINE",
"215 1341 LINE",
"149 966 LINE",
"236 966 LINE",
"311 1215 LINE",
"341 1221 OFFCURVE",
"480 1235 OFFCURVE",
"536 1235 QCURVE SMOOTH",
"597 1235 LINE",
"397 100 LINE",
"179 73 LINE",
"167 0 LINE"
);
}
);
width = 1251;
}
);
note = T;
unicode = 0054;
},
{
glyphname = U;
lastChange = "2019-12-20 15:51:09 +0000";
layers = (
{
layerId = "1E4AACC9-6A88-4B03-8BB8-E9E25DEE74AF";
paths = (
{
closed = 1;
nodes = (
"314 1242 LINE",
"200 583 LINE SMOOTH",
"180 463 OFFCURVE",
"180 399 QCURVE SMOOTH",
"180 198 OFFCURVE",
"445 -19 OFFCURVE",
"689 -19 QCURVE SMOOTH",
"932 -19 OFFCURVE",
"1217 218 OFFCURVE",
"1262 471 QCURVE SMOOTH",
"1397 1242 LINE",
"1554 1268 LINE",
"1567 1341 LINE",
"1111 1341 LINE",
"1098 1268 LINE",
"1273 1242 LINE",
"1136 463 LINE SMOOTH",
"1106 296 OFFCURVE",
"901 122 OFFCURVE",
"740 122 QCURVE SMOOTH",
"473 122 OFFCURVE",
"473 389 QCURVE SMOOTH",
"473 456 OFFCURVE",
"496 586 QCURVE SMOOTH",
"609 1242 LINE",
"786 1268 LINE",
"799 1341 LINE",
"180 1341 LINE",
"167 1268 LINE"
);
}
);
width = 1479;
}
);
note = U;
unicode = 0055;
},
{
glyphname = V;
lastChange = "2019-12-20 15:51:09 +0000";
layers = (
{
layerId = "1E4AACC9-6A88-4B03-8BB8-E9E25DEE74AF";
paths = (
{
closed = 1;
nodes = (
"1094 1341 LINE",
"1082 1268 LINE",
"1212 1241 LINE",
"725 362 LINE",
"523 1241 LINE",
"667 1268 LINE",
"679 1341 LINE",
"132 1341 LINE",
"120 1268 LINE",
"225 1241 LINE",
"526 -31 LINE",
"639 -31 LINE",
"1361 1241 LINE",
"1493 1268 LINE",
"1505 1341 LINE"
);
}
);
width = 1366;
}
);
note = V;
unicode = 0056;
},
{
glyphname = W;
lastChange = "2019-12-20 15:51:09 +0000";
layers = (
{
layerId = "1E4AACC9-6A88-4B03-8BB8-E9E25DEE74AF";
paths = (
{
closed = 1;
nodes = (
"1806 1242 LINE",
"1928 1268 LINE",
"1941 1341 LINE",
"1509 1341 LINE",
"1496 1268 LINE",
"1660 1242 LINE",
"1298 423 LINE",
"1146 1257 LINE",
"1046 1257 LINE",
"649 428 LINE",
"543 1242 LINE",
"705 1268 LINE",
"718 1341 LINE",
"154 1341 LINE",
"141 1268 LINE",
"271 1242 LINE",
"459 -31 LINE",
"560 -31 LINE",
"962 817 LINE",
"1120 -31 LINE",
"1214 -31 LINE"
);
}
);
width = 1821;
}
);
note = W;
unicode = 0057;
},
{
glyphname = X;
lastChange = "2019-12-20 15:51:09 +0000";
layers = (
{
layerId = "1E4AACC9-6A88-4B03-8BB8-E9E25DEE74AF";
paths = (
{
closed = 1;
nodes = (
"619 520 LINE",
"784 100 LINE",
"619 73 LINE",
"607 0 LINE",
"1220 0 LINE",
"1232 73 LINE",
"1085 100 LINE",
"826 760 LINE",
"1242 1242 LINE",
"1395 1268 LINE",
"1408 1341 LINE",
"959 1341 LINE",
"946 1268 LINE",
"1097 1242 LINE",
"781 875 LINE",
"638 1242 LINE",
"803 1268 LINE",
"816 1341 LINE",
"203 1341 LINE",
"190 1268 LINE",
"336 1242 LINE",
"574 635 LINE",
"113 100 LINE",
"-40 73 LINE",
"-52 0 LINE",
"396 0 LINE",
"408 73 LINE",
"257 100 LINE"
);
}
);
width = 1366;
}
);
note = X;
unicode = 0058;
},
{
glyphname = Y;
lastChange = "2019-12-20 15:51:09 +0000";
layers = (
{
layerId = "1E4AACC9-6A88-4B03-8BB8-E9E25DEE74AF";
paths = (
{
closed = 1;
nodes = (
"782 548 LINE",
"1248 1242 LINE",
"1395 1268 LINE",
"1408 1341 LINE",
"952 1341 LINE",
"939 1268 LINE",
"1098 1242 LINE",
"734 686 LINE",
"556 1242 LINE",
"741 1268 LINE",
"754 1341 LINE",
"118 1341 LINE",
"105 1268 LINE",
"251 1242 LINE",
"485 542 LINE",
"406 100 LINE",
"188 73 LINE",
"176 0 LINE",
"898 0 LINE",
"910 73 LINE",
"702 100 LINE"
);
}
);
width = 1251;
}
);
note = Y;
unicode = 0059;
},
{
glyphname = Z;
lastChange = "2019-12-20 15:51:09 +0000";
layers = (
{
layerId = "1E4AACC9-6A88-4B03-8BB8-E9E25DEE74AF";
paths = (
{
closed = 1;
nodes = (
"15 114 LINE",
"-5 0 LINE",
"1032 0 LINE",
"1128 393 LINE",
"1038 393 LINE",
"934 137 LINE",
"890 127 OFFCURVE",
"653 104 OFFCURVE",
"544 104 QCURVE SMOOTH",
"357 104 LINE",
"1180 1235 LINE",
"1199 1341 LINE",
"258 1341 LINE",
"199 1004 LINE",
"288 1004 LINE",
"356 1215 LINE",
"388 1222 OFFCURVE",
"550 1235 OFFCURVE",
"649 1235 QCURVE SMOOTH",
"841 1235 LINE"
);
}
);
width = 1251;
}
);
note = Z;
unicode = 005A;
},
{
glyphname = bracketleft;
lastChange = "2019-12-20 15:51:09 +0000";
layers = (
{
layerId = "1E4AACC9-6A88-4B03-8BB8-E9E25DEE74AF";
paths = (
{
closed = 1;
nodes = (
"487 -274 LINE",
"499 -207 LINE",
"303 -166 LINE",
"564 1313 LINE",
"774 1354 LINE",
"786 1421 LINE",
"350 1421 LINE",
"51 -274 LINE"
);
}
);
width = 682;
}
);
note = bracketleft;
unicode = 005B;
},
{
glyphname = backslash;
lastChange = "2019-12-20 15:51:09 +0000";
layers = (
{
layerId = "1E4AACC9-6A88-4B03-8BB8-E9E25DEE74AF";
paths = (
{
closed = 1;
nodes = (
"469 -20 LINE",
"257 1349 LINE",
"130 1349 LINE",
"339 -20 LINE"
);
}
);
width = 569;
}
);
note = backslash;
unicode = 005C;
},
{
glyphname = bracketright;
lastChange = "2019-12-20 15:51:09 +0000";
layers = (
{
layerId = "1E4AACC9-6A88-4B03-8BB8-E9E25DEE74AF";
paths = (
{
closed = 1;
nodes = (
"330 -274 LINE",
"629 1421 LINE",
"193 1421 LINE",
"181 1354 LINE",
"377 1313 LINE",
"116 -166 LINE",
"-94 -207 LINE",
"-106 -274 LINE"
);
}
);
width = 682;
}
);
note = bracketright;
unicode = 005D;
},
{
glyphname = asciicircum;
lastChange = "2019-12-20 15:51:09 +0000";
layers = (
{
layerId = "1E4AACC9-6A88-4B03-8BB8-E9E25DEE74AF";
paths = (
{
closed = 1;
nodes = (
"1077 389 LINE",
"649 1341 LINE",
"559 1341 LINE",
"131 389 LINE",
"274 389 LINE",
"604 1150 LINE",
"934 389 LINE"
);
}
);
width = 1167;
}
);
note = asciicircum;
unicode = 005E;
},
{
glyphname = underscore;
lastChange = "2019-12-20 15:51:09 +0000";
layers = (
{
layerId = "1E4AACC9-6A88-4B03-8BB8-E9E25DEE74AF";
paths = (
{
closed = 1;
nodes = (
"903 -285 LINE",
"903 -141 LINE",
"-153 -141 LINE",
"-153 -285 LINE"
);
}
);
width = 1024;
}
);
note = underscore;
unicode = 005F;
},
{
glyphname = grave;
lastChange = "2019-12-20 15:51:09 +0000";
layers = (
{
layerId = "1E4AACC9-6A88-4B03-8BB8-E9E25DEE74AF";
paths = (
{
closed = 1;
nodes = (
"633 1118 LINE",
"639 1150 LINE",
"502 1423 LINE",
"237 1423 LINE",
"230 1386 LINE",
"547 1118 LINE"
);
}
);
width = 682;
}
);
note = grave;
unicode = 0060;
},
{
glyphname = a;
lastChange = "2019-12-20 15:51:09 +0000";
layers = (
{
layerId = "1E4AACC9-6A88-4B03-8BB8-E9E25DEE74AF";
paths = (
{
closed = 1;
nodes = (
"975 956 LINE",
"921 956 LINE",
"839 919 LINE",
"726 964 OFFCURVE",
"588 964 QCURVE SMOOTH",
"431 964 OFFCURVE",
"170 793 OFFCURVE",
"24 494 OFFCURVE",
"24 319 QCURVE SMOOTH",
"24 159 OFFCURVE",
"163 -21 OFFCURVE",
"288 -21 QCURVE SMOOTH",
"365 -21 OFFCURVE",
"514 64 OFFCURVE",
"573 138 QCURVE",
"577 0 LINE",
"924 0 LINE",
"932 58 LINE",
"823 90 LINE"
);
},
{
closed = 1;
nodes = (
"287 481 OFFCURVE",
"360 722 OFFCURVE",
"486 863 OFFCURVE",
"560 863 QCURVE SMOOTH",
"639 863 OFFCURVE",
"684 829 QCURVE",
"585 266 LINE",
"546 207 OFFCURVE",
"448 127 OFFCURVE",
"408 127 QCURVE SMOOTH",
"356 127 OFFCURVE",
"287 248 OFFCURVE",
"287 351 QCURVE SMOOTH"
);
}
);
width = 1024;
}
);
note = a;
unicode = 0061;
},
{
glyphname = b;
lastChange = "2019-12-20 15:51:09 +0000";
layers = (
{
layerId = "1E4AACC9-6A88-4B03-8BB8-E9E25DEE74AF";
paths = (
{
closed = 1;
nodes = (
"700 461 OFFCURVE",
"628 220 OFFCURVE",
"506 76 OFFCURVE",
"437 76 QCURVE SMOOTH",
"406 76 OFFCURVE",
"328 105 OFFCURVE",
"308 124 QCURVE",
"405 674 LINE",
"448 736 OFFCURVE",
"543 813 OFFCURVE",
"579 813 QCURVE SMOOTH",
"633 813 OFFCURVE",
"700 692 OFFCURVE",
"700 587 QCURVE SMOOTH"
);
},
{
closed = 1;
nodes = (
"593 -23 OFFCURVE",
"826 148 OFFCURVE",
"963 455 OFFCURVE",
"963 631 QCURVE SMOOTH",
"963 786 OFFCURVE",
"821 965 OFFCURVE",
"701 965 QCURVE SMOOTH",
"626 965 OFFCURVE",
"481 878 OFFCURVE",
"420 797 QCURVE",
"443 874 OFFCURVE",
"462 991 QCURVE SMOOTH",
"538 1421 LINE",
"173 1421 LINE",
"162 1356 LINE",
"254 1333 LINE",
"27 48 LINE",
"113 13 OFFCURVE",
"340 -23 OFFCURVE",
"449 -23 QCURVE SMOOTH"
);
}
);
width = 1024;
}
);
note = b;
unicode = 0062;
},
{
glyphname = c;
lastChange = "2019-12-20 15:51:09 +0000";
layers = (
{
layerId = "1E4AACC9-6A88-4B03-8BB8-E9E25DEE74AF";
paths = (
{
closed = 1;
nodes = (
"487 -20 OFFCURVE",
"688 62 OFFCURVE",
"770 135 QCURVE",
"726 198 LINE",
"669 158 OFFCURVE",
"546 104 OFFCURVE",
"471 104 QCURVE SMOOTH",
"386 104 OFFCURVE",
"298 228 OFFCURVE",
"298 340 QCURVE SMOOTH",
"298 481 OFFCURVE",
"378 722 OFFCURVE",
"519 863 OFFCURVE",
"598 863 QCURVE SMOOTH",
"690 863 OFFCURVE",
"744 803 QCURVE",
"758 632 LINE",
"830 632 LINE",
"879 920 LINE",
"826 938 OFFCURVE",
"657 965 OFFCURVE",
"585 965 QCURVE SMOOTH",
"435 965 OFFCURVE",
"177 805 OFFCURVE",
"30 515 OFFCURVE",
"30 330 QCURVE SMOOTH",
"30 166 OFFCURVE",
"219 -20 OFFCURVE",
"391 -20 QCURVE SMOOTH"
);
}
);
width = 909;
}
);
note = c;
unicode = 0063;
},
{
glyphname = d;
lastChange = "2019-12-20 15:51:09 +0000";
layers = (
{
layerId = "1E4AACC9-6A88-4B03-8BB8-E9E25DEE74AF";
paths = (
{
closed = 1;
nodes = (
"349 -20 OFFCURVE",
"501 65 OFFCURVE",
"560 144 QCURVE",
"567 0 LINE",
"899 0 LINE",
"911 60 LINE",
"812 85 LINE",
"1049 1421 LINE",
"614 1421 LINE",
"602 1356 LINE",
"762 1332 LINE",
"716 1060 LINE",
"705 966 LINE",
"702 936 LINE",
"637 964 OFFCURVE",
"528 964 QCURVE SMOOTH",
"386 964 OFFCURVE",
"153 789 OFFCURVE",
"24 487 OFFCURVE",
"24 310 QCURVE SMOOTH",
"24 156 OFFCURVE",
"162 -20 OFFCURVE",
"276 -20 QCURVE SMOOTH"
);
},
{
closed = 1;
nodes = (
"287 481 OFFCURVE",
"355 723 OFFCURVE",
"472 865 OFFCURVE",
"540 865 QCURVE SMOOTH",
"571 865 OFFCURVE",
"654 837 OFFCURVE",
"674 817 QCURVE",
"577 267 LINE",
"535 208 OFFCURVE",
"428 128 OFFCURVE",
"390 128 QCURVE SMOOTH",
"344 128 OFFCURVE",
"287 246 OFFCURVE",
"287 354 QCURVE SMOOTH"
);
}
);
width = 1024;
}
);
note = d;
unicode = 0064;
},
{
glyphname = e;
lastChange = "2019-12-20 15:51:09 +0000";
layers = (
{
layerId = "1E4AACC9-6A88-4B03-8BB8-E9E25DEE74AF";
paths = (
{
closed = 1;
nodes = (
"864 854 OFFCURVE",
"701 965 OFFCURVE",
"563 965 QCURVE SMOOTH",
"434 965 OFFCURVE",
"194 796 OFFCURVE",
"48 502 OFFCURVE",
"48 330 QCURVE SMOOTH",
"48 158 OFFCURVE",
"234 -20 OFFCURVE",
"411 -20 QCURVE SMOOTH",
"506 -20 OFFCURVE",
"712 61 OFFCURVE",
"800 135 QCURVE",
"756 198 LINE",
"701 161 OFFCURVE",
"575 104 OFFCURVE",
"501 104 QCURVE SMOOTH",
"320 104 OFFCURVE",
"320 340 QCURVE SMOOTH",
"320 388 OFFCURVE",
"325 408 QCURVE",
"483 420 OFFCURVE",
"732 518 OFFCURVE",
"864 670 OFFCURVE",
"864 760 QCURVE SMOOTH"
);
},
{
closed = 1;
nodes = (
"363 653 OFFCURVE",
"482 857 OFFCURVE",
"551 857 QCURVE SMOOTH",
"579 857 OFFCURVE",
"620 815 OFFCURVE",
"620 773 QCURVE SMOOTH",
"620 672 OFFCURVE",
"463 521 OFFCURVE",
"341 508 QCURVE"
);
}
);
width = 909;
}
);
note = e;
unicode = 0065;
},
{
glyphname = f;
lastChange = "2019-12-20 15:51:09 +0000";
layers = (
{
layerId = "1E4AACC9-6A88-4B03-8BB8-E9E25DEE74AF";
paths = (
{
closed = 1;
nodes = (
"0 -436 LINE",
"269 -436 LINE",
"491 836 LINE",
"697 836 LINE",
"715 940 LINE",
"509 940 LINE",
"538 1098 LINE SMOOTH",
"562 1225 OFFCURVE",
"628 1332 OFFCURVE",
"681 1332 QCURVE SMOOTH",
"716 1332 OFFCURVE",
"737 1311 QCURVE",
"749 1199 LINE",
"813 1199 LINE",
"852 1421 LINE",
"784 1442 OFFCURVE",
"693 1442 QCURVE SMOOTH",
"515 1442 OFFCURVE",
"301 1264 OFFCURVE",
"264 1066 QCURVE SMOOTH",
"241 944 LINE",
"72 905 LINE",
"60 836 LINE",
"222 836 LINE"
);
}
);
width = 682;
}
);
note = f;
unicode = 0066;
},
{
glyphname = g;
lastChange = "2019-12-20 15:51:09 +0000";
layers = (
{
layerId = "1E4AACC9-6A88-4B03-8BB8-E9E25DEE74AF";
paths = (
{
closed = 1;
nodes = (
"292 484 OFFCURVE",
"364 728 OFFCURVE",
"486 866 OFFCURVE",
"560 866 QCURVE SMOOTH",
"630 866 OFFCURVE",
"689 841 QCURVE",
"582 259 LINE",
"537 199 OFFCURVE",
"442 129 OFFCURVE",
"407 129 QCURVE SMOOTH",
"357 129 OFFCURVE",
"292 249 OFFCURVE",
"292 355 QCURVE SMOOTH"
);
},
{
closed = 1;
nodes = (
"29 157 OFFCURVE",
"171 -23 OFFCURVE",
"288 -23 QCURVE SMOOTH",
"360 -23 OFFCURVE",
"511 66 OFFCURVE",
"572 145 QCURVE",
"549 72 OFFCURVE",
"525 -75 QCURVE SMOOTH",
"507 -178 OFFCURVE",
"452 -277 OFFCURVE",
"362 -327 OFFCURVE",
"295 -327 QCURVE SMOOTH",
"226 -327 OFFCURVE",
"112 -280 OFFCURVE",
"76 -243 QCURVE",
"40 -112 LINE",
"-16 -112 LINE",
"-38 -365 LINE",
"16 -396 OFFCURVE",
"201 -436 OFFCURVE",
"294 -436 QCURVE SMOOTH",
"514 -436 OFFCURVE",
"760 -242 OFFCURVE",
"798 -35 QCURVE SMOOTH",
"970 923 LINE",
"718 965 OFFCURVE",
"555 965 QCURVE SMOOTH",
"404 965 OFFCURVE",
"165 796 OFFCURVE",
"29 490 OFFCURVE",
"29 311 QCURVE SMOOTH"
);
}
);
width = 1024;
}
);
note = g;
unicode = 0067;
},
{
glyphname = h;
lastChange = "2019-12-20 15:51:09 +0000";
layers = (
{
layerId = "1E4AACC9-6A88-4B03-8BB8-E9E25DEE74AF";
paths = (
{
closed = 1;
nodes = (
"443 798 LINE",
"475 958 LINE",
"559 1421 LINE",
"194 1421 LINE",
"183 1355 LINE",
"274 1331 LINE",
"40 0 LINE",
"306 0 LINE",
"412 594 LINE",
"450 682 OFFCURVE",
"608 822 OFFCURVE",
"671 822 QCURVE SMOOTH",
"762 822 OFFCURVE",
"762 725 QCURVE SMOOTH",
"762 685 OFFCURVE",
"740 569 QCURVE SMOOTH",
"638 0 LINE",
"1024 0 LINE",
"1037 66 LINE",
"921 90 LINE",
"1016 621 LINE SMOOTH",
"1033 714 OFFCURVE",
"1033 766 QCURVE SMOOTH",
"1033 858 OFFCURVE",
"915 965 OFFCURVE",
"818 965 QCURVE SMOOTH",
"590 965 OFFCURVE",
"436 769 QCURVE"
);
}
);
width = 1139;
}
);
note = h;
unicode = 0068;
},
{
glyphname = i;
lastChange = "2019-12-20 15:51:09 +0000";
layers = (
{
layerId = "1E4AACC9-6A88-4B03-8BB8-E9E25DEE74AF";
paths = (
{
closed = 1;
nodes = (
"487 940 LINE",
"122 940 LINE",
"111 874 LINE",
"202 850 LINE",
"52 0 LINE",
"445 0 LINE",
"456 66 LINE",
"337 90 LINE"
);
},
{
closed = 1;
nodes = (
"253 1203 OFFCURVE",
"343 1114 OFFCURVE",
"407 1114 QCURVE SMOOTH",
"472 1114 OFFCURVE",
"560 1205 OFFCURVE",
"560 1268 QCURVE SMOOTH",
"560 1332 OFFCURVE",
"471 1421 OFFCURVE",
"407 1421 QCURVE SMOOTH",
"344 1421 OFFCURVE",
"253 1333 OFFCURVE",
"253 1268 QCURVE SMOOTH"
);
}
);
width = 569;
}
);
note = i;
unicode = 0069;
},
{
glyphname = j;
lastChange = "2019-12-20 15:51:09 +0000";
layers = (
{
layerId = "1E4AACC9-6A88-4B03-8BB8-E9E25DEE74AF";
paths = (
{
closed = 1;
nodes = (
"77 -436 OFFCURVE",
"293 -235 OFFCURVE",
"328 -39 QCURVE SMOOTH",
"500 940 LINE",
"65 940 LINE",
"54 874 LINE",
"214 840 LINE",
"53 -71 LINE SMOOTH",
"32 -192 OFFCURVE",
"-45 -326 OFFCURVE",
"-97 -326 QCURVE SMOOTH",
"-122 -326 OFFCURVE",
"-142 -311 QCURVE",
"-166 -193 LINE",
"-229 -193 LINE",
"-268 -418 LINE",
"-189 -436 OFFCURVE",
"-100 -436 QCURVE SMOOTH"
);
},
{
closed = 1;
nodes = (
"268 1203 OFFCURVE",
"358 1114 OFFCURVE",
"422 1114 QCURVE SMOOTH",
"487 1114 OFFCURVE",
"575 1205 OFFCURVE",
"575 1268 QCURVE SMOOTH",
"575 1332 OFFCURVE",
"486 1421 OFFCURVE",
"422 1421 QCURVE SMOOTH",
"359 1421 OFFCURVE",
"268 1333 OFFCURVE",
"268 1268 QCURVE SMOOTH"
);
}
);
width = 569;
}
);
note = j;
unicode = 006A;
},
{
glyphname = k;
lastChange = "2019-12-20 15:51:09 +0000";
layers = (
{
layerId = "1E4AACC9-6A88-4B03-8BB8-E9E25DEE74AF";
paths = (
{
closed = 1;
nodes = (
"548 1421 LINE",
"183 1421 LINE",
"171 1355 LINE",
"263 1331 LINE",
"28 0 LINE",
"297 0 LINE",
"365 383 LINE",
"473 453 LINE",
"639 0 LINE",
"953 0 LINE",
"964 66 LINE",
"884 90 LINE",
"662 628 LINE",
"905 852 LINE",
"997 874 LINE",
"1008 940 LINE",
"664 940 LINE",
"653 874 LINE",
"739 851 LINE",
"388 507 LINE"
);
}
);
width = 1024;
}
);
note = k;
unicode = 006B;
},
{
glyphname = l;
lastChange = "2019-12-20 15:51:09 +0000";
layers = (
{
layerId = "1E4AACC9-6A88-4B03-8BB8-E9E25DEE74AF";
paths = (
{
closed = 1;
nodes = (
"566 1421 LINE",
"201 1421 LINE",
"190 1355 LINE",
"281 1331 LINE",
"45 0 LINE",
"438 0 LINE",
"449 66 LINE",
"330 90 LINE"
);
}
);
width = 569;
}
);
note = l;
unicode = 006C;
},
{
glyphname = m;
lastChange = "2019-12-20 15:51:09 +0000";
layers = (
{
layerId = "1E4AACC9-6A88-4B03-8BB8-E9E25DEE74AF";
paths = (
{
closed = 1;
nodes = (
"1220 685 OFFCURVE",
"1198 569 QCURVE SMOOTH",
"1096 0 LINE",
"1482 0 LINE",
"1495 66 LINE",
"1379 90 LINE",
"1474 622 LINE SMOOTH",
"1491 717 OFFCURVE",
"1491 754 QCURVE SMOOTH",
"1491 854 OFFCURVE",
"1387 965 OFFCURVE",
"1299 965 QCURVE SMOOTH",
"1102 965 OFFCURVE",
"961 767 QCURVE",
"960 860 OFFCURVE",
"859 965 OFFCURVE",
"770 965 QCURVE SMOOTH",
"670 965 OFFCURVE",
"508 870 OFFCURVE",
"436 772 QCURVE",
"439 940 LINE",
"111 940 LINE",
"98 874 LINE",
"187 849 LINE",
"39 0 LINE",
"305 0 LINE",
"411 594 LINE",
"447 689 OFFCURVE",
"569 822 OFFCURVE",
"617 822 QCURVE SMOOTH",
"691 822 OFFCURVE",
"691 725 QCURVE SMOOTH",
"691 685 OFFCURVE",
"669 569 QCURVE SMOOTH",
"567 0 LINE",
"834 0 LINE",
"933 563 LINE SMOOTH",
"943 618 OFFCURVE",
"1018 742 OFFCURVE",
"1113 822 OFFCURVE",
"1148 822 QCURVE SMOOTH",
"1220 822 OFFCURVE",
"1220 725 QCURVE SMOOTH"
);
}
);
width = 1593;
}
);
note = m;
unicode = 006D;
},
{
glyphname = n;
lastChange = "2019-12-20 15:51:09 +0000";
layers = (
{
layerId = "1E4AACC9-6A88-4B03-8BB8-E9E25DEE74AF";
paths = (
{
closed = 1;
nodes = (
"764 685 OFFCURVE",
"742 569 QCURVE SMOOTH",
"640 0 LINE",
"1026 0 LINE",
"1039 66 LINE",
"923 90 LINE",
"1010 580 LINE SMOOTH",
"1035 711 OFFCURVE",
"1035 763 QCURVE SMOOTH",
"1035 859 OFFCURVE",
"919 965 OFFCURVE",
"820 965 QCURVE SMOOTH",
"595 965 OFFCURVE",
"440 765 QCURVE",
"448 940 LINE",
"114 940 LINE",
"101 874 LINE",
"190 849 LINE",
"42 0 LINE",
"308 0 LINE",
"414 594 LINE",
"452 682 OFFCURVE",
"610 822 OFFCURVE",
"673 822 QCURVE SMOOTH",
"764 822 OFFCURVE",
"764 725 QCURVE SMOOTH"
);
}
);
width = 1139;
}
);
note = n;
unicode = 006E;
},
{
glyphname = o;
lastChange = "2019-12-20 15:51:09 +0000";
layers = (
{
layerId = "1E4AACC9-6A88-4B03-8BB8-E9E25DEE74AF";
paths = (
{
closed = 1;
nodes = (
"683 479 OFFCURVE",
"613 227 OFFCURVE",
"493 79 OFFCURVE",
"429 79 QCURVE SMOOTH",
"371 79 OFFCURVE",
"297 204 OFFCURVE",
"297 319 QCURVE SMOOTH",
"297 458 OFFCURVE",
"372 714 OFFCURVE",
"495 866 OFFCURVE",
"558 866 QCURVE SMOOTH",
"683 866 OFFCURVE",
"683 625 QCURVE SMOOTH"
);
},
{
closed = 1;
nodes = (
"563 -20 OFFCURVE",
"814 137 OFFCURVE",
"954 409 OFFCURVE",
"954 571 QCURVE SMOOTH",
"954 751 OFFCURVE",
"750 965 OFFCURVE",
"580 965 QCURVE SMOOTH",
"423 965 OFFCURVE",
"172 808 OFFCURVE",
"32 536 OFFCURVE",
"32 374 QCURVE SMOOTH",
"32 194 OFFCURVE",
"236 -20 OFFCURVE",
"406 -20 QCURVE SMOOTH"
);
}
);
width = 1024;
}
);
note = o;
unicode = 006F;
},
{
glyphname = p;
lastChange = "2019-12-20 15:51:09 +0000";
layers = (
{
layerId = "1E4AACC9-6A88-4B03-8BB8-E9E25DEE74AF";
paths = (
{
closed = 1;
nodes = (
"962 785 OFFCURVE",
"820 965 OFFCURVE",
"703 965 QCURVE SMOOTH",
"561 965 OFFCURVE",
"436 802 QCURVE",
"442 940 LINE",
"97 940 LINE",
"85 880 LINE",
"184 855 LINE",
"-30 -347 LINE",
"-134 -371 LINE",
"-146 -436 LINE",
"390 -436 LINE",
"402 -371 LINE",
"242 -347 LINE",
"280 -111 LINE",
"292 -16 LINE",
"294 13 LINE",
"363 -20 OFFCURVE",
"449 -20 QCURVE SMOOTH",
"596 -20 OFFCURVE",
"832 154 OFFCURVE",
"962 453 OFFCURVE",
"962 631 QCURVE SMOOTH"
);
},
{
closed = 1;
nodes = (
"699 459 OFFCURVE",
"631 220 OFFCURVE",
"510 79 OFFCURVE",
"438 79 QCURVE SMOOTH",
"413 79 OFFCURVE",
"346 103 OFFCURVE",
"322 127 QCURVE",
"420 680 LINE",
"520 813 OFFCURVE",
"588 813 QCURVE SMOOTH",
"638 813 OFFCURVE",
"699 692 OFFCURVE",
"699 587 QCURVE SMOOTH"
);
}
);
width = 1024;
}
);
note = p;
unicode = 0070;
},
{
glyphname = q;
lastChange = "2019-12-20 15:51:09 +0000";
layers = (
{
layerId = "1E4AACC9-6A88-4B03-8BB8-E9E25DEE74AF";
paths = (
{
closed = 1;
nodes = (
"289 562 OFFCURVE",
"442 866 OFFCURVE",
"554 866 QCURVE SMOOTH",
"632 866 OFFCURVE",
"691 841 QCURVE",
"586 268 LINE",
"542 208 OFFCURVE",
"437 129 OFFCURVE",
"403 129 QCURVE SMOOTH",
"354 129 OFFCURVE",
"289 249 OFFCURVE",
"289 355 QCURVE SMOOTH"
);
},
{
closed = 1;
nodes = (
"390 965 OFFCURVE",
"155 793 OFFCURVE",
"26 492 OFFCURVE",
"26 311 QCURVE SMOOTH",
"26 158 OFFCURVE",
"166 -23 OFFCURVE",
"284 -23 QCURVE SMOOTH",
"356 -23 OFFCURVE",
"517 69 OFFCURVE",
"574 145 QCURVE",
"551 68 OFFCURVE",
"532 -49 QCURVE SMOOTH",
"459 -436 LINE",
"824 -436 LINE",
"835 -371 LINE",
"743 -348 LINE",
"972 923 LINE",
"753 965 OFFCURVE",
"540 965 QCURVE SMOOTH"
);
}
);
width = 1024;
}
);
note = q;
unicode = 0071;
},
{
glyphname = r;
lastChange = "2019-12-20 15:51:09 +0000";
layers = (
{
layerId = "1E4AACC9-6A88-4B03-8BB8-E9E25DEE74AF";
paths = (
{
closed = 1;
nodes = (
"461 940 LINE",
"86 940 LINE",
"75 874 LINE",
"192 850 LINE",
"42 0 LINE",
"311 0 LINE",
"416 596 LINE",
"468 679 OFFCURVE",
"580 755 OFFCURVE",
"655 755 QCURVE",
"699 618 LINE",
"754 618 LINE",
"812 955 LINE",
"777 965 OFFCURVE",
"729 965 QCURVE SMOOTH",
"650 965 OFFCURVE",
"493 845 OFFCURVE",
"438 738 QCURVE"
);
}
);
width = 797;
}
);
note = r;
unicode = 0072;
},
{
glyphname = s;
lastChange = "2019-12-20 15:51:09 +0000";
layers = (
{
layerId = "1E4AACC9-6A88-4B03-8BB8-E9E25DEE74AF";
paths = (
{
closed = 1;
nodes = (
"693 361 OFFCURVE",
"648 455 OFFCURVE",
"565 532 OFFCURVE",
"470 585 QCURVE SMOOTH",
"370 641 OFFCURVE",
"311 709 OFFCURVE",
"311 748 QCURVE SMOOTH",
"311 803 OFFCURVE",
"382 871 OFFCURVE",
"458 871 QCURVE SMOOTH",
"509 871 OFFCURVE",
"591 828 OFFCURVE",
"612 802 QCURVE",
"625 692 LINE",
"691 692 LINE",
"734 933 LINE",
"590 965 OFFCURVE",
"472 965 QCURVE SMOOTH",
"95 965 OFFCURVE",
"95 680 QCURVE SMOOTH",
"95 596 OFFCURVE",
"187 461 OFFCURVE",
"298 399 QCURVE SMOOTH",
"364 361 LINE SMOOTH",
"420 329 OFFCURVE",
"473 264 OFFCURVE",
"473 225 QCURVE SMOOTH",
"473 160 OFFCURVE",
"375 73 OFFCURVE",
"293 73 QCURVE SMOOTH",
"180 73 OFFCURVE",
"116 163 QCURVE",
"101 295 LINE",
"35 295 LINE",
"-11 34 LINE",
"32 15 OFFCURVE",
"209 -20 OFFCURVE",
"286 -20 QCURVE SMOOTH",
"489 -20 OFFCURVE",
"693 145 OFFCURVE",
"693 297 QCURVE SMOOTH"
);
}
);
width = 797;
}
);
note = s;
unicode = 0073;
},
{
glyphname = t;
lastChange = "2019-12-20 15:51:09 +0000";
layers = (
{
layerId = "1E4AACC9-6A88-4B03-8BB8-E9E25DEE74AF";
paths = (
{
closed = 1;
nodes = (
"390 106 OFFCURVE",
"337 154 OFFCURVE",
"337 207 QCURVE SMOOTH",
"337 245 OFFCURVE",
"353 327 QCURVE SMOOTH",
"444 836 LINE",
"602 836 LINE",
"620 940 LINE",
"462 940 LINE",
"500 1153 LINE",
"354 1153 LINE",
"215 940 LINE",
"73 901 LINE",
"62 836 LINE",
"177 836 LINE",
"85 329 LINE SMOOTH",
"67 231 OFFCURVE",
"67 185 QCURVE SMOOTH",
"67 85 OFFCURVE",
"186 -20 OFFCURVE",
"296 -20 QCURVE SMOOTH",
"364 -20 OFFCURVE",
"515 27 OFFCURVE",
"564 62 QCURVE",
"538 132 LINE",
"462 106 OFFCURVE",
"428 106 QCURVE SMOOTH"
);
}
);
width = 569;
}
);
note = t;
unicode = 0074;
},
{
glyphname = u;
lastChange = "2019-12-20 15:51:09 +0000";
layers = (
{
layerId = "1E4AACC9-6A88-4B03-8BB8-E9E25DEE74AF";
paths = (
{
closed = 1;
nodes = (
"350 257 OFFCURVE",
"372 372 QCURVE SMOOTH",
"474 940 LINE",
"88 940 LINE",
"75 874 LINE",
"191 850 LINE",
"92 298 OFFCURVE",
"79 206 OFFCURVE",
"79 187 QCURVE SMOOTH",
"79 85 OFFCURVE",
"193 -24 OFFCURVE",
"294 -24 QCURVE SMOOTH",
"519 -24 OFFCURVE",
"674 176 QCURVE",
"666 0 LINE",
"1020 0 LINE",
"1033 66 LINE",
"924 91 LINE",
"1072 940 LINE",
"806 940 LINE",
"700 347 LINE",
"665 262 OFFCURVE",
"505 119 OFFCURVE",
"441 119 QCURVE SMOOTH",
"350 119 OFFCURVE",
"350 216 QCURVE SMOOTH"
);
}
);
width = 1139;
}
);
note = u;
unicode = 0075;
},
{
glyphname = v;
lastChange = "2019-12-20 15:51:09 +0000";
layers = (
{
layerId = "1E4AACC9-6A88-4B03-8BB8-E9E25DEE74AF";
paths = (
{
closed = 1;
nodes = (
"30 941 LINE",
"19 875 LINE",
"80 851 LINE",
"284 -20 LINE",
"407 -20 LINE",
"844 657 LINE SMOOTH",
"927 785 OFFCURVE",
"927 877 QCURVE SMOOTH",
"927 917 OFFCURVE",
"901 940 QCURVE",
"670 940 LINE",
"658 875 LINE",
"703 862 OFFCURVE",
"731 840 OFFCURVE",
"748 807 OFFCURVE",
"748 781 QCURVE SMOOTH",
"748 749 OFFCURVE",
"714 651 OFFCURVE",
"682 601 QCURVE SMOOTH",
"479 287 LINE",
"330 941 LINE"
);
}
);
width = 909;
}
);
note = v;
unicode = 0076;
},
{
glyphname = w;
lastChange = "2019-12-20 15:51:09 +0000";
layers = (
{
layerId = "1E4AACC9-6A88-4B03-8BB8-E9E25DEE74AF";
paths = (
{
closed = 1;
nodes = (
"1185 738 OFFCURVE",
"1149 617 OFFCURVE",
"1129 580 QCURVE SMOOTH",
"964 282 LINE",
"852 846 LINE",
"752 846 LINE",
"443 282 LINE",
"317 940 LINE",
"13 940 LINE",
"2 874 LINE",
"82 850 LINE",
"253 -20 LINE",
"386 -20 LINE",
"682 518 LINE",
"785 -20 LINE",
"904 -20 LINE",
"1306 657 LINE SMOOTH",
"1373 770 OFFCURVE",
"1373 859 QCURVE SMOOTH",
"1373 916 OFFCURVE",
"1342 940 QCURVE",
"1097 940 LINE",
"1085 875 LINE",
"1121 865 LINE SMOOTH",
"1185 845 OFFCURVE",
"1185 775 QCURVE SMOOTH"
);
}
);
width = 1366;
}
);
note = w;
unicode = 0077;
},
{
glyphname = x;
lastChange = "2019-12-20 15:51:09 +0000";
layers = (
{
layerId = "1E4AACC9-6A88-4B03-8BB8-E9E25DEE74AF";
paths = (
{
closed = 1;
nodes = (
"629 0 LINE",
"931 0 LINE",
"942 65 LINE",
"856 86 LINE",
"628 533 LINE",
"836 707 LINE SMOOTH",
"974 822 OFFCURVE",
"974 897 QCURVE SMOOTH",
"974 924 OFFCURVE",
"953 940 QCURVE",
"740 940 LINE",
"728 875 LINE",
"783 865 OFFCURVE",
"783 836 QCURVE SMOOTH",
"783 805 OFFCURVE",
"734 740 OFFCURVE",
"685 700 QCURVE SMOOTH",
"583 615 LINE",
"418 940 LINE",
"119 940 LINE",
"108 875 LINE",
"194 850 LINE",
"396 460 LINE",
"112 221 LINE SMOOTH",
"40 161 OFFCURVE",
"-25 78 OFFCURVE",
"-25 43 QCURVE SMOOTH",
"-25 13 OFFCURVE",
"-9 0 QCURVE",
"212 0 LINE",
"224 65 LINE",
"182 74 OFFCURVE",
"182 104 QCURVE SMOOTH",
"182 129 OFFCURVE",
"199 162 OFFCURVE",
"238 205 OFFCURVE",
"274 236 QCURVE SMOOTH",
"439 374 LINE"
);
}
);
width = 1024;
}
);
note = x;
unicode = 0078;
},
{
glyphname = y;
lastChange = "2019-12-20 15:51:09 +0000";
layers = (
{
layerId = "1E4AACC9-6A88-4B03-8BB8-E9E25DEE74AF";
paths = (
{
closed = 1;
nodes = (
"915 917 OFFCURVE",
"889 940 QCURVE",
"658 940 LINE",
"646 875 LINE",
"691 862 OFFCURVE",
"719 840 OFFCURVE",
"736 807 OFFCURVE",
"736 781 QCURVE SMOOTH",
"736 750 OFFCURVE",
"699 645 OFFCURVE",
"672 601 QCURVE SMOOTH",
"491 301 LINE",
"339 940 LINE",
"36 940 LINE",
"25 874 LINE",
"86 850 LINE",
"300 -5 LINE",
"189 -192 OFFCURVE",
"47 -330 OFFCURVE",
"-13 -330 QCURVE SMOOTH",
"-58 -330 OFFCURVE",
"-83 -307 QCURVE",
"-103 -181 LINE",
"-163 -181 LINE",
"-205 -423 LINE",
"-156 -435 OFFCURVE",
"-95 -442 OFFCURVE",
"-44 -442 QCURVE SMOOTH",
"32 -442 OFFCURVE",
"168 -365 OFFCURVE",
"299 -216 OFFCURVE",
"395 -59 QCURVE SMOOTH",
"834 657 LINE SMOOTH",
"915 787 OFFCURVE",
"915 877 QCURVE SMOOTH"
);
}
);
width = 909;
}
);
note = y;
unicode = 0079;
},
{
glyphname = z;
lastChange = "2019-12-20 15:51:09 +0000";
layers = (
{
layerId = "1E4AACC9-6A88-4B03-8BB8-E9E25DEE74AF";
paths = (
{
closed = 1;
nodes = (
"639 0 LINE",
"713 315 LINE",
"641 315 LINE",
"559 137 LINE",
"527 117 OFFCURVE",
"403 90 OFFCURVE",
"347 90 QCURVE SMOOTH",
"264 90 LINE",
"780 886 LINE",
"789 940 LINE",
"129 940 LINE",
"80 660 LINE",
"152 660 LINE",
"212 815 LINE",
"237 831 OFFCURVE",
"342 850 OFFCURVE",
"396 850 QCURVE SMOOTH",
"466 850 LINE",
"-50 50 LINE",
"-58 0 LINE"
);
}
);
width = 797;
}
);
note = z;
unicode = 007A;
},
{
glyphname = braceleft;
lastChange = "2019-12-20 15:51:09 +0000";
layers = (
{
layerId = "1E4AACC9-6A88-4B03-8BB8-E9E25DEE74AF";
paths = (
{
closed = 1;
nodes = (
"537 -274 LINE",
"553 -187 LINE",
"491 -187 LINE SMOOTH",
"434 -187 OFFCURVE",
"381 -114 OFFCURVE",
"381 -53 QCURVE SMOOTH",
"381 -25 OFFCURVE",
"387 8 QCURVE SMOOTH",
"440 312 LINE",
"445 365 LINE",
"445 445 OFFCURVE",
"358 548 OFFCURVE",
"283 565 QCURVE",
"283 568 LINE",
"378 587 OFFCURVE",
"513 723 OFFCURVE",
"530 819 QCURVE SMOOTH",
"594 1179 LINE SMOOTH",
"609 1265 OFFCURVE",
"690 1334 OFFCURVE",
"759 1334 QCURVE SMOOTH",
"821 1334 LINE",
"836 1421 LINE",
"701 1421 LINE SMOOTH",
"546 1421 OFFCURVE",
"377 1289 OFFCURVE",
"352 1148 QCURVE SMOOTH",
"297 834 LINE SMOOTH",
"277 720 OFFCURVE",
"146 621 OFFCURVE",
"43 618 QCURVE",
"28 533 LINE",
"116 530 OFFCURVE",
"211 458 OFFCURVE",
"211 376 QCURVE SMOOTH",
"211 348 OFFCURVE",
"205 315 QCURVE SMOOTH",
"157 40 LINE SMOOTH",
"150 2 OFFCURVE",
"150 -38 QCURVE SMOOTH",
"150 -151 OFFCURVE",
"280 -274 OFFCURVE",
"402 -274 QCURVE SMOOTH"
);
}
);
width = 713;
}
);
note = braceleft;
unicode = 007B;
},
{
glyphname = bar;
lastChange = "2019-12-20 15:51:09 +0000";
layers = (
{
layerId = "1E4AACC9-6A88-4B03-8BB8-E9E25DEE74AF";
paths = (
{
closed = 1;
nodes = (
"282 -442 LINE",
"282 1421 LINE",
"139 1421 LINE",
"139 -442 LINE"
);
}
);
width = 451;
}
);
note = bar;
unicode = 007C;
},
{
glyphname = braceright;
lastChange = "2019-12-20 15:51:09 +0000";
layers = (
{
layerId = "1E4AACC9-6A88-4B03-8BB8-E9E25DEE74AF";
paths = (
{
closed = 1;
nodes = (
"15 -274 LINE SMOOTH",
"170 -274 OFFCURVE",
"340 -136 OFFCURVE",
"364 0 QCURVE SMOOTH",
"420 315 LINE SMOOTH",
"439 423 OFFCURVE",
"562 529 OFFCURVE",
"673 533 QCURVE",
"688 618 LINE",
"506 622 OFFCURVE",
"506 773 QCURVE SMOOTH",
"506 801 OFFCURVE",
"512 834 QCURVE SMOOTH",
"559 1108 LINE SMOOTH",
"567 1152 OFFCURVE",
"567 1190 QCURVE SMOOTH",
"567 1296 OFFCURVE",
"444 1421 OFFCURVE",
"314 1421 QCURVE SMOOTH",
"179 1421 LINE",
"164 1334 LINE",
"226 1334 LINE SMOOTH",
"282 1334 OFFCURVE",
"335 1262 OFFCURVE",
"335 1201 QCURVE SMOOTH",
"335 1172 OFFCURVE",
"329 1139 QCURVE SMOOTH",
"277 839 LINE",
"272 788 LINE",
"272 708 OFFCURVE",
"362 604 OFFCURVE",
"434 588 QCURVE",
"434 585 LINE",
"336 564 OFFCURVE",
"204 430 OFFCURVE",
"187 332 QCURVE SMOOTH",
"122 -32 LINE SMOOTH",
"107 -118 OFFCURVE",
"27 -187 OFFCURVE",
"-42 -187 QCURVE SMOOTH",
"-104 -187 LINE",
"-120 -274 LINE"
);
}
);
width = 713;
}
);
note = braceright;
unicode = 007D;
},
{
glyphname = asciitilde;
lastChange = "2019-12-20 15:51:09 +0000";
layers = (
{
layerId = "1E4AACC9-6A88-4B03-8BB8-E9E25DEE74AF";
paths = (
{
closed = 1;
nodes = (
"919 481 OFFCURVE",
"1034 564 OFFCURVE",
"1102 715 OFFCURVE",
"1122 866 QCURVE",
"978 866 LINE",
"963 739 OFFCURVE",
"897 624 OFFCURVE",
"831 624 QCURVE SMOOTH",
"773 624 OFFCURVE",
"677 709 QCURVE SMOOTH",
"564 806 OFFCURVE",
"434 866 OFFCURVE",
"376 866 QCURVE SMOOTH",
"284 866 OFFCURVE",
"167 782 OFFCURVE",
"101 630 OFFCURVE",
"86 481 QCURVE",
"227 481 LINE",
"240 612 OFFCURVE",
"305 723 OFFCURVE",
"376 723 QCURVE SMOOTH",
"409 723 OFFCURVE",
"492 674 OFFCURVE",
"578 602 QCURVE SMOOTH",
"652 540 OFFCURVE",
"774 481 OFFCURVE",
"831 481 QCURVE SMOOTH"
);
}
);
width = 1167;
}
);
note = asciitilde;
unicode = 007E;
},
{
glyphname = dagger;
lastChange = "2019-12-20 15:51:09 +0000";
layers = (
{
layerId = "1E4AACC9-6A88-4B03-8BB8-E9E25DEE74AF";
paths = (
{
closed = 1;
nodes = (
"624 920 LINE",
"1018 854 LINE",
"1060 1090 LINE",
"642 1026 LINE",
"778 1421 LINE",
"540 1421 LINE",
"536 1026 LINE",
"142 1090 LINE",
"100 854 LINE",
"518 920 LINE",
"410 760 LINE",
"333 -240 LINE",
"399 -240 LINE",
"676 760 LINE"
);
}
);
width = 1024;
}
);
note = dagger;
unicode = 2020;
},
{
glyphname = degree;
lastChange = "2019-12-20 15:51:09 +0000";
layers = (
{
layerId = "1E4AACC9-6A88-4B03-8BB8-E9E25DEE74AF";
paths = (
{
closed = 1;
nodes = (
"184 921 OFFCURVE",
"364 741 OFFCURVE",
"494 741 QCURVE SMOOTH",
"576 741 OFFCURVE",
"720 822 OFFCURVE",
"805 967 OFFCURVE",
"805 1051 QCURVE SMOOTH",
"805 1135 OFFCURVE",
"721 1279 OFFCURVE",
"577 1362 OFFCURVE",
"494 1362 QCURVE SMOOTH",
"411 1362 OFFCURVE",
"266 1278 OFFCURVE",
"184 1134 OFFCURVE",
"184 1051 QCURVE SMOOTH"
);
},
{
closed = 1;
nodes = (
"575 1250 OFFCURVE",
"685 1135 OFFCURVE",
"685 1049 QCURVE SMOOTH",
"685 966 OFFCURVE",
"574 850 OFFCURVE",
"493 850 QCURVE SMOOTH",
"414 850 OFFCURVE",
"303 966 OFFCURVE",
"303 1049 QCURVE SMOOTH",
"303 1135 OFFCURVE",
"413 1250 OFFCURVE",
"493 1250 QCURVE SMOOTH"
);
}
);
width = 819;
}
);
note = degree;
unicode = 00B0;
},
{
glyphname = cent;
lastChange = "2019-12-20 15:51:09 +0000";
layers = (
{
layerId = "1E4AACC9-6A88-4B03-8BB8-E9E25DEE74AF";
paths = (
{
closed = 1;
nodes = (
"839 411 LINE",
"712 324 OFFCURVE",
"611 311 QCURVE",
"743 1065 LINE",
"817 1053 OFFCURVE",
"857 1008 QCURVE",
"871 837 LINE",
"943 837 LINE",
"992 1125 LINE",
"905 1154 OFFCURVE",
"761 1167 QCURVE",
"792 1341 LINE",
"700 1341 LINE",
"670 1169 LINE",
"523 1165 OFFCURVE",
"268 1001 OFFCURVE",
"123 716 OFFCURVE",
"123 535 QCURVE SMOOTH",
"123 374 OFFCURVE",
"322 185 OFFCURVE",
"496 185 QCURVE",
"464 0 LINE",
"556 0 LINE",
"590 195 LINE",
"743 227 OFFCURVE",
"883 348 QCURVE"
);
},
{
closed = 1;
nodes = (
"391 669 OFFCURVE",
"459 894 OFFCURVE",
"580 1044 OFFCURVE",
"651 1065 QCURVE",
"518 312 LINE",
"464 328 OFFCURVE",
"391 443 OFFCURVE",
"391 545 QCURVE SMOOTH"
);
}
);
width = 1024;
}
);
note = cent;
unicode = 00A2;
},
{
glyphname = sterling;
lastChange = "2019-12-20 15:51:09 +0000";
layers = (
{
layerId = "1E4AACC9-6A88-4B03-8BB8-E9E25DEE74AF";
paths = (
{
closed = 1;
nodes = (
"295 203 LINE",
"366 269 OFFCURVE",
"447 454 OFFCURVE",
"447 551 QCURVE SMOOTH",
"447 587 LINE",
"446 620 LINE",
"689 620 LINE",
"707 721 LINE",
"445 721 LINE",
"442 822 LINE SMOOTH",
"442 1024 OFFCURVE",
"579 1255 OFFCURVE",
"710 1255 QCURVE SMOOTH",
"799 1255 OFFCURVE",
"876 1202 QCURVE",
"885 1008 LINE",
"972 1008 LINE",
"1026 1313 LINE",
"909 1341 OFFCURVE",
"784 1356 OFFCURVE",
"723 1356 QCURVE SMOOTH",
"461 1356 OFFCURVE",
"189 1123 OFFCURVE",
"189 902 QCURVE SMOOTH",
"189 820 OFFCURVE",
"215 721 QCURVE",
"127 721 LINE",
"109 620 LINE",
"270 620 LINE",
"289 546 OFFCURVE",
"289 489 QCURVE SMOOTH",
"289 407 OFFCURVE",
"199 262 OFFCURVE",
"110 195 QCURVE SMOOTH",
"16 123 LINE",
"-5 0 LINE",
"868 0 LINE",
"905 203 LINE"
);
}
);
width = 1024;
}
);
note = sterling;
unicode = 00A3;
},
{
glyphname = section;
lastChange = "2019-12-20 15:51:09 +0000";
layers = (
{
layerId = "1E4AACC9-6A88-4B03-8BB8-E9E25DEE74AF";
paths = (
{
closed = 1;
nodes = (
"768 135 OFFCURVE",
"694 266 OFFCURVE",
"611 329 QCURVE",
"757 368 OFFCURVE",
"914 540 OFFCURVE",
"914 663 QCURVE SMOOTH",
"914 723 OFFCURVE",
"868 818 OFFCURVE",
"784 897 OFFCURVE",
"694 947 QCURVE SMOOTH",
"613 992 LINE SMOOTH",
"543 1030 OFFCURVE",
"473 1112 OFFCURVE",
"473 1159 QCURVE SMOOTH",
"473 1222 OFFCURVE",
"557 1296 OFFCURVE",
"636 1296 QCURVE SMOOTH",
"682 1296 OFFCURVE",
"781 1259 OFFCURVE",
"805 1230 QCURVE",
"818 1120 LINE",
"884 1120 LINE",
"926 1361 LINE",
"760 1390 OFFCURVE",
"653 1390 QCURVE SMOOTH",
"465 1390 OFFCURVE",
"261 1237 OFFCURVE",
"261 1096 QCURVE SMOOTH",
"261 1020 OFFCURVE",
"340 896 OFFCURVE",
"411 854 QCURVE",
"274 819 OFFCURVE",
"123 653 OFFCURVE",
"123 538 QCURVE SMOOTH",
"123 449 OFFCURVE",
"229 303 OFFCURVE",
"337 236 QCURVE SMOOTH",
"461 158 OFFCURVE",
"551 58 OFFCURVE",
"551 0 QCURVE SMOOTH",
"551 -73 OFFCURVE",
"444 -162 OFFCURVE",
"356 -162 QCURVE SMOOTH",
"302 -162 OFFCURVE",
"198 -116 OFFCURVE",
"163 -75 QCURVE",
"149 57 LINE",
"83 57 LINE",
"37 -204 LINE",
"79 -222 OFFCURVE",
"258 -255 OFFCURVE",
"334 -255 QCURVE SMOOTH",
"552 -255 OFFCURVE",
"768 -92 OFFCURVE",
"768 57 QCURVE SMOOTH"
);
},
{
closed = 1;
nodes = (
"413 465 OFFCURVE",
"337 557 OFFCURVE",
"337 608 QCURVE SMOOTH",
"337 671 OFFCURVE",
"444 769 OFFCURVE",
"518 781 QCURVE",
"623 732 OFFCURVE",
"696 650 OFFCURVE",
"696 599 QCURVE SMOOTH",
"696 533 OFFCURVE",
"588 423 OFFCURVE",
"514 407 QCURVE"
);
}
);
width = 1024;
}
);
note = section;
unicode = 00A7;
},
{
glyphname = bullet;
lastChange = "2019-12-20 15:51:09 +0000";
layers = (
{
layerId = "1E4AACC9-6A88-4B03-8BB8-E9E25DEE74AF";
paths = (
{
closed = 1;
nodes = (
"487 401 OFFCURVE",
"650 562 OFFCURVE",
"650 678 QCURVE SMOOTH",
"650 794 OFFCURVE",
"487 955 OFFCURVE",
"373 955 QCURVE SMOOTH",
"259 955 OFFCURVE",
"96 794 OFFCURVE",
"96 678 QCURVE SMOOTH",
"96 562 OFFCURVE",
"259 401 OFFCURVE",
"373 401 QCURVE SMOOTH"
);
}
);
width = 717;
}
);
note = bullet;
unicode = 2022;
},
{
glyphname = paragraph;
lastChange = "2019-12-20 15:51:09 +0000";
layers = (
{
layerId = "1E4AACC9-6A88-4B03-8BB8-E9E25DEE74AF";
paths = (
{
closed = 1;
nodes = (
"957 1268 LINE",
"957 1341 LINE",
"469 1341 LINE SMOOTH",
"261 1341 OFFCURVE",
"35 1138 OFFCURVE",
"35 952 QCURVE SMOOTH",
"35 767 OFFCURVE",
"265 552 OFFCURVE",
"459 545 QCURVE",
"459 -258 LINE",
"599 -258 LINE",
"599 1245 LINE",
"734 1245 LINE",
"734 -258 LINE",
"874 -258 LINE",
"874 1245 LINE"
);
}
);
width = 1024;
}
);
note = paragraph;
unicode = 00B6;
},
{
glyphname = germandbls;
lastChange = "2019-12-20 15:51:09 +0000";
layers = (
{
layerId = "1E4AACC9-6A88-4B03-8BB8-E9E25DEE74AF";
paths = (
{
closed = 1;
nodes = (
"753 890 OFFCURVE",
"873 985 OFFCURVE",
"990 985 QCURVE",
"1001 1064 OFFCURVE",
"1001 1117 QCURVE SMOOTH",
"1001 1278 OFFCURVE",
"839 1442 OFFCURVE",
"664 1442 QCURVE SMOOTH",
"457 1442 OFFCURVE",
"219 1208 OFFCURVE",
"174 952 QCURVE SMOOTH",
"22 90 LINE",
"-64 66 LINE",
"-75 0 LINE",
"276 0 LINE",
"443 952 LINE SMOOTH",
"481 1171 OFFCURVE",
"568 1341 OFFCURVE",
"640 1341 QCURVE SMOOTH",
"694 1341 OFFCURVE",
"743 1259 OFFCURVE",
"743 1176 QCURVE SMOOTH",
"743 1124 OFFCURVE",
"731 1033 QCURVE",
"631 1004 OFFCURVE",
"510 832 OFFCURVE",
"510 721 QCURVE SMOOTH",
"510 607 OFFCURVE",
"581 522 QCURVE SMOOTH",
"647 445 OFFCURVE",
"692 371 OFFCURVE",
"717 296 OFFCURVE",
"717 252 QCURVE SMOOTH",
"717 168 OFFCURVE",
"640 73 OFFCURVE",
"575 73 QCURVE SMOOTH",
"520 73 OFFCURVE",
"478 110 QCURVE",
"461 244 LINE",
"395 244 LINE",
"360 21 LINE",
"386 7 OFFCURVE",
"498 -20 OFFCURVE",
"578 -20 QCURVE SMOOTH",
"761 -20 OFFCURVE",
"965 172 OFFCURVE",
"965 336 QCURVE SMOOTH",
"965 401 OFFCURVE",
"918 514 OFFCURVE",
"848 599 QCURVE SMOOTH",
"799 658 OFFCURVE",
"753 755 OFFCURVE",
"753 802 QCURVE SMOOTH"
);
}
);
width = 1024;
}
);
note = germandbls;
unicode = 00DF;
},
{
glyphname = registered;
lastChange = "2019-12-20 15:51:09 +0000";
layers = (
{
layerId = "1E4AACC9-6A88-4B03-8BB8-E9E25DEE74AF";
paths = (
{
closed = 1;
nodes = (
"1469 859 OFFCURVE",
"1284 1178 OFFCURVE",
"964 1362 OFFCURVE",
"777 1362 QCURVE SMOOTH",
"591 1362 OFFCURVE",
"274 1180 OFFCURVE",
"87 859 OFFCURVE",
"87 670 QCURVE SMOOTH",
"87 484 OFFCURVE",
"271 164 OFFCURVE",
"591 -20 OFFCURVE",
"777 -20 QCURVE SMOOTH",
"967 -20 OFFCURVE",
"1288 168 OFFCURVE",
"1469 485 OFFCURVE",
"1469 670 QCURVE SMOOTH"
);
},
{
closed = 1;
nodes = (
"1191 276 LINE",
"1191 334 LINE",
"1121 350 LINE",
"914 639 LINE",
"1002 667 OFFCURVE",
"1093 783 OFFCURVE",
"1093 860 QCURVE SMOOTH",
"1093 966 OFFCURVE",
"933 1081 OFFCURVE",
"777 1081 QCURVE SMOOTH",
"427 1081 LINE",
"427 1026 LINE",
"511 1010 LINE",
"511 350 LINE",
"435 334 LINE",
"435 276 LINE",
"781 276 LINE",
"781 334 LINE",
"687 350 LINE",
"687 619 LINE",
"736 619 LINE",
"966 276 LINE"
);
},
{
closed = 1;
nodes = (
"910 766 OFFCURVE",
"814 694 OFFCURVE",
"710 694 QCURVE SMOOTH",
"687 694 LINE",
"687 1006 LINE",
"706 1006 LINE SMOOTH",
"826 1006 OFFCURVE",
"910 940 OFFCURVE",
"910 858 QCURVE SMOOTH"
);
},
{
closed = 1;
nodes = (
"942 1278 OFFCURVE",
"1219 1113 OFFCURVE",
"1379 832 OFFCURVE",
"1379 670 QCURVE SMOOTH",
"1379 508 OFFCURVE",
"1216 224 OFFCURVE",
"937 63 OFFCURVE",
"777 63 QCURVE SMOOTH",
"615 63 OFFCURVE",
"338 224 OFFCURVE",
"177 507 OFFCURVE",
"177 670 QCURVE SMOOTH",
"177 834 OFFCURVE",
"338 1116 OFFCURVE",
"616 1278 OFFCURVE",
"777 1278 QCURVE SMOOTH"
);
}
);
width = 1530;
}
);
note = registered;
unicode = 00AE;
},
{
glyphname = copyright;
lastChange = "2019-12-20 15:51:09 +0000";
layers = (
{
layerId = "1E4AACC9-6A88-4B03-8BB8-E9E25DEE74AF";
paths = (
{
closed = 1;
nodes = (
"87 484 OFFCURVE",
"271 164 OFFCURVE",
"591 -20 OFFCURVE",
"777 -20 QCURVE SMOOTH",
"967 -20 OFFCURVE",
"1288 168 OFFCURVE",
"1469 485 OFFCURVE",
"1469 670 QCURVE SMOOTH",
"1469 859 OFFCURVE",
"1284 1178 OFFCURVE",
"964 1362 OFFCURVE",
"777 1362 QCURVE SMOOTH",
"591 1362 OFFCURVE",
"274 1180 OFFCURVE",
"87 859 OFFCURVE",
"87 670 QCURVE SMOOTH"
);
},
{
closed = 1;
nodes = (
"968 254 OFFCURVE",
"1095 293 QCURVE",
"1099 512 LINE",
"1029 512 LINE",
"1007 393 LINE",
"934 334 OFFCURVE",
"812 334 QCURVE SMOOTH",
"683 334 OFFCURVE",
"576 501 OFFCURVE",
"576 666 QCURVE SMOOTH",
"576 856 OFFCURVE",
"688 1008 OFFCURVE",
"818 1008 QCURVE SMOOTH",
"875 1008 OFFCURVE",
"957 982 OFFCURVE",
"998 957 QCURVE",
"1017 852 LINE",
"1086 852 LINE",
"1082 1059 LINE",
"932 1089 OFFCURVE",
"814 1089 QCURVE SMOOTH",
"607 1089 OFFCURVE",
"386 872 OFFCURVE",
"386 664 QCURVE SMOOTH",
"386 476 OFFCURVE",
"613 254 OFFCURVE",
"812 254 QCURVE SMOOTH"
);
},
{
closed = 1;
nodes = (
"942 1278 OFFCURVE",
"1219 1113 OFFCURVE",
"1379 832 OFFCURVE",
"1379 670 QCURVE SMOOTH",
"1379 508 OFFCURVE",
"1216 224 OFFCURVE",
"937 63 OFFCURVE",
"777 63 QCURVE SMOOTH",
"615 63 OFFCURVE",
"338 224 OFFCURVE",
"177 507 OFFCURVE",
"177 670 QCURVE SMOOTH",
"177 834 OFFCURVE",
"338 1116 OFFCURVE",
"616 1278 OFFCURVE",
"777 1278 QCURVE SMOOTH"
);
}
);
width = 1530;
}
);
note = copyright;
unicode = 00A9;
},
{
glyphname = trademark;
lastChange = "2019-12-20 15:51:09 +0000";
layers = (
{
layerId = "1E4AACC9-6A88-4B03-8BB8-E9E25DEE74AF";
paths = (
{
closed = 1;
nodes = (
"738 538 LINE",
"738 598 LINE",
"610 614 LINE",
"610 1274 LINE",
"640 1274 LINE SMOOTH",
"730 1274 OFFCURVE",
"801 1261 QCURVE",
"817 1112 LINE",
"888 1112 LINE",
"888 1343 LINE",
"146 1343 LINE",
"146 1112 LINE",
"217 1112 LINE",
"233 1261 LINE",
"285 1271 OFFCURVE",
"347 1275 OFFCURVE",
"390 1275 QCURVE SMOOTH",
"421 1275 LINE",
"421 614 LINE",
"293 598 LINE",
"293 538 LINE"
);
},
{
closed = 1;
nodes = (
"1742 1200 LINE",
"1742 614 LINE",
"1634 598 LINE",
"1634 538 LINE",
"2034 538 LINE",
"2034 598 LINE",
"1931 614 LINE",
"1931 1267 LINE",
"2034 1283 LINE",
"2034 1343 LINE",
"1712 1343 LINE",
"1494 848 LINE",
"1280 1343 LINE",
"945 1343 LINE",
"945 1283 LINE",
"1048 1267 LINE",
"1048 614 LINE",
"945 598 LINE",
"945 538 LINE",
"1241 538 LINE",
"1241 598 LINE",
"1138 614 LINE",
"1138 1183 LINE",
"1416 538 LINE",
"1449 538 LINE"
);
}
);
width = 2048;
}
);
note = trademark;
unicode = 2122;
},
{
glyphname = acute;
lastChange = "2019-12-20 15:51:09 +0000";
layers = (
{
layerId = "1E4AACC9-6A88-4B03-8BB8-E9E25DEE74AF";
paths = (
{
closed = 1;
nodes = (
"339 1118 LINE",
"736 1386 LINE",
"740 1423 LINE",
"455 1423 LINE",
"259 1151 LINE",
"253 1118 LINE"
);
}
);
width = 682;
}
);
note = acute;
unicode = 00B4;
},
{
glyphname = dieresis;
lastChange = "2019-12-20 15:51:09 +0000";
layers = (
{
layerId = "1E4AACC9-6A88-4B03-8BB8-E9E25DEE74AF";
paths = (
{
closed = 1;
nodes = (
"689 1130 OFFCURVE",
"759 1201 OFFCURVE",
"759 1251 QCURVE SMOOTH",
"759 1302 OFFCURVE",
"689 1370 OFFCURVE",
"640 1370 QCURVE SMOOTH",
"592 1370 OFFCURVE",
"519 1301 OFFCURVE",
"519 1251 QCURVE SMOOTH",
"519 1201 OFFCURVE",
"592 1130 OFFCURVE",
"640 1130 QCURVE SMOOTH"
);
},
{
closed = 1;
nodes = (
"333 1130 OFFCURVE",
"403 1201 OFFCURVE",
"403 1251 QCURVE SMOOTH",
"403 1299 OFFCURVE",
"333 1370 OFFCURVE",
"284 1370 QCURVE SMOOTH",
"235 1370 OFFCURVE",
"163 1299 OFFCURVE",
"163 1251 QCURVE SMOOTH",
"163 1204 OFFCURVE",
"236 1130 OFFCURVE",
"284 1130 QCURVE SMOOTH"
);
}
);
width = 682;
}
);
note = dieresis;
unicode = 00A8;
},
{
glyphname = notequal;
lastChange = "2019-12-20 15:51:09 +0000";
layers = (
{
layerId = "1E4AACC9-6A88-4B03-8BB8-E9E25DEE74AF";
paths = (
{
closed = 1;
nodes = (
"876 1220 LINE",
"691 956 LINE",
"106 956 LINE",
"106 813 LINE",
"591 813 LINE",
"405 547 LINE",
"106 547 LINE",
"106 403 LINE",
"305 403 LINE",
"121 140 LINE",
"274 140 LINE",
"458 403 LINE",
"1058 403 LINE",
"1058 547 LINE",
"558 547 LINE",
"744 813 LINE",
"1058 813 LINE",
"1058 956 LINE",
"844 956 LINE",
"1029 1220 LINE"
);
}
);
width = 1124;
}
);
note = notequal;
unicode = 2260;
},
{
glyphname = AE;
lastChange = "2019-12-20 15:51:09 +0000";
layers = (
{
layerId = "1E4AACC9-6A88-4B03-8BB8-E9E25DEE74AF";
paths = (
{
closed = 1;
nodes = (
"-24 100 LINE",
"-149 73 LINE",
"-161 0 LINE",
"271 0 LINE",
"283 73 LINE",
"134 100 LINE",
"388 447 LINE",
"800 447 LINE",
"739 100 LINE",
"562 73 LINE",
"550 0 LINE",
"1669 0 LINE",
"1753 374 LINE",
"1662 374 LINE",
"1562 126 LINE",
"1477 110 OFFCURVE",
"1281 110 QCURVE SMOOTH",
"1036 110 LINE",
"1127 627 LINE",
"1410 627 LINE",
"1414 475 LINE",
"1503 475 LINE",
"1576 887 LINE",
"1487 887 LINE",
"1430 739 LINE",
"1147 739 LINE",
"1234 1231 LINE",
"1434 1231 LINE SMOOTH",
"1587 1231 OFFCURVE",
"1695 1217 QCURVE",
"1689 1000 LINE",
"1780 1000 LINE",
"1840 1341 LINE",
"699 1341 LINE",
"687 1270 LINE",
"828 1252 LINE"
);
},
{
closed = 1;
nodes = (
"469 557 LINE",
"932 1198 LINE",
"820 557 LINE"
);
}
);
width = 1933;
}
);
note = AE;
unicode = 00C6;
},
{
glyphname = Oslash;
lastChange = "2019-12-20 15:51:09 +0000";
layers = (
{
layerId = "1E4AACC9-6A88-4B03-8BB8-E9E25DEE74AF";
paths = (
{
closed = 1;
nodes = (
"871 -20 OFFCURVE",
"1220 179 OFFCURVE",
"1421 572 OFFCURVE",
"1421 812 QCURVE SMOOTH",
"1421 1009 OFFCURVE",
"1314 1149 QCURVE",
"1555 1391 LINE",
"1410 1391 LINE",
"1243 1224 LINE",
"1090 1356 OFFCURVE",
"856 1356 QCURVE SMOOTH",
"625 1356 OFFCURVE",
"270 1149 OFFCURVE",
"74 766 OFFCURVE",
"74 524 QCURVE SMOOTH",
"74 316 OFFCURVE",
"190 174 QCURVE",
"-39 -55 LINE",
"110 -55 LINE",
"265 100 LINE",
"417 -20 OFFCURVE",
"639 -20 QCURVE SMOOTH"
);
},
{
closed = 1;
nodes = (
"375 672 OFFCURVE",
"505 1051 OFFCURVE",
"710 1251 OFFCURVE",
"832 1251 QCURVE SMOOTH",
"1011 1251 OFFCURVE",
"1083 1065 QCURVE",
"383 367 LINE",
"375 410 OFFCURVE",
"375 485 QCURVE SMOOTH"
);
},
{
closed = 1;
nodes = (
"1120 653 OFFCURVE",
"988 281 OFFCURVE",
"782 83 OFFCURVE",
"657 83 QCURVE SMOOTH",
"487 83 OFFCURVE",
"416 251 QCURVE",
"1113 948 LINE",
"1120 890 OFFCURVE",
"1120 843 QCURVE SMOOTH"
);
}
);
width = 1479;
}
);
note = Oslash;
unicode = 00D8;
},
{
glyphname = infinity;
lastChange = "2019-12-20 15:51:09 +0000";
layers = (
{
layerId = "1E4AACC9-6A88-4B03-8BB8-E9E25DEE74AF";
paths = (
{
closed = 1;
nodes = (
"1402 762 OFFCURVE",
"1231 977 OFFCURVE",
"1089 977 QCURVE SMOOTH",
"984 977 OFFCURVE",
"827 850 OFFCURVE",
"763 725 QCURVE",
"698 855 OFFCURVE",
"520 983 OFFCURVE",
"415 983 QCURVE SMOOTH",
"275 983 OFFCURVE",
"97 765 OFFCURVE",
"97 596 QCURVE SMOOTH",
"97 421 OFFCURVE",
"273 209 OFFCURVE",
"415 209 QCURVE SMOOTH",
"508 209 OFFCURVE",
"672 340 OFFCURVE",
"736 467 QCURVE",
"877 203 OFFCURVE",
"1087 203 QCURVE SMOOTH",
"1223 203 OFFCURVE",
"1402 425 OFFCURVE",
"1402 590 QCURVE SMOOTH"
);
},
{
closed = 1;
nodes = (
"1205 872 OFFCURVE",
"1327 712 OFFCURVE",
"1327 592 QCURVE SMOOTH",
"1327 467 OFFCURVE",
"1206 307 OFFCURVE",
"1110 307 QCURVE SMOOTH",
"1024 307 OFFCURVE",
"891 449 OFFCURVE",
"831 590 QCURVE",
"895 732 OFFCURVE",
"1028 872 OFFCURVE",
"1108 872 QCURVE SMOOTH"
);
},
{
closed = 1;
nodes = (
"604 454 OFFCURVE",
"470 313 OFFCURVE",
"389 313 QCURVE SMOOTH",
"290 313 OFFCURVE",
"173 468 OFFCURVE",
"173 594 QCURVE SMOOTH",
"173 718 OFFCURVE",
"292 879 OFFCURVE",
"385 879 QCURVE SMOOTH",
"475 879 OFFCURVE",
"608 736 OFFCURVE",
"665 596 QCURVE"
);
}
);
width = 1460;
}
);
note = infinity;
unicode = 221E;
},
{
glyphname = plusminus;
lastChange = "2019-12-20 15:51:09 +0000";
layers = (
{
layerId = "1E4AACC9-6A88-4B03-8BB8-E9E25DEE74AF";
paths = (
{
closed = 1;
nodes = (
"1038 608 LINE",
"1038 752 LINE",
"632 752 LINE",
"632 1157 LINE",
"489 1157 LINE",
"489 752 LINE",
"85 752 LINE",
"85 608 LINE",
"489 608 LINE",
"489 203 LINE",
"632 203 LINE",
"632 608 LINE"
);
},
{
closed = 1;
nodes = (
"85 141 LINE",
"85 0 LINE",
"1038 0 LINE",
"1038 141 LINE"
);
}
);
width = 1124;
}
);
note = plusminus;
unicode = 00B1;
},
{
glyphname = lessequal;
lastChange = "2019-12-20 15:51:09 +0000";
layers = (
{
layerId = "1E4AACC9-6A88-4B03-8BB8-E9E25DEE74AF";
paths = (
{
closed = 1;
nodes = (
"1058 216 LINE",
"1058 359 LINE",
"291 730 LINE",
"1058 1100 LINE",
"1058 1243 LINE",
"106 775 LINE",
"106 685 LINE"
);
},
{
closed = 1;
nodes = (
"106 144 LINE",
"106 0 LINE",
"1058 0 LINE",
"1058 144 LINE"
);
}
);
width = 1124;
}
);
note = lessequal;
unicode = 2264;
},
{
glyphname = greaterequal;
lastChange = "2019-12-20 15:51:09 +0000";
layers = (
{
layerId = "1E4AACC9-6A88-4B03-8BB8-E9E25DEE74AF";
paths = (
{
closed = 1;
nodes = (
"106 144 LINE",
"106 0 LINE",
"1058 0 LINE",
"1058 144 LINE"
);
},
{
closed = 1;
nodes = (
"1060 685 LINE",
"1060 775 LINE",
"108 1243 LINE",
"108 1100 LINE",
"876 730 LINE",
"108 359 LINE",
"108 216 LINE"
);
}
);
width = 1124;
}
);
note = greaterequal;
unicode = 2265;
},
{
glyphname = yen;
lastChange = "2019-12-20 15:51:09 +0000";
layers = (
{
layerId = "1E4AACC9-6A88-4B03-8BB8-E9E25DEE74AF";
paths = (
{
closed = 1;
nodes = (
"211 1251 LINE",
"365 639 LINE",
"132 639 LINE",
"114 537 LINE",
"371 537 LINE",
"347 399 LINE",
"90 399 LINE",
"72 297 LINE",
"329 297 LINE",
"292 90 LINE",
"146 66 LINE",
"135 0 LINE",
"689 0 LINE",
"700 66 LINE",
"561 90 LINE",
"598 297 LINE",
"852 297 LINE",
"870 399 LINE",
"616 399 LINE",
"640 537 LINE",
"894 537 LINE",
"912 639 LINE",
"679 639 LINE",
"1052 1255 LINE",
"1141 1275 LINE",
"1153 1341 LINE",
"822 1341 LINE",
"810 1275 LINE",
"916 1251 LINE",
"597 702 LINE",
"488 1249 LINE",
"604 1275 LINE",
"616 1341 LINE",
"143 1341 LINE",
"131 1275 LINE"
);
}
);
width = 1024;
}
);
note = yen;
unicode = 00A5;
},
{
glyphname = uni00B5;
lastChange = "2019-12-20 15:51:09 +0000";
layers = (
{
layerId = "1E4AACC9-6A88-4B03-8BB8-E9E25DEE74AF";
paths = (
{
closed = 1;
nodes = (
"221 850 LINE",
"83 69 LINE SMOOTH",
"61 -55 OFFCURVE",
"-15 -320 OFFCURVE",
"-49 -391 QCURVE",
"-57 -436 LINE",
"217 -436 LINE",
"289 -221 OFFCURVE",
"333 29 QCURVE",
"365 -20 OFFCURVE",
"444 -20 QCURVE SMOOTH",
"502 -20 OFFCURVE",
"648 93 OFFCURVE",
"704 175 QCURVE",
"701 0 LINE",
"1030 0 LINE",
"1043 66 LINE",
"954 91 LINE",
"1102 940 LINE",
"836 940 LINE",
"730 346 LINE",
"695 261 OFFCURVE",
"535 118 OFFCURVE",
"471 118 QCURVE SMOOTH",
"380 118 OFFCURVE",
"380 215 QCURVE SMOOTH",
"380 256 OFFCURVE",
"402 371 QCURVE SMOOTH",
"504 940 LINE",
"118 940 LINE",
"105 874 LINE"
);
}
);
width = 1180;
}
);
note = uni00B5;
unicode = 00B5;
},
{
glyphname = partialdiff;
lastChange = "2019-12-20 15:51:09 +0000";
layers = (
{
layerId = "1E4AACC9-6A88-4B03-8BB8-E9E25DEE74AF";
paths = (
{
closed = 1;
nodes = (
"928 1200 OFFCURVE",
"732 1477 OFFCURVE",
"549 1477 QCURVE SMOOTH",
"471 1477 OFFCURVE",
"392 1442 QCURVE",
"287 1292 LINE",
"323 1259 LINE",
"444 1343 OFFCURVE",
"551 1343 QCURVE SMOOTH",
"693 1343 OFFCURVE",
"842 1101 OFFCURVE",
"842 874 QCURVE SMOOTH",
"838 758 LINE",
"834 758 LINE",
"800 841 OFFCURVE",
"657 940 OFFCURVE",
"564 940 QCURVE SMOOTH",
"428 940 OFFCURVE",
"208 789 OFFCURVE",
"68 487 OFFCURVE",
"68 332 QCURVE SMOOTH",
"68 160 OFFCURVE",
"236 -27 OFFCURVE",
"388 -27 QCURVE SMOOTH",
"512 -27 OFFCURVE",
"713 115 OFFCURVE",
"856 390 OFFCURVE",
"928 768 OFFCURVE",
"928 938 QCURVE SMOOTH"
);
},
{
closed = 1;
nodes = (
"791 466 OFFCURVE",
"679 184 OFFCURVE",
"532 43 OFFCURVE",
"451 43 QCURVE SMOOTH",
"362 43 OFFCURVE",
"258 181 OFFCURVE",
"258 305 QCURVE SMOOTH",
"258 444 OFFCURVE",
"355 718 OFFCURVE",
"505 856 OFFCURVE",
"596 856 QCURVE SMOOTH",
"674 856 OFFCURVE",
"795 735 OFFCURVE",
"813 643 QCURVE"
);
}
);
width = 1012;
}
);
note = partialdiff;
unicode = 2202;
},
{
glyphname = summation;
lastChange = "2019-12-20 15:51:09 +0000";
layers = (
{
layerId = "1E4AACC9-6A88-4B03-8BB8-E9E25DEE74AF";
paths = (
{
closed = 1;
nodes = (
"458 1232 LINE",
"802 1232 LINE SMOOTH",
"949 1232 OFFCURVE",
"1114 1217 QCURVE",
"1176 970 LINE",
"1262 970 LINE",
"1262 1341 LINE",
"137 1341 LINE",
"137 1232 LINE",
"665 480 LINE",
"92 -329 LINE",
"92 -436 LINE",
"1318 -436 LINE",
"1337 128 LINE",
"1251 128 LINE",
"1174 -160 LINE",
"1141 -167 OFFCURVE",
"842 -176 OFFCURVE",
"739 -176 QCURVE SMOOTH",
"357 -176 LINE",
"868 544 LINE",
"868 647 LINE"
);
}
);
width = 1460;
}
);
note = summation;
unicode = 2211;
},
{
glyphname = product;
lastChange = "2019-12-20 15:51:09 +0000";
layers = (
{
layerId = "1E4AACC9-6A88-4B03-8BB8-E9E25DEE74AF";
paths = (
{
closed = 1;
nodes = (
"747 -436 LINE",
"747 -362 LINE",
"575 -336 LINE",
"575 1231 LINE",
"1112 1231 LINE",
"1112 -336 LINE",
"940 -362 LINE",
"940 -436 LINE",
"1601 -436 LINE",
"1601 -362 LINE",
"1428 -336 LINE",
"1428 1241 LINE",
"1601 1268 LINE",
"1601 1341 LINE",
"88 1341 LINE",
"88 1268 LINE",
"260 1241 LINE",
"260 -336 LINE",
"88 -362 LINE",
"88 -436 LINE"
);
}
);
width = 1686;
}
);
note = product;
unicode = 220F;
},
{
glyphname = integral;
lastChange = "2019-12-20 15:51:09 +0000";
layers = (
{
layerId = "1E4AACC9-6A88-4B03-8BB8-E9E25DEE74AF";
paths = (
{
closed = 1;
nodes = (
"212 -166 LINE SMOOTH",
"212 -289 OFFCURVE",
"142 -446 OFFCURVE",
"89 -446 QCURVE SMOOTH",
"31 -446 OFFCURVE",
"-38 -377 QCURVE",
"-58 -377 LINE",
"-62 -400 OFFCURVE",
"-83 -495 OFFCURVE",
"-87 -508 QCURVE",
"-87 -516 LINE",
"-75 -526 OFFCURVE",
"7 -549 OFFCURVE",
"36 -549 QCURVE SMOOTH",
"106 -549 OFFCURVE",
"261 -435 OFFCURVE",
"362 -247 OFFCURVE",
"368 -137 QCURVE SMOOTH",
"377 146 OFFCURVE",
"384 468 OFFCURVE",
"384 541 QCURVE SMOOTH",
"380 1079 LINE SMOOTH",
"380 1203 OFFCURVE",
"450 1360 OFFCURVE",
"503 1360 QCURVE SMOOTH",
"560 1360 OFFCURVE",
"630 1290 QCURVE",
"651 1290 LINE",
"667 1355 LINE",
"685 1421 LINE",
"685 1430 LINE",
"670 1442 OFFCURVE",
"581 1462 OFFCURVE",
"556 1462 QCURVE SMOOTH",
"486 1462 OFFCURVE",
"326 1342 OFFCURVE",
"227 1153 OFFCURVE",
"220 1047 QCURVE SMOOTH",
"206 774 OFFCURVE",
"206 506 QCURVE SMOOTH"
);
}
);
width = 561;
}
);
note = integral;
unicode = 222B;
},
{
glyphname = ordfeminine;
lastChange = "2019-12-20 15:51:09 +0000";
layers = (
{
layerId = "1E4AACC9-6A88-4B03-8BB8-E9E25DEE74AF";
paths = (
{
closed = 1;
nodes = (
"675 1357 LINE",
"625 1357 LINE",
"593 1339 LINE",
"587 1336 LINE",
"520 1362 OFFCURVE",
"457 1362 QCURVE SMOOTH",
"348 1362 OFFCURVE",
"180 1263 OFFCURVE",
"88 1088 OFFCURVE",
"88 983 QCURVE SMOOTH",
"88 885 OFFCURVE",
"181 767 OFFCURVE",
"254 767 QCURVE SMOOTH",
"347 767 OFFCURVE",
"427 826 QCURVE",
"425 782 LINE",
"628 782 LINE",
"638 831 LINE",
"584 846 LINE"
);
},
{
closed = 1;
nodes = (
"427 890 LINE",
"368 853 OFFCURVE",
"320 853 QCURVE SMOOTH",
"248 853 OFFCURVE",
"248 992 QCURVE SMOOTH",
"248 1120 OFFCURVE",
"346 1293 OFFCURVE",
"423 1293 QCURVE SMOOTH",
"460 1293 OFFCURVE",
"495 1278 QCURVE"
);
}
);
width = 545;
}
);
note = ordfeminine;
unicode = 00AA;
},
{
glyphname = ordmasculine;
lastChange = "2019-12-20 15:51:09 +0000";
layers = (
{
layerId = "1E4AACC9-6A88-4B03-8BB8-E9E25DEE74AF";
paths = (
{
closed = 1;
nodes = (
"284 840 OFFCURVE",
"284 959 QCURVE SMOOTH",
"284 1091 OFFCURVE",
"371 1290 OFFCURVE",
"439 1290 QCURVE SMOOTH",
"524 1290 OFFCURVE",
"524 1167 QCURVE SMOOTH",
"524 1088 OFFCURVE",
"482 932 OFFCURVE",
"411 840 OFFCURVE",
"364 840 QCURVE SMOOTH"
);
},
{
closed = 1;
nodes = (
"496 770 OFFCURVE",
"683 974 OFFCURVE",
"683 1125 QCURVE SMOOTH",
"683 1235 OFFCURVE",
"558 1362 OFFCURVE",
"457 1362 QCURVE SMOOTH",
"362 1362 OFFCURVE",
"210 1269 OFFCURVE",
"125 1104 OFFCURVE",
"125 1007 QCURVE SMOOTH",
"125 897 OFFCURVE",
"250 770 OFFCURVE",
"351 770 QCURVE SMOOTH"
);
}
);
width = 614;
}
);
note = ordmasculine;
unicode = 00BA;
},
{
glyphname = uni2126;
lastChange = "2019-12-20 15:51:09 +0000";
layers = (
{
layerId = "1E4AACC9-6A88-4B03-8BB8-E9E25DEE74AF";
paths = (
{
closed = 1;
nodes = (
"978 1255 OFFCURVE",
"1182 1038 OFFCURVE",
"1182 837 QCURVE SMOOTH",
"1182 661 OFFCURVE",
"1033 454 OFFCURVE",
"890 432 QCURVE",
"867 0 LINE",
"1492 0 LINE",
"1515 384 LINE",
"1429 384 LINE",
"1368 256 LINE",
"1288 240 OFFCURVE",
"1110 240 QCURVE SMOOTH",
"1001 240 LINE",
"1006 345 LINE",
"1246 379 OFFCURVE",
"1514 635 OFFCURVE",
"1514 837 QCURVE SMOOTH",
"1514 1086 OFFCURVE",
"1135 1356 OFFCURVE",
"787 1356 QCURVE SMOOTH",
"438 1356 OFFCURVE",
"60 1085 OFFCURVE",
"60 837 QCURVE SMOOTH",
"60 635 OFFCURVE",
"328 379 OFFCURVE",
"568 345 QCURVE",
"573 240 LINE",
"464 240 LINE SMOOTH",
"286 240 OFFCURVE",
"206 256 QCURVE",
"145 384 LINE",
"59 384 LINE",
"82 0 LINE",
"707 0 LINE",
"684 432 LINE",
"542 454 OFFCURVE",
"392 660 OFFCURVE",
"392 837 QCURVE SMOOTH",
"392 1039 OFFCURVE",
"597 1255 OFFCURVE",
"787 1255 QCURVE SMOOTH"
);
}
);
width = 1573;
}
);
note = uni2126;
unicode = 2126;
},
{
glyphname = ae;
lastChange = "2019-12-20 15:51:09 +0000";
layers = (
{
layerId = "1E4AACC9-6A88-4B03-8BB8-E9E25DEE74AF";
paths = (
{
closed = 1;
nodes = (
"922 647 OFFCURVE",
"1052 857 OFFCURVE",
"1123 857 QCURVE SMOOTH",
"1151 857 OFFCURVE",
"1200 815 OFFCURVE",
"1200 773 QCURVE SMOOTH",
"1200 712 OFFCURVE",
"1123 596 OFFCURVE",
"984 517 OFFCURVE",
"901 508 QCURVE"
);
},
{
closed = 1;
nodes = (
"821 927 OFFCURVE",
"666 964 OFFCURVE",
"610 964 QCURVE SMOOTH",
"450 964 OFFCURVE",
"179 790 OFFCURVE",
"26 491 OFFCURVE",
"26 319 QCURVE SMOOTH",
"26 162 OFFCURVE",
"182 -21 OFFCURVE",
"310 -21 QCURVE SMOOTH",
"404 -21 OFFCURVE",
"566 66 OFFCURVE",
"644 158 QCURVE",
"716 -20 OFFCURVE",
"971 -20 QCURVE SMOOTH",
"1067 -20 OFFCURVE",
"1273 62 OFFCURVE",
"1360 135 QCURVE",
"1316 198 LINE",
"1227 139 OFFCURVE",
"1124 104 OFFCURVE",
"1073 104 QCURVE SMOOTH",
"981 104 OFFCURVE",
"882 227 OFFCURVE",
"882 340 QCURVE SMOOTH",
"882 388 OFFCURVE",
"887 408 QCURVE",
"1049 421 OFFCURVE",
"1300 519 OFFCURVE",
"1434 671 OFFCURVE",
"1434 760 QCURVE SMOOTH",
"1434 853 OFFCURVE",
"1275 965 OFFCURVE",
"1135 965 QCURVE SMOOTH",
"1073 965 OFFCURVE",
"938 929 OFFCURVE",
"887 895 QCURVE"
);
},
{
closed = 1;
nodes = (
"589 213 OFFCURVE",
"466 127 OFFCURVE",
"422 127 QCURVE SMOOTH",
"359 127 OFFCURVE",
"289 244 OFFCURVE",
"289 351 QCURVE SMOOTH",
"289 477 OFFCURVE",
"372 720 OFFCURVE",
"507 863 OFFCURVE",
"582 863 QCURVE SMOOTH",
"619 863 OFFCURVE",
"725 826 OFFCURVE",
"777 788 QCURVE",
"704 697 OFFCURVE",
"620 455 OFFCURVE",
"620 330 QCURVE SMOOTH",
"623 264 LINE"
);
}
);
width = 1479;
}
);
note = ae;
unicode = 00E6;
},
{
glyphname = oslash;
lastChange = "2019-12-20 15:51:09 +0000";
layers = (
{
layerId = "1E4AACC9-6A88-4B03-8BB8-E9E25DEE74AF";
paths = (
{
closed = 1;
nodes = (
"563 -20 OFFCURVE",
"814 137 OFFCURVE",
"954 409 OFFCURVE",
"954 571 QCURVE SMOOTH",
"954 730 OFFCURVE",
"870 837 QCURVE",
"1029 1022 LINE",
"905 1022 LINE",
"801 901 LINE",
"710 965 OFFCURVE",
"580 965 QCURVE SMOOTH",
"423 965 OFFCURVE",
"172 808 OFFCURVE",
"32 536 OFFCURVE",
"32 374 QCURVE SMOOTH",
"32 212 OFFCURVE",
"117 106 QCURVE",
"-47 -84 LINE",
"80 -84 LINE",
"187 41 LINE",
"278 -20 OFFCURVE",
"406 -20 QCURVE SMOOTH"
);
},
{
closed = 1;
nodes = (
"297 319 LINE SMOOTH",
"297 458 OFFCURVE",
"372 714 OFFCURVE",
"495 866 OFFCURVE",
"558 866 QCURVE SMOOTH",
"641 866 OFFCURVE",
"670 749 QCURVE",
"297 315 LINE"
);
},
{
closed = 1;
nodes = (
"349 79 OFFCURVE",
"314 189 QCURVE",
"683 619 LINE",
"682 472 OFFCURVE",
"612 225 OFFCURVE",
"492 79 OFFCURVE",
"429 79 QCURVE SMOOTH"
);
}
);
width = 1024;
}
);
note = oslash;
unicode = 00F8;
},
{
glyphname = questiondown;
lastChange = "2019-12-20 15:51:09 +0000";
layers = (
{
layerId = "1E4AACC9-6A88-4B03-8BB8-E9E25DEE74AF";
paths = (
{
closed = 1;
nodes = (
"318 15 OFFCURVE",
"435 166 OFFCURVE",
"569 200 QCURVE SMOOTH",
"669 225 LINE",
"667 538 LINE",
"564 538 LINE",
"501 336 LINE",
"410 312 LINE SMOOTH",
"218 262 OFFCURVE",
"48 44 OFFCURVE",
"48 -127 QCURVE SMOOTH",
"48 -271 OFFCURVE",
"250 -428 OFFCURVE",
"456 -428 QCURVE SMOOTH",
"610 -428 OFFCURVE",
"768 -380 QCURVE",
"808 -85 LINE",
"719 -85 LINE",
"654 -279 LINE",
"628 -299 OFFCURVE",
"545 -326 OFFCURVE",
"507 -326 QCURVE SMOOTH",
"318 -326 OFFCURVE",
"318 -123 QCURVE SMOOTH"
);
},
{
closed = 1;
nodes = (
"578 957 OFFCURVE",
"482 860 OFFCURVE",
"482 791 QCURVE SMOOTH",
"482 721 OFFCURVE",
"579 625 OFFCURVE",
"648 625 QCURVE SMOOTH",
"718 625 OFFCURVE",
"813 721 OFFCURVE",
"813 791 QCURVE SMOOTH",
"813 861 OFFCURVE",
"718 957 OFFCURVE",
"648 957 QCURVE SMOOTH"
);
}
);
width = 1024;
}
);
note = questiondown;
unicode = 00BF;
},
{
glyphname = exclamdown;
lastChange = "2019-12-20 15:51:09 +0000";
layers = (
{
layerId = "1E4AACC9-6A88-4B03-8BB8-E9E25DEE74AF";
paths = (
{
closed = 1;
nodes = (
"76 -409 LINE",
"375 -409 LINE",
"435 512 LINE",
"340 512 LINE"
);
},
{
closed = 1;
nodes = (
"363 961 OFFCURVE",
"267 864 OFFCURVE",
"267 795 QCURVE SMOOTH",
"267 725 OFFCURVE",
"364 629 OFFCURVE",
"433 629 QCURVE SMOOTH",
"503 629 OFFCURVE",
"599 726 OFFCURVE",
"599 795 QCURVE SMOOTH",
"599 865 OFFCURVE",
"502 961 OFFCURVE",
"433 961 QCURVE SMOOTH"
);
}
);
width = 797;
}
);
note = exclamdown;
unicode = 00A1;
},
{
glyphname = logicalnot;
lastChange = "2019-12-20 15:51:09 +0000";
layers = (
{
layerId = "1E4AACC9-6A88-4B03-8BB8-E9E25DEE74AF";
paths = (
{
closed = 1;
nodes = (
"114 752 LINE",
"114 608 LINE",
"925 608 LINE",
"925 203 LINE",
"1067 203 LINE",
"1067 752 LINE"
);
}
);
width = 1241;
}
);
note = logicalnot;
unicode = 00AC;
},
{
glyphname = radical;
lastChange = "2019-12-20 15:51:09 +0000";
layers = (
{
layerId = "1E4AACC9-6A88-4B03-8BB8-E9E25DEE74AF";
paths = (
{
closed = 1;
nodes = (
"1142 1620 LINE",
"1052 1620 LINE",
"600 158 LINE",
"342 895 LINE",
"71 895 LINE",
"71 815 LINE",
"239 815 LINE",
"536 -14 LINE",
"643 -14 LINE"
);
}
);
width = 1124;
}
);
note = radical;
unicode = 221A;
},
{
glyphname = florin;
lastChange = "2019-12-20 15:51:09 +0000";
layers = (
{
layerId = "1E4AACC9-6A88-4B03-8BB8-E9E25DEE74AF";
paths = (
{
closed = 1;
nodes = (
"481 -285 LINE",
"652 692 LINE",
"849 692 LINE",
"868 796 LINE",
"671 796 LINE",
"711 1021 LINE SMOOTH",
"736 1157 OFFCURVE",
"784 1252 OFFCURVE",
"826 1252 QCURVE SMOOTH",
"847 1252 OFFCURVE",
"878 1240 OFFCURVE",
"889 1232 QCURVE",
"917 1119 LINE",
"981 1119 LINE",
"991 1343 LINE",
"950 1353 OFFCURVE",
"844 1362 OFFCURVE",
"785 1362 QCURVE SMOOTH",
"643 1362 OFFCURVE",
"454 1179 OFFCURVE",
"428 1022 QCURVE SMOOTH",
"389 795 LINE",
"215 761 LINE",
"200 692 LINE",
"370 692 LINE",
"199 -285 LINE"
);
}
);
width = 1024;
}
);
note = florin;
unicode = 0192;
},
{
glyphname = uni2206;
lastChange = "2019-12-20 15:51:09 +0000";
layers = (
{
layerId = "1E4AACC9-6A88-4B03-8BB8-E9E25DEE74AF";
paths = (
{
closed = 1;
nodes = (
"1237 97 LINE",
"766 1352 LINE",
"476 1352 LINE",
"16 97 LINE",
"16 0 LINE",
"1237 0 LINE"
);
},
{
closed = 1;
nodes = (
"521 1148 LINE",
"905 119 LINE",
"152 119 LINE"
);
}
);
width = 1253;
}
);
note = uni2206;
unicode = 2206;
},
{
glyphname = guillemotleft;
lastChange = "2019-12-20 15:51:09 +0000";
layers = (
{
layerId = "1E4AACC9-6A88-4B03-8BB8-E9E25DEE74AF";
paths = (
{
closed = 1;
nodes = (
"92 496 LINE",
"80 430 LINE",
"338 74 LINE",
"439 74 LINE",
"314 463 LINE",
"576 852 LINE",
"475 852 LINE"
);
},
{
closed = 1;
nodes = (
"502 496 LINE",
"490 430 LINE",
"748 74 LINE",
"848 74 LINE",
"724 463 LINE",
"985 852 LINE",
"885 852 LINE"
);
}
);
width = 1024;
}
);
note = guillemotleft;
unicode = 00AB;
},
{
glyphname = guillemotright;
lastChange = "2019-12-20 15:51:09 +0000";
layers = (
{
layerId = "1E4AACC9-6A88-4B03-8BB8-E9E25DEE74AF";
paths = (
{
closed = 1;
nodes = (
"890 430 LINE",
"902 496 LINE",
"645 852 LINE",
"544 852 LINE",
"668 463 LINE",
"407 74 LINE",
"508 74 LINE"
);
},
{
closed = 1;
nodes = (
"480 430 LINE",
"492 496 LINE",
"235 852 LINE",
"135 852 LINE",
"258 463 LINE",
"-2 74 LINE",
"98 74 LINE"
);
}
);
width = 1024;
}
);
note = guillemotright;
unicode = 00BB;
},
{
glyphname = ellipsis;
lastChange = "2019-12-20 15:51:09 +0000";
layers = (
{
layerId = "1E4AACC9-6A88-4B03-8BB8-E9E25DEE74AF";
paths = (
{
closed = 1;
nodes = (
"333 -29 OFFCURVE",
"429 68 OFFCURVE",
"429 137 QCURVE SMOOTH",
"429 207 OFFCURVE",
"332 303 OFFCURVE",
"263 303 QCURVE SMOOTH",
"193 303 OFFCURVE",
"97 206 OFFCURVE",
"97 137 QCURVE SMOOTH",
"97 67 OFFCURVE",
"194 -29 OFFCURVE",
"263 -29 QCURVE SMOOTH"
);
},
{
closed = 1;
nodes = (
"1023 -29 OFFCURVE",
"1119 68 OFFCURVE",
"1119 137 QCURVE SMOOTH",
"1119 207 OFFCURVE",
"1022 303 OFFCURVE",
"953 303 QCURVE SMOOTH",
"883 303 OFFCURVE",
"787 206 OFFCURVE",
"787 137 QCURVE SMOOTH",
"787 67 OFFCURVE",
"884 -29 OFFCURVE",
"953 -29 QCURVE SMOOTH"
);
},
{
closed = 1;
nodes = (
"1713 -29 OFFCURVE",
"1809 68 OFFCURVE",
"1809 137 QCURVE SMOOTH",
"1809 207 OFFCURVE",
"1712 303 OFFCURVE",
"1643 303 QCURVE SMOOTH",
"1573 303 OFFCURVE",
"1477 206 OFFCURVE",
"1477 137 QCURVE SMOOTH",
"1477 67 OFFCURVE",
"1574 -29 OFFCURVE",
"1643 -29 QCURVE SMOOTH"
);
}
);
width = 2048;
}
);
note = ellipsis;
unicode = 2026;
},
{
glyphname = OE;
lastChange = "2019-12-20 15:51:09 +0000";
layers = (
{
layerId = "1E4AACC9-6A88-4B03-8BB8-E9E25DEE74AF";
paths = (
{
closed = 1;
nodes = (
"680 -7 OFFCURVE",
"801 0 QCURVE",
"1676 0 LINE",
"1760 374 LINE",
"1669 374 LINE",
"1569 126 LINE",
"1484 110 OFFCURVE",
"1216 110 QCURVE SMOOTH",
"1113 110 LINE",
"1204 627 LINE",
"1417 627 LINE",
"1421 475 LINE",
"1510 475 LINE",
"1583 887 LINE",
"1494 887 LINE",
"1437 739 LINE",
"1224 739 LINE",
"1311 1231 LINE",
"1369 1231 LINE SMOOTH",
"1593 1231 OFFCURVE",
"1702 1217 QCURVE",
"1696 1000 LINE",
"1787 1000 LINE",
"1847 1341 LINE",
"1054 1341 LINE",
"944 1349 OFFCURVE",
"853 1349 QCURVE SMOOTH",
"617 1349 OFFCURVE",
"262 1140 OFFCURVE",
"71 762 OFFCURVE",
"71 524 QCURVE SMOOTH",
"71 284 OFFCURVE",
"382 -7 OFFCURVE",
"636 -7 QCURVE SMOOTH"
);
},
{
closed = 1;
nodes = (
"518 93 OFFCURVE",
"372 300 OFFCURVE",
"372 485 QCURVE SMOOTH",
"372 673 OFFCURVE",
"501 1048 OFFCURVE",
"711 1248 OFFCURVE",
"839 1248 QCURVE SMOOTH",
"874 1248 OFFCURVE",
"950 1238 OFFCURVE",
"1013 1219 QCURVE",
"819 117 LINE",
"751 93 OFFCURVE",
"654 93 QCURVE SMOOTH"
);
}
);
width = 1933;
}
);
note = OE;
unicode = 0152;
},
{
glyphname = oe;
lastChange = "2019-12-20 15:51:09 +0000";
layers = (
{
layerId = "1E4AACC9-6A88-4B03-8BB8-E9E25DEE74AF";
paths = (
{
closed = 1;
nodes = (
"1436 857 OFFCURVE",
"1282 965 OFFCURVE",
"1135 965 QCURVE SMOOTH",
"966 965 OFFCURVE",
"838 833 QCURVE",
"759 965 OFFCURVE",
"573 965 QCURVE SMOOTH",
"401 965 OFFCURVE",
"168 807 OFFCURVE",
"45 491 OFFCURVE",
"45 320 QCURVE SMOOTH",
"45 -20 OFFCURVE",
"391 -20 QCURVE SMOOTH",
"580 -20 OFFCURVE",
"707 107 QCURVE",
"790 -20 OFFCURVE",
"994 -20 QCURVE SMOOTH",
"1087 -20 OFFCURVE",
"1287 64 OFFCURVE",
"1372 135 QCURVE",
"1328 198 LINE",
"1273 161 OFFCURVE",
"1147 104 OFFCURVE",
"1073 104 QCURVE SMOOTH",
"892 104 OFFCURVE",
"892 340 QCURVE SMOOTH",
"892 388 OFFCURVE",
"897 408 QCURVE",
"1055 420 OFFCURVE",
"1304 518 OFFCURVE",
"1436 670 OFFCURVE",
"1436 760 QCURVE SMOOTH"
);
},
{
closed = 1;
nodes = (
"660 596 OFFCURVE",
"589 238 OFFCURVE",
"488 80 OFFCURVE",
"411 80 QCURVE SMOOTH",
"354 80 OFFCURVE",
"307 161 OFFCURVE",
"307 242 QCURVE SMOOTH",
"307 349 OFFCURVE",
"379 713 OFFCURVE",
"474 864 OFFCURVE",
"549 864 QCURVE SMOOTH",
"608 864 OFFCURVE",
"660 781 OFFCURVE",
"660 696 QCURVE SMOOTH"
);
},
{
closed = 1;
nodes = (
"935 653 OFFCURVE",
"1054 857 OFFCURVE",
"1123 857 QCURVE SMOOTH",
"1151 857 OFFCURVE",
"1192 815 OFFCURVE",
"1192 773 QCURVE SMOOTH",
"1192 672 OFFCURVE",
"1035 521 OFFCURVE",
"913 508 QCURVE"
);
}
);
width = 1479;
}
);
note = oe;
unicode = 0153;
},
{
glyphname = endash;
lastChange = "2019-12-20 15:51:09 +0000";
layers = (
{
layerId = "1E4AACC9-6A88-4B03-8BB8-E9E25DEE74AF";
paths = (
{
closed = 1;
nodes = (
"-33 549 LINE",
"-33 406 LINE",
"1019 406 LINE",
"1019 549 LINE"
);
}
);
width = 1024;
}
);
note = endash;
unicode = 2013;
},
{
glyphname = emdash;
lastChange = "2019-12-20 15:51:09 +0000";
layers = (
{
layerId = "1E4AACC9-6A88-4B03-8BB8-E9E25DEE74AF";
paths = (
{
closed = 1;
nodes = (
"-31 549 LINE",
"-31 406 LINE",
"2045 406 LINE",
"2045 549 LINE"
);
}
);
width = 2048;
}
);
note = emdash;
unicode = 2014;
},
{
glyphname = quotedblleft;
lastChange = "2019-12-20 15:51:09 +0000";
layers = (
{
layerId = "1E4AACC9-6A88-4B03-8BB8-E9E25DEE74AF";
paths = (
{
closed = 1;
nodes = (
"194 851 OFFCURVE",
"297 743 OFFCURVE",
"381 743 QCURVE SMOOTH",
"450 743 OFFCURVE",
"540 811 OFFCURVE",
"540 876 QCURVE SMOOTH",
"540 959 OFFCURVE",
"470 1003 QCURVE SMOOTH",
"428 1028 OFFCURVE",
"399 1061 OFFCURVE",
"399 1083 QCURVE SMOOTH",
"399 1117 OFFCURVE",
"443 1193 OFFCURVE",
"525 1254 OFFCURVE",
"581 1269 QCURVE",
"581 1361 LINE",
"392 1312 OFFCURVE",
"194 1095 OFFCURVE",
"194 938 QCURVE SMOOTH"
);
},
{
closed = 1;
nodes = (
"614 851 OFFCURVE",
"717 743 OFFCURVE",
"801 743 QCURVE SMOOTH",
"870 743 OFFCURVE",
"960 811 OFFCURVE",
"960 876 QCURVE SMOOTH",
"960 959 OFFCURVE",
"890 1003 QCURVE SMOOTH",
"848 1028 OFFCURVE",
"819 1061 OFFCURVE",
"819 1083 QCURVE SMOOTH",
"819 1117 OFFCURVE",
"863 1193 OFFCURVE",
"945 1254 OFFCURVE",
"1001 1269 QCURVE",
"1001 1361 LINE",
"812 1312 OFFCURVE",
"614 1095 OFFCURVE",
"614 938 QCURVE SMOOTH"
);
}
);
width = 1024;
}
);
note = quotedblleft;
unicode = 201C;
},
{
glyphname = quotedblright;
lastChange = "2019-12-20 15:51:09 +0000";
layers = (
{
layerId = "1E4AACC9-6A88-4B03-8BB8-E9E25DEE74AF";
paths = (
{
closed = 1;
nodes = (
"990 1253 OFFCURVE",
"887 1361 OFFCURVE",
"803 1361 QCURVE SMOOTH",
"734 1361 OFFCURVE",
"644 1293 OFFCURVE",
"644 1228 QCURVE SMOOTH",
"644 1145 OFFCURVE",
"715 1102 QCURVE SMOOTH",
"756 1076 OFFCURVE",
"785 1043 OFFCURVE",
"785 1021 QCURVE SMOOTH",
"785 987 OFFCURVE",
"741 911 OFFCURVE",
"659 850 OFFCURVE",
"603 835 QCURVE",
"603 743 LINE",
"792 792 OFFCURVE",
"990 1009 OFFCURVE",
"990 1166 QCURVE SMOOTH"
);
},
{
closed = 1;
nodes = (
"570 1253 OFFCURVE",
"467 1361 OFFCURVE",
"383 1361 QCURVE SMOOTH",
"314 1361 OFFCURVE",
"224 1293 OFFCURVE",
"224 1228 QCURVE SMOOTH",
"224 1145 OFFCURVE",
"295 1102 QCURVE SMOOTH",
"336 1076 OFFCURVE",
"365 1043 OFFCURVE",
"365 1021 QCURVE SMOOTH",
"365 987 OFFCURVE",
"321 911 OFFCURVE",
"239 850 OFFCURVE",
"183 835 QCURVE",
"183 743 LINE",
"372 792 OFFCURVE",
"570 1009 OFFCURVE",
"570 1166 QCURVE SMOOTH"
);
}
);
width = 1024;
}
);
note = quotedblright;
unicode = 201D;
},
{
glyphname = quoteleft;
lastChange = "2019-12-20 15:51:09 +0000";
layers = (
{
layerId = "1E4AACC9-6A88-4B03-8BB8-E9E25DEE74AF";
paths = (
{
closed = 1;
nodes = (
"232 851 OFFCURVE",
"335 743 OFFCURVE",
"419 743 QCURVE SMOOTH",
"488 743 OFFCURVE",
"578 811 OFFCURVE",
"578 876 QCURVE SMOOTH",
"578 959 OFFCURVE",
"508 1003 QCURVE SMOOTH",
"466 1028 OFFCURVE",
"437 1061 OFFCURVE",
"437 1083 QCURVE SMOOTH",
"437 1117 OFFCURVE",
"481 1193 OFFCURVE",
"563 1254 OFFCURVE",
"619 1269 QCURVE",
"619 1361 LINE",
"430 1312 OFFCURVE",
"232 1095 OFFCURVE",
"232 938 QCURVE SMOOTH"
);
}
);
width = 682;
}
);
note = quoteleft;
unicode = 2018;
},
{
glyphname = quoteright;
lastChange = "2019-12-20 15:51:09 +0000";
layers = (
{
layerId = "1E4AACC9-6A88-4B03-8BB8-E9E25DEE74AF";
paths = (
{
closed = 1;
nodes = (
"609 1253 OFFCURVE",
"506 1361 OFFCURVE",
"422 1361 QCURVE SMOOTH",
"353 1361 OFFCURVE",
"263 1293 OFFCURVE",
"263 1228 QCURVE SMOOTH",
"263 1145 OFFCURVE",
"334 1102 QCURVE SMOOTH",
"375 1076 OFFCURVE",
"404 1043 OFFCURVE",
"404 1021 QCURVE SMOOTH",
"404 987 OFFCURVE",
"360 911 OFFCURVE",
"278 850 OFFCURVE",
"222 835 QCURVE",
"222 743 LINE",
"411 792 OFFCURVE",
"609 1009 OFFCURVE",
"609 1166 QCURVE SMOOTH"
);
}
);
width = 682;
}
);
note = quoteright;
unicode = 2019;
},
{
glyphname = divide;
lastChange = "2019-12-20 15:51:09 +0000";
layers = (
{
layerId = "1E4AACC9-6A88-4B03-8BB8-E9E25DEE74AF";
paths = (
{
closed = 1;
nodes = (
"100 751 LINE",
"100 608 LINE",
"1052 608 LINE",
"1052 751 LINE"
);
},
{
closed = 1;
nodes = (
"631 183 OFFCURVE",
"709 261 OFFCURVE",
"709 317 QCURVE SMOOTH",
"709 373 OFFCURVE",
"631 451 OFFCURVE",
"575 451 QCURVE SMOOTH",
"519 451 OFFCURVE",
"441 373 OFFCURVE",
"441 317 QCURVE SMOOTH",
"441 261 OFFCURVE",
"519 183 OFFCURVE",
"575 183 QCURVE SMOOTH"
);
},
{
closed = 1;
nodes = (
"631 909 OFFCURVE",
"709 987 OFFCURVE",
"709 1043 QCURVE SMOOTH",
"709 1099 OFFCURVE",
"631 1177 OFFCURVE",
"575 1177 QCURVE SMOOTH",
"519 1177 OFFCURVE",
"441 1099 OFFCURVE",
"441 1043 QCURVE SMOOTH",
"441 987 OFFCURVE",
"519 909 OFFCURVE",
"575 909 QCURVE SMOOTH"
);
}
);
width = 1124;
}
);
note = divide;
unicode = 00F7;
},
{
glyphname = lozenge;
lastChange = "2019-12-20 15:51:09 +0000";
layers = (
{
layerId = "1E4AACC9-6A88-4B03-8BB8-E9E25DEE74AF";
paths = (
{
closed = 1;
nodes = (
"1026 721 LINE",
"567 1440 LINE",
"485 1440 LINE",
"28 719 LINE",
"485 0 LINE",
"567 0 LINE"
);
},
{
closed = 1;
nodes = (
"880 721 LINE",
"528 147 LINE",
"174 721 LINE",
"528 1286 LINE"
);
}
);
width = 1012;
}
);
note = lozenge;
unicode = 25CA;
},
{
glyphname = fraction;
lastChange = "2019-12-20 15:51:09 +0000";
layers = (
{
layerId = "1E4AACC9-6A88-4B03-8BB8-E9E25DEE74AF";
paths = (
{
closed = 1;
nodes = (
"720 1341 LINE",
"600 1341 LINE",
"-365 0 LINE",
"-242 0 LINE"
);
}
);
width = 342;
}
);
note = fraction;
unicode = "2044,2215";
},
{
glyphname = Euro;
lastChange = "2019-12-20 15:51:09 +0000";
layers = (
{
layerId = "1E4AACC9-6A88-4B03-8BB8-E9E25DEE74AF";
paths = (
{
closed = 1;
nodes = (
"-11 493 LINE",
"107 493 LINE",
"106 468 LINE",
"106 442 LINE SMOOTH",
"106 214 OFFCURVE",
"319 -20 OFFCURVE",
"524 -20 QCURVE SMOOTH",
"697 -20 OFFCURVE",
"869 30 QCURVE",
"925 328 LINE",
"836 328 LINE",
"779 163 LINE",
"694 83 OFFCURVE",
"567 83 QCURVE SMOOTH",
"477 83 OFFCURVE",
"369 239 OFFCURVE",
"369 400 QCURVE",
"373 493 LINE",
"657 493 LINE",
"675 594 LINE",
"388 594 LINE",
"390 622 OFFCURVE",
"407 717 OFFCURVE",
"414 738 QCURVE",
"701 738 LINE",
"718 839 LINE",
"434 839 LINE",
"482 1035 OFFCURVE",
"650 1253 OFFCURVE",
"765 1253 QCURVE SMOOTH",
"869 1253 OFFCURVE",
"942 1188 QCURVE",
"944 1038 LINE",
"1033 1038 LINE",
"1079 1323 LINE",
"996 1340 OFFCURVE",
"858 1356 OFFCURVE",
"759 1356 QCURVE SMOOTH",
"539 1356 OFFCURVE",
"247 1104 OFFCURVE",
"168 839 QCURVE",
"50 839 LINE",
"33 738 LINE",
"143 738 LINE",
"128 674 OFFCURVE",
"117 594 QCURVE",
"7 594 LINE"
);
}
);
width = 1024;
}
);
note = Euro;
unicode = 20AC;
},
{
glyphname = guilsinglleft;
lastChange = "2019-12-20 15:51:09 +0000";
layers = (
{
layerId = "1E4AACC9-6A88-4B03-8BB8-E9E25DEE74AF";
paths = (
{
closed = 1;
nodes = (
"124 495 LINE",
"112 429 LINE",
"370 74 LINE",
"470 74 LINE",
"346 462 LINE",
"607 851 LINE",
"507 851 LINE"
);
}
);
width = 682;
}
);
note = guilsinglleft;
unicode = 2039;
},
{
glyphname = guilsinglright;
lastChange = "2019-12-20 15:51:09 +0000";
layers = (
{
layerId = "1E4AACC9-6A88-4B03-8BB8-E9E25DEE74AF";
paths = (
{
closed = 1;
nodes = (
"511 430 LINE",
"523 496 LINE",
"266 852 LINE",
"166 852 LINE",
"289 463 LINE",
"29 74 LINE",
"129 74 LINE"
);
}
);
width = 682;
}
);
note = guilsinglright;
unicode = 203A;
},
{
glyphname = uniFB01;
lastChange = "2019-12-20 15:51:09 +0000";
layers = (
{
layerId = "1E4AACC9-6A88-4B03-8BB8-E9E25DEE74AF";
paths = (
{
closed = 1;
nodes = (
"1056 940 LINE",
"496 940 LINE",
"517 1057 LINE SMOOTH",
"544 1210 OFFCURVE",
"646 1332 OFFCURVE",
"740 1332 QCURVE SMOOTH",
"784 1332 OFFCURVE",
"849 1302 OFFCURVE",
"863 1286 QCURVE",
"882 1172 LINE",
"946 1172 LINE",
"987 1406 LINE",
"960 1417 OFFCURVE",
"809 1442 OFFCURVE",
"745 1442 QCURVE SMOOTH",
"318 1442 OFFCURVE",
"242 1025 QCURVE SMOOTH",
"228 944 LINE",
"79 905 LINE",
"67 836 LINE",
"209 836 LINE",
"-15 -436 LINE",
"254 -436 LINE",
"478 836 LINE",
"769 836 LINE",
"621 0 LINE",
"994 0 LINE",
"1005 66 LINE",
"906 90 LINE"
);
}
);
width = 1139;
}
);
note = uniFB01;
unicode = "F001,FB01";
},
{
glyphname = uniFB02;
lastChange = "2019-12-20 15:51:09 +0000";
layers = (
{
layerId = "1E4AACC9-6A88-4B03-8BB8-E9E25DEE74AF";
paths = (
{
closed = 1;
nodes = (
"-15 -436 LINE",
"254 -436 LINE",
"478 836 LINE",
"669 836 LINE",
"687 940 LINE",
"496 940 LINE",
"522 1087 LINE SMOOTH",
"566 1332 OFFCURVE",
"699 1332 QCURVE SMOOTH",
"783 1332 OFFCURVE",
"848 1294 QCURVE",
"623 0 LINE",
"995 0 LINE",
"1006 66 LINE",
"907 90 LINE",
"1142 1421 LINE",
"937 1421 LINE",
"748 1442 OFFCURVE",
"695 1442 QCURVE SMOOTH",
"513 1442 OFFCURVE",
"279 1238 OFFCURVE",
"246 1045 QCURVE SMOOTH",
"228 944 LINE",
"79 905 LINE",
"67 836 LINE",
"209 836 LINE"
);
}
);
width = 1139;
}
);
note = uniFB02;
unicode = "F002,FB02";
},
{
glyphname = daggerdbl;
lastChange = "2019-12-20 15:51:09 +0000";
layers = (
{
layerId = "1E4AACC9-6A88-4B03-8BB8-E9E25DEE74AF";
paths = (
{
closed = 1;
nodes = (
"885 92 LINE",
"927 330 LINE",
"509 262 LINE",
"621 412 LINE",
"557 590 LINE",
"684 770 LINE",
"625 920 LINE",
"1019 854 LINE",
"1061 1090 LINE",
"643 1026 LINE",
"781 1421 LINE",
"543 1421 LINE",
"537 1026 LINE",
"143 1090 LINE",
"101 854 LINE",
"519 920 LINE",
"410 770 LINE",
"471 590 LINE",
"347 412 LINE",
"403 262 LINE",
"9 330 LINE",
"-33 92 LINE",
"384 156 LINE",
"250 -240 LINE",
"488 -240 LINE",
"490 156 LINE"
);
}
);
width = 1024;
}
);
note = daggerdbl;
unicode = 2021;
},
{
glyphname = periodcentered;
lastChange = "2019-12-20 15:51:09 +0000";
layers = (
{
layerId = "1E4AACC9-6A88-4B03-8BB8-E9E25DEE74AF";
paths = (
{
closed = 1;
nodes = (
"340 511 OFFCURVE",
"436 608 OFFCURVE",
"436 677 QCURVE SMOOTH",
"436 747 OFFCURVE",
"339 843 OFFCURVE",
"270 843 QCURVE SMOOTH",
"200 843 OFFCURVE",
"104 746 OFFCURVE",
"104 677 QCURVE SMOOTH",
"104 607 OFFCURVE",
"201 511 OFFCURVE",
"270 511 QCURVE SMOOTH"
);
}
);
width = 512;
}
);
note = periodcentered;
unicode = 2219;
},
{
glyphname = quotesinglbase;
lastChange = "2019-12-20 15:51:09 +0000";
layers = (
{
layerId = "1E4AACC9-6A88-4B03-8BB8-E9E25DEE74AF";
paths = (
{
closed = 1;
nodes = (
"422 193 OFFCURVE",
"319 301 OFFCURVE",
"235 301 QCURVE SMOOTH",
"166 301 OFFCURVE",
"76 233 OFFCURVE",
"76 168 QCURVE SMOOTH",
"76 85 OFFCURVE",
"147 42 QCURVE SMOOTH",
"188 16 OFFCURVE",
"217 -17 OFFCURVE",
"217 -39 QCURVE SMOOTH",
"217 -73 OFFCURVE",
"173 -149 OFFCURVE",
"91 -210 OFFCURVE",
"35 -225 QCURVE",
"35 -317 LINE",
"224 -268 OFFCURVE",
"422 -51 OFFCURVE",
"422 106 QCURVE SMOOTH"
);
}
);
width = 682;
}
);
note = quotesinglbase;
unicode = 201A;
},
{
glyphname = quotedblbase;
lastChange = "2019-12-20 15:51:09 +0000";
layers = (
{
layerId = "1E4AACC9-6A88-4B03-8BB8-E9E25DEE74AF";
paths = (
{
closed = 1;
nodes = (
"811 193 OFFCURVE",
"708 301 OFFCURVE",
"624 301 QCURVE SMOOTH",
"555 301 OFFCURVE",
"465 233 OFFCURVE",
"465 168 QCURVE SMOOTH",
"465 85 OFFCURVE",
"536 42 QCURVE SMOOTH",
"577 16 OFFCURVE",
"606 -17 OFFCURVE",
"606 -39 QCURVE SMOOTH",
"606 -73 OFFCURVE",
"562 -149 OFFCURVE",
"480 -210 OFFCURVE",
"424 -225 QCURVE",
"424 -317 LINE",
"613 -268 OFFCURVE",
"811 -51 OFFCURVE",
"811 106 QCURVE SMOOTH"
);
},
{
closed = 1;
nodes = (
"391 193 OFFCURVE",
"288 301 OFFCURVE",
"204 301 QCURVE SMOOTH",
"135 301 OFFCURVE",
"45 233 OFFCURVE",
"45 168 QCURVE SMOOTH",
"45 85 OFFCURVE",
"116 42 QCURVE SMOOTH",
"157 16 OFFCURVE",
"186 -17 OFFCURVE",
"186 -39 QCURVE SMOOTH",
"186 -73 OFFCURVE",
"142 -149 OFFCURVE",
"60 -210 OFFCURVE",
"4 -225 QCURVE",
"4 -317 LINE",
"193 -268 OFFCURVE",
"391 -51 OFFCURVE",
"391 106 QCURVE SMOOTH"
);
}
);
width = 1024;
}
);
note = quotedblbase;
unicode = 201E;
},
{
glyphname = perthousand;
lastChange = "2019-12-20 15:51:09 +0000";
layers = (
{
layerId = "1E4AACC9-6A88-4B03-8BB8-E9E25DEE74AF";
paths = (
{
closed = 1;
nodes = (
"1389 1362 LINE",
"1238 1362 LINE",
"46 -20 LINE",
"196 -20 LINE"
);
},
{
closed = 1;
nodes = (
"748 1240 OFFCURVE",
"617 1362 OFFCURVE",
"491 1362 QCURVE SMOOTH",
"319 1362 OFFCURVE",
"119 1115 OFFCURVE",
"119 908 QCURVE SMOOTH",
"119 663 OFFCURVE",
"372 663 QCURVE SMOOTH",
"676 663 OFFCURVE",
"738 1015 QCURVE SMOOTH",
"748 1073 OFFCURVE",
"748 1119 QCURVE SMOOTH"
);
},
{
closed = 1;
nodes = (
"310 962 OFFCURVE",
"353 1160 OFFCURVE",
"428 1268 OFFCURVE",
"477 1268 QCURVE SMOOTH",
"519 1268 OFFCURVE",
"553 1195 OFFCURVE",
"553 1126 QCURVE SMOOTH",
"553 1048 OFFCURVE",
"509 863 OFFCURVE",
"429 757 OFFCURVE",
"380 757 QCURVE SMOOTH",
"310 757 OFFCURVE",
"310 884 QCURVE SMOOTH"
);
},
{
closed = 1;
nodes = (
"1310 550 OFFCURVE",
"1179 672 OFFCURVE",
"1053 672 QCURVE SMOOTH",
"881 672 OFFCURVE",
"681 425 OFFCURVE",
"681 218 QCURVE SMOOTH",
"681 -27 OFFCURVE",
"934 -27 QCURVE SMOOTH",
"1105 -27 OFFCURVE",
"1310 222 OFFCURVE",
"1310 429 QCURVE SMOOTH"
);
},
{
closed = 1;
nodes = (
"872 272 OFFCURVE",
"915 470 OFFCURVE",
"990 578 OFFCURVE",
"1039 578 QCURVE SMOOTH",
"1081 578 OFFCURVE",
"1115 505 OFFCURVE",
"1115 436 QCURVE SMOOTH",
"1115 358 OFFCURVE",
"1071 173 OFFCURVE",
"991 67 OFFCURVE",
"942 67 QCURVE SMOOTH",
"872 67 OFFCURVE",
"872 194 QCURVE SMOOTH"
);
},
{
closed = 1;
nodes = (
"1979 550 OFFCURVE",
"1848 672 OFFCURVE",
"1722 672 QCURVE SMOOTH",
"1550 672 OFFCURVE",
"1350 425 OFFCURVE",
"1350 218 QCURVE SMOOTH",
"1350 -27 OFFCURVE",
"1603 -27 QCURVE SMOOTH",
"1907 -27 OFFCURVE",
"1969 325 QCURVE SMOOTH",
"1979 383 OFFCURVE",
"1979 429 QCURVE SMOOTH"
);
},
{
closed = 1;
nodes = (
"1541 272 OFFCURVE",
"1584 470 OFFCURVE",
"1659 578 OFFCURVE",
"1708 578 QCURVE SMOOTH",
"1750 578 OFFCURVE",
"1784 505 OFFCURVE",
"1784 436 QCURVE SMOOTH",
"1784 358 OFFCURVE",
"1740 173 OFFCURVE",
"1660 67 OFFCURVE",
"1611 67 QCURVE SMOOTH",
"1541 67 OFFCURVE",
"1541 194 QCURVE SMOOTH"
);
}
);
width = 2048;
}
);
note = perthousand;
unicode = 2030;
},
{
glyphname = dotlessi;
lastChange = "2019-12-20 15:51:09 +0000";
layers = (
{
layerId = "1E4AACC9-6A88-4B03-8BB8-E9E25DEE74AF";
paths = (
{
closed = 1;
nodes = (
"482 940 LINE",
"117 940 LINE",
"106 874 LINE",
"197 850 LINE",
"47 0 LINE",
"440 0 LINE",
"451 66 LINE",
"332 90 LINE"
);
}
);
width = 569;
}
);
note = dotlessi;
unicode = 0131;
},
{
glyphname = circumflex;
lastChange = "2019-12-20 15:51:09 +0000";
layers = (
{
layerId = "1E4AACC9-6A88-4B03-8BB8-E9E25DEE74AF";
paths = (
{
closed = 1;
nodes = (
"189 1118 LINE",
"465 1280 LINE",
"685 1118 LINE",
"761 1118 LINE",
"767 1151 LINE",
"601 1444 LINE",
"388 1444 LINE",
"119 1151 LINE",
"113 1118 LINE"
);
}
);
width = 682;
}
);
note = circumflex;
unicode = 02C6;
},
{
glyphname = tilde;
lastChange = "2019-12-20 15:51:09 +0000";
layers = (
{
layerId = "1E4AACC9-6A88-4B03-8BB8-E9E25DEE74AF";
paths = (
{
closed = 1;
nodes = (
"653 1090 OFFCURVE",
"787 1224 OFFCURVE",
"825 1376 QCURVE",
"726 1376 LINE",
"706 1315 OFFCURVE",
"664 1264 OFFCURVE",
"627 1264 QCURVE SMOOTH",
"598 1264 OFFCURVE",
"546 1309 QCURVE SMOOTH",
"500 1347 OFFCURVE",
"416 1395 OFFCURVE",
"363 1395 QCURVE SMOOTH",
"161 1395 OFFCURVE",
"94 1108 QCURVE",
"193 1108 LINE",
"212 1171 OFFCURVE",
"254 1223 OFFCURVE",
"292 1223 QCURVE SMOOTH",
"325 1223 OFFCURVE",
"374 1178 QCURVE SMOOTH",
"470 1090 OFFCURVE",
"555 1090 QCURVE SMOOTH"
);
}
);
width = 682;
}
);
note = tilde;
unicode = 02DC;
},
{
glyphname = uni02C9;
lastChange = "2019-12-20 15:51:09 +0000";
layers = (
{
layerId = "1E4AACC9-6A88-4B03-8BB8-E9E25DEE74AF";
paths = (
{
closed = 1;
nodes = (
"757 1151 LINE",
"783 1301 LINE",
"155 1301 LINE",
"129 1151 LINE"
);
}
);
width = 682;
}
);
note = uni02C9;
unicode = 02C9;
},
{
glyphname = breve;
lastChange = "2019-12-20 15:51:09 +0000";
layers = (
{
layerId = "1E4AACC9-6A88-4B03-8BB8-E9E25DEE74AF";
paths = (
{
closed = 1;
nodes = (
"571 1118 OFFCURVE",
"758 1287 OFFCURVE",
"789 1441 QCURVE",
"668 1441 LINE",
"615 1310 OFFCURVE",
"465 1310 QCURVE SMOOTH",
"315 1310 OFFCURVE",
"308 1441 QCURVE",
"187 1441 LINE",
"181 1400 OFFCURVE",
"181 1363 QCURVE SMOOTH",
"181 1243 OFFCURVE",
"311 1118 OFFCURVE",
"431 1118 QCURVE SMOOTH"
);
}
);
width = 682;
}
);
note = breve;
unicode = 02D8;
},
{
glyphname = dotaccent;
lastChange = "2019-12-20 15:51:09 +0000";
layers = (
{
layerId = "1E4AACC9-6A88-4B03-8BB8-E9E25DEE74AF";
paths = (
{
closed = 1;
nodes = (
"307 1226 OFFCURVE",
"397 1137 OFFCURVE",
"461 1137 QCURVE SMOOTH",
"526 1137 OFFCURVE",
"614 1228 OFFCURVE",
"614 1291 QCURVE SMOOTH",
"614 1355 OFFCURVE",
"525 1444 OFFCURVE",
"461 1444 QCURVE SMOOTH",
"398 1444 OFFCURVE",
"307 1356 OFFCURVE",
"307 1291 QCURVE SMOOTH"
);
}
);
width = 682;
}
);
note = dotaccent;
unicode = 02D9;
},
{
glyphname = ring;
lastChange = "2019-12-20 15:51:09 +0000";
layers = (
{
layerId = "1E4AACC9-6A88-4B03-8BB8-E9E25DEE74AF";
paths = (
{
closed = 1;
nodes = (
"549 1059 OFFCURVE",
"672 1183 OFFCURVE",
"672 1272 QCURVE SMOOTH",
"672 1362 OFFCURVE",
"549 1483 OFFCURVE",
"461 1483 QCURVE SMOOTH",
"373 1483 OFFCURVE",
"250 1362 OFFCURVE",
"250 1272 QCURVE SMOOTH",
"250 1182 OFFCURVE",
"374 1059 OFFCURVE",
"461 1059 QCURVE SMOOTH"
);
},
{
closed = 1;
nodes = (
"499 1371 OFFCURVE",
"559 1312 OFFCURVE",
"559 1272 QCURVE SMOOTH",
"559 1233 OFFCURVE",
"500 1174 OFFCURVE",
"461 1174 QCURVE SMOOTH",
"422 1174 OFFCURVE",
"363 1233 OFFCURVE",
"363 1272 QCURVE SMOOTH",
"363 1312 OFFCURVE",
"422 1371 OFFCURVE",
"461 1371 QCURVE SMOOTH"
);
}
);
width = 682;
}
);
note = ring;
unicode = 02DA;
},
{
glyphname = cedilla;
lastChange = "2019-12-20 15:51:09 +0000";
layers = (
{
layerId = "1E4AACC9-6A88-4B03-8BB8-E9E25DEE74AF";
paths = (
{
closed = 1;
nodes = (
"221 -432 OFFCURVE",
"389 -315 OFFCURVE",
"389 -216 QCURVE SMOOTH",
"389 -155 OFFCURVE",
"300 -74 OFFCURVE",
"220 -63 QCURVE",
"263 47 LINE",
"172 47 LINE",
"86 -148 LINE",
"192 -155 OFFCURVE",
"192 -233 QCURVE SMOOTH",
"192 -275 OFFCURVE",
"131 -325 OFFCURVE",
"84 -325 QCURVE SMOOTH",
"36 -325 OFFCURVE",
"-19 -306 QCURVE",
"-56 -403 LINE",
"13 -432 OFFCURVE",
"93 -432 QCURVE SMOOTH"
);
}
);
width = 682;
}
);
note = cedilla;
unicode = 00B8;
},
{
glyphname = hungarumlaut;
lastChange = "2019-12-20 15:51:09 +0000";
layers = (
{
layerId = "1E4AACC9-6A88-4B03-8BB8-E9E25DEE74AF";
paths = (
{
closed = 1;
nodes = (
"265 1118 LINE",
"608 1407 LINE",
"615 1444 LINE",
"364 1444 LINE",
"174 1151 LINE",
"168 1118 LINE"
);
},
{
closed = 1;
nodes = (
"615 1118 LINE",
"959 1407 LINE",
"966 1444 LINE",
"714 1444 LINE",
"525 1151 LINE",
"519 1118 LINE"
);
}
);
width = 682;
}
);
note = hungarumlaut;
unicode = 02DD;
},
{
glyphname = ogonek;
lastChange = "2019-12-20 15:51:09 +0000";
layers = (
{
layerId = "1E4AACC9-6A88-4B03-8BB8-E9E25DEE74AF";
paths = (
{
closed = 1;
nodes = (
"370 -430 OFFCURVE",
"462 -377 QCURVE",
"432 -294 LINE",
"374 -320 OFFCURVE",
"322 -320 QCURVE SMOOTH",
"218 -320 OFFCURVE",
"218 -207 QCURVE SMOOTH",
"218 -153 OFFCURVE",
"260 -35 OFFCURVE",
"292 14 QCURVE",
"160 14 LINE",
"103 -25 OFFCURVE",
"32 -162 OFFCURVE",
"32 -229 QCURVE SMOOTH",
"32 -328 OFFCURVE",
"148 -430 OFFCURVE",
"257 -430 QCURVE SMOOTH"
);
}
);
width = 682;
}
);
note = ogonek;
unicode = 02DB;
},
{
glyphname = caron;
lastChange = "2019-12-20 15:51:09 +0000";
layers = (
{
layerId = "1E4AACC9-6A88-4B03-8BB8-E9E25DEE74AF";
paths = (
{
closed = 1;
nodes = (
"745 1444 LINE",
"469 1282 LINE",
"249 1444 LINE",
"173 1444 LINE",
"167 1411 LINE",
"333 1118 LINE",
"546 1118 LINE",
"815 1411 LINE",
"821 1444 LINE"
);
}
);
width = 682;
}
);
note = caron;
unicode = 02C7;
},
{
glyphname = Lslash;
lastChange = "2019-12-20 15:51:09 +0000";
layers = (
{
layerId = "1E4AACC9-6A88-4B03-8BB8-E9E25DEE74AF";
paths = (
{
closed = 1;
nodes = (
"670 1242 LINE",
"872 1268 LINE",
"885 1341 LINE",
"222 1341 LINE",
"209 1268 LINE",
"375 1242 LINE",
"268 636 LINE",
"85 538 LINE",
"61 402 LINE",
"245 502 LINE",
"174 100 LINE",
"-3 73 LINE",
"-15 0 LINE",
"1070 0 LINE",
"1159 405 LINE",
"1075 405 LINE",
"958 126 LINE",
"921 119 OFFCURVE",
"684 106 OFFCURVE",
"583 106 QCURVE SMOOTH",
"470 106 LINE",
"571 680 LINE",
"833 817 LINE",
"856 951 LINE",
"594 811 LINE"
);
}
);
width = 1251;
}
);
note = Lslash;
unicode = 0141;
},
{
glyphname = lslash;
lastChange = "2019-12-20 15:51:09 +0000";
layers = (
{
layerId = "1E4AACC9-6A88-4B03-8BB8-E9E25DEE74AF";
paths = (
{
closed = 1;
nodes = (
"145 603 LINE",
"10 533 LINE",
"-12 407 LINE",
"123 478 LINE",
"37 0 LINE",
"411 0 LINE",
"422 66 LINE",
"323 90 LINE",
"421 645 LINE",
"562 720 LINE",
"584 844 LINE",
"443 770 LINE",
"558 1421 LINE",
"193 1421 LINE",
"181 1355 LINE",
"273 1331 LINE"
);
}
);
width = 569;
}
);
note = lslash;
unicode = 0142;
},
{
glyphname = brokenbar;
lastChange = "2019-12-20 15:51:09 +0000";
layers = (
{
layerId = "1E4AACC9-6A88-4B03-8BB8-E9E25DEE74AF";
paths = (
{
closed = 1;
nodes = (
"324 801 LINE",
"324 1421 LINE",
"182 1421 LINE",
"182 801 LINE"
);
},
{
closed = 1;
nodes = (
"324 -442 LINE",
"324 180 LINE",
"182 180 LINE",
"182 -442 LINE"
);
}
);
width = 451;
}
);
note = brokenbar;
unicode = 00A6;
},
{
glyphname = Eth;
lastChange = "2019-12-20 15:51:09 +0000";
layers = (
{
layerId = "1E4AACC9-6A88-4B03-8BB8-E9E25DEE74AF";
paths = (
{
closed = 1;
nodes = (
"1431 1054 OFFCURVE",
"1079 1341 OFFCURVE",
"742 1341 QCURVE SMOOTH",
"221 1341 LINE",
"208 1268 LINE",
"375 1242 LINE",
"285 731 LINE",
"113 731 LINE",
"91 609 LINE",
"263 609 LINE",
"174 100 LINE",
"-3 73 LINE",
"-15 0 LINE",
"599 -4 LINE SMOOTH",
"849 -4 OFFCURVE",
"1228 188 OFFCURVE",
"1431 549 OFFCURVE",
"1431 788 QCURVE SMOOTH"
);
},
{
closed = 1;
nodes = (
"1120 464 OFFCURVE",
"839 106 OFFCURVE",
"595 106 QCURVE SMOOTH",
"556 106 OFFCURVE",
"471 114 QCURVE",
"558 609 LINE",
"816 609 LINE",
"837 731 LINE",
"580 731 LINE",
"668 1231 LINE",
"705 1231 LINE SMOOTH",
"1120 1231 OFFCURVE",
"1120 774 QCURVE SMOOTH"
);
}
);
width = 1479;
}
);
note = Eth;
unicode = 00D0;
},
{
glyphname = eth;
lastChange = "2019-12-20 15:51:09 +0000";
layers = (
{
layerId = "1E4AACC9-6A88-4B03-8BB8-E9E25DEE74AF";
paths = (
{
closed = 1;
nodes = (
"333 1117 LINE",
"311 991 LINE",
"592 1139 LINE",
"679 1027 OFFCURVE",
"688 890 QCURVE",
"631 903 OFFCURVE",
"571 903 QCURVE SMOOTH",
"412 903 OFFCURVE",
"167 768 OFFCURVE",
"35 518 OFFCURVE",
"35 353 QCURVE SMOOTH",
"35 186 OFFCURVE",
"243 -20 OFFCURVE",
"410 -20 QCURVE SMOOTH",
"571 -20 OFFCURVE",
"817 156 OFFCURVE",
"956 483 OFFCURVE",
"956 687 QCURVE SMOOTH",
"956 1021 OFFCURVE",
"744 1224 QCURVE",
"955 1335 LINE",
"977 1459 LINE",
"663 1294 LINE",
"528 1385 OFFCURVE",
"376 1421 QCURVE",
"357 1313 LINE",
"446 1283 OFFCURVE",
"524 1217 QCURVE"
);
},
{
closed = 1;
nodes = (
"301 415 OFFCURVE",
"375 656 OFFCURVE",
"496 804 OFFCURVE",
"558 804 QCURVE SMOOTH",
"621 804 OFFCURVE",
"686 708 OFFCURVE",
"686 617 QCURVE SMOOTH",
"686 478 OFFCURVE",
"616 229 OFFCURVE",
"497 79 OFFCURVE",
"432 79 QCURVE SMOOTH",
"373 79 OFFCURVE",
"301 181 OFFCURVE",
"301 283 QCURVE SMOOTH"
);
}
);
width = 1024;
}
);
note = eth;
unicode = 00F0;
},
{
glyphname = Thorn;
lastChange = "2019-12-20 15:51:09 +0000";
layers = (
{
layerId = "1E4AACC9-6A88-4B03-8BB8-E9E25DEE74AF";
paths = (
{
closed = 1;
nodes = (
"518 378 LINE",
"623 973 LINE",
"665 973 LINE SMOOTH",
"788 973 OFFCURVE",
"909 847 OFFCURVE",
"909 715 QCURVE SMOOTH",
"909 378 OFFCURVE",
"564 378 QCURVE SMOOTH"
);
},
{
closed = 1;
nodes = (
"642 1083 LINE",
"670 1241 LINE",
"847 1268 LINE",
"860 1341 LINE",
"221 1341 LINE",
"208 1268 LINE",
"375 1241 LINE",
"174 100 LINE",
"-2 74 LINE",
"-15 0 LINE",
"624 0 LINE",
"637 74 LINE",
"469 100 LINE",
"498 268 LINE",
"643 268 LINE SMOOTH",
"911 268 OFFCURVE",
"1202 503 OFFCURVE",
"1202 728 QCURVE SMOOTH",
"1202 901 OFFCURVE",
"970 1083 OFFCURVE",
"751 1083 QCURVE SMOOTH"
);
}
);
width = 1251;
}
);
note = Thorn;
unicode = 00DE;
},
{
glyphname = thorn;
lastChange = "2019-12-20 15:51:09 +0000";
layers = (
{
layerId = "1E4AACC9-6A88-4B03-8BB8-E9E25DEE74AF";
paths = (
{
closed = 1;
nodes = (
"956 788 OFFCURVE",
"822 965 OFFCURVE",
"709 965 QCURVE SMOOTH",
"624 965 OFFCURVE",
"465 874 OFFCURVE",
"409 791 QCURVE",
"428 847 OFFCURVE",
"481 1146 OFFCURVE",
"529 1421 QCURVE",
"159 1421 LINE",
"147 1361 LINE",
"246 1336 LINE",
"-51 -347 LINE",
"-155 -371 LINE",
"-167 -436 LINE",
"369 -436 LINE",
"381 -371 LINE",
"221 -347 LINE",
"261 -96 OFFCURVE",
"268 -45 OFFCURVE",
"273 13 QCURVE",
"305 -1 OFFCURVE",
"405 -20 OFFCURVE",
"442 -20 QCURVE SMOOTH",
"588 -20 OFFCURVE",
"825 151 OFFCURVE",
"956 452 OFFCURVE",
"956 631 QCURVE SMOOTH"
);
},
{
closed = 1;
nodes = (
"693 458 OFFCURVE",
"623 218 OFFCURVE",
"502 79 OFFCURVE",
"430 79 QCURVE SMOOTH",
"399 79 OFFCURVE",
"321 108 OFFCURVE",
"301 127 QCURVE",
"398 674 LINE",
"438 731 OFFCURVE",
"543 813 OFFCURVE",
"576 813 QCURVE SMOOTH",
"629 813 OFFCURVE",
"693 690 OFFCURVE",
"693 587 QCURVE SMOOTH"
);
}
);
width = 1024;
}
);
note = thorn;
unicode = 00FE;
},
{
glyphname = minus;
lastChange = "2019-12-20 15:51:09 +0000";
layers = (
{
layerId = "1E4AACC9-6A88-4B03-8BB8-E9E25DEE74AF";
paths = (
{
closed = 1;
nodes = (
"162 751 LINE",
"162 608 LINE",
"1114 608 LINE",
"1114 751 LINE"
);
}
);
width = 1241;
}
);
note = minus;
unicode = 2212;
},
{
glyphname = multiply;
lastChange = "2019-12-20 15:51:09 +0000";
layers = (
{
layerId = "1E4AACC9-6A88-4B03-8BB8-E9E25DEE74AF";
paths = (
{
closed = 1;
nodes = (
"932 254 LINE",
"1033 356 LINE",
"709 682 LINE",
"1033 1006 LINE",
"932 1108 LINE",
"606 784 LINE",
"284 1108 LINE",
"180 1004 LINE",
"504 682 LINE",
"180 356 LINE",
"281 254 LINE",
"606 578 LINE"
);
}
);
width = 1167;
}
);
note = multiply;
unicode = 00D7;
},
{
glyphname = uni00B9;
lastChange = "2019-12-20 15:51:09 +0000";
layers = (
{
layerId = "1E4AACC9-6A88-4B03-8BB8-E9E25DEE74AF";
paths = (
{
closed = 1;
nodes = (
"535 1347 LINE",
"445 1347 LINE",
"194 1213 LINE",
"183 1147 LINE",
"329 1188 LINE",
"228 616 LINE",
"87 602 LINE",
"75 535 LINE",
"532 535 LINE",
"544 602 LINE",
"406 616 LINE"
);
}
);
width = 614;
}
);
note = uni00B9;
unicode = 00B9;
},
{
glyphname = uni00B2;
lastChange = "2019-12-20 15:51:09 +0000";
layers = (
{
layerId = "1E4AACC9-6A88-4B03-8BB8-E9E25DEE74AF";
paths = (
{
closed = 1;
nodes = (
"575 677 LINE",
"212 677 LINE",
"425 822 OFFCURVE",
"571 954 OFFCURVE",
"649 1087 OFFCURVE",
"649 1161 QCURVE SMOOTH",
"649 1248 OFFCURVE",
"522 1350 OFFCURVE",
"404 1350 QCURVE SMOOTH",
"323 1350 OFFCURVE",
"205 1323 QCURVE",
"172 1131 LINE",
"234 1131 LINE",
"280 1247 LINE",
"322 1278 OFFCURVE",
"375 1278 QCURVE SMOOTH",
"420 1278 OFFCURVE",
"465 1213 OFFCURVE",
"465 1161 QCURVE SMOOTH",
"465 1088 OFFCURVE",
"385 940 OFFCURVE",
"228 780 OFFCURVE",
"60 649 QCURVE",
"40 535 LINE",
"550 535 LINE"
);
}
);
width = 614;
}
);
note = uni00B2;
unicode = 00B2;
},
{
glyphname = uni00B3;
lastChange = "2019-12-20 15:51:09 +0000";
layers = (
{
layerId = "1E4AACC9-6A88-4B03-8BB8-E9E25DEE74AF";
paths = (
{
closed = 1;
nodes = (
"421 522 OFFCURVE",
"606 669 OFFCURVE",
"606 788 QCURVE SMOOTH",
"606 858 OFFCURVE",
"521 945 OFFCURVE",
"438 956 QCURVE",
"640 991 OFFCURVE",
"640 1176 QCURVE SMOOTH",
"640 1256 OFFCURVE",
"506 1350 OFFCURVE",
"393 1350 QCURVE SMOOTH",
"304 1350 OFFCURVE",
"196 1323 QCURVE",
"162 1130 LINE",
"224 1130 LINE",
"271 1249 LINE",
"315 1276 OFFCURVE",
"367 1276 QCURVE SMOOTH",
"410 1276 OFFCURVE",
"458 1223 OFFCURVE",
"458 1174 QCURVE SMOOTH",
"458 1008 OFFCURVE",
"326 1001 QCURVE SMOOTH",
"263 997 LINE",
"249 914 LINE",
"317 908 LINE SMOOTH",
"428 899 OFFCURVE",
"428 784 QCURVE SMOOTH",
"428 595 OFFCURVE",
"249 595 QCURVE SMOOTH",
"184 595 OFFCURVE",
"142 620 QCURVE",
"133 752 LINE",
"68 752 LINE",
"41 549 LINE",
"147 522 OFFCURVE",
"259 522 QCURVE SMOOTH"
);
}
);
width = 614;
}
);
note = uni00B3;
unicode = 00B3;
},
{
glyphname = franc;
lastChange = "2019-12-20 15:51:09 +0000";
layers = (
{
layerId = "1E4AACC9-6A88-4B03-8BB8-E9E25DEE74AF";
paths = (
{
closed = 1;
nodes = (
"13 282 LINE",
"171 282 LINE",
"139 100 LINE",
"-24 73 LINE",
"-37 0 LINE",
"599 0 LINE",
"612 73 LINE",
"434 100 LINE",
"466 282 LINE",
"696 282 LINE",
"714 384 LINE",
"484 384 LINE",
"517 572 LINE",
"792 572 LINE",
"798 430 LINE",
"887 430 LINE",
"956 822 LINE",
"867 822 LINE",
"811 682 LINE",
"536 682 LINE",
"633 1231 LINE",
"754 1231 LINE SMOOTH",
"885 1231 OFFCURVE",
"981 1217 QCURVE",
"971 980 LINE",
"1065 980 LINE",
"1129 1341 LINE",
"186 1341 LINE",
"173 1268 LINE",
"340 1242 LINE",
"189 384 LINE",
"31 384 LINE"
);
}
);
width = 1024;
}
);
note = franc;
unicode = 20A3;
},
{
glyphname = uni0111;
lastChange = "2019-12-20 15:51:09 +0000";
layers = (
{
layerId = "1E4AACC9-6A88-4B03-8BB8-E9E25DEE74AF";
paths = (
{
closed = 1;
nodes = (
"1093 1099 LINE",
"1111 1202 LINE",
"1010 1202 LINE",
"1049 1421 LINE",
"614 1421 LINE",
"602 1356 LINE",
"763 1332 LINE",
"741 1202 LINE",
"530 1202 LINE",
"512 1099 LINE",
"722 1099 LINE",
"708 1008 OFFCURVE",
"702 936 QCURVE",
"637 964 OFFCURVE",
"528 964 QCURVE SMOOTH",
"386 964 OFFCURVE",
"153 789 OFFCURVE",
"24 487 OFFCURVE",
"24 310 QCURVE SMOOTH",
"24 156 OFFCURVE",
"162 -20 OFFCURVE",
"276 -20 QCURVE SMOOTH",
"349 -20 OFFCURVE",
"501 65 OFFCURVE",
"560 144 QCURVE",
"567 0 LINE",
"899 0 LINE",
"911 60 LINE",
"812 85 LINE",
"991 1099 LINE"
);
},
{
closed = 1;
nodes = (
"577 267 LINE",
"536 209 OFFCURVE",
"428 128 OFFCURVE",
"395 128 QCURVE SMOOTH",
"346 128 OFFCURVE",
"287 251 OFFCURVE",
"287 354 QCURVE SMOOTH",
"287 481 OFFCURVE",
"355 723 OFFCURVE",
"472 865 OFFCURVE",
"540 865 QCURVE SMOOTH",
"571 865 OFFCURVE",
"654 837 OFFCURVE",
"674 817 QCURVE"
);
}
);
width = 1024;
}
);
note = uni0111;
unicode = 0111;
},
{
glyphname = uni00AF;
lastChange = "2019-12-20 15:51:09 +0000";
layers = (
{
layerId = "1E4AACC9-6A88-4B03-8BB8-E9E25DEE74AF";
paths = (
{
closed = 1;
nodes = (
"1196 1546 LINE",
"137 1546 LINE",
"137 1452 LINE",
"1196 1452 LINE"
);
}
);
width = 1024;
}
);
note = uni00AF;
unicode = 00AF;
},
{
glyphname = Gamma;
lastChange = "2019-12-20 15:51:09 +0000";
layers = (
{
layerId = "1E4AACC9-6A88-4B03-8BB8-E9E25DEE74AF";
paths = (
{
closed = 1;
nodes = (
"656 73 LINE",
"464 99 LINE",
"664 1235 LINE",
"753 1235 LINE SMOOTH",
"853 1235 OFFCURVE",
"1057 1222 OFFCURVE",
"1089 1215 QCURVE",
"1108 936 LINE",
"1191 936 LINE",
"1246 1341 LINE",
"217 1341 LINE",
"203 1268 LINE",
"370 1241 LINE",
"169 99 LINE",
"-7 73 LINE",
"-20 0 LINE",
"643 0 LINE"
);
}
);
width = 1237;
}
);
note = Gamma;
unicode = 0393;
},
{
glyphname = Theta;
lastChange = "2019-12-20 15:51:09 +0000";
layers = (
{
layerId = "1E4AACC9-6A88-4B03-8BB8-E9E25DEE74AF";
paths = (
{
closed = 1;
nodes = (
"1202 654 OFFCURVE",
"1054 279 OFFCURVE",
"826 83 OFFCURVE",
"688 83 QCURVE SMOOTH",
"539 83 OFFCURVE",
"375 297 OFFCURVE",
"375 485 QCURVE SMOOTH",
"375 676 OFFCURVE",
"521 1054 OFFCURVE",
"747 1251 OFFCURVE",
"882 1251 QCURVE SMOOTH",
"1034 1251 OFFCURVE",
"1202 1033 OFFCURVE",
"1202 843 QCURVE SMOOTH"
);
},
{
closed = 1;
nodes = (
"919 -20 OFFCURVE",
"1289 179 OFFCURVE",
"1503 571 OFFCURVE",
"1503 812 QCURVE SMOOTH",
"1503 970 OFFCURVE",
"1353 1219 OFFCURVE",
"1079 1356 OFFCURVE",
"904 1356 QCURVE SMOOTH",
"662 1356 OFFCURVE",
"286 1153 OFFCURVE",
"74 768 OFFCURVE",
"74 524 QCURVE SMOOTH",
"74 282 OFFCURVE",
"406 -20 OFFCURVE",
"673 -20 QCURVE SMOOTH"
);
},
{
closed = 1;
nodes = (
"662 780 LINE",
"656 882 LINE",
"588 882 LINE",
"508 470 LINE",
"576 470 LINE",
"622 570 LINE",
"915 570 LINE",
"921 470 LINE",
"989 470 LINE",
"1069 882 LINE",
"1001 882 LINE",
"955 780 LINE"
);
}
);
width = 1563;
}
);
note = Theta;
unicode = 0398;
},
{
glyphname = Phi;
lastChange = "2019-12-20 15:51:09 +0000";
layers = (
{
layerId = "1E4AACC9-6A88-4B03-8BB8-E9E25DEE74AF";
paths = (
{
closed = 1;
nodes = (
"911 320 LINE",
"1026 1039 LINE",
"1058 1039 LINE SMOOTH",
"1170 1039 OFFCURVE",
"1303 872 OFFCURVE",
"1303 727 QCURVE SMOOTH",
"1303 535 OFFCURVE",
"1137 320 OFFCURVE",
"989 320 QCURVE SMOOTH"
);
},
{
closed = 1;
nodes = (
"754 1039 LINE",
"628 320 LINE",
"587 320 LINE SMOOTH",
"476 320 OFFCURVE",
"342 486 OFFCURVE",
"342 632 QCURVE SMOOTH",
"342 824 OFFCURVE",
"508 1039 OFFCURVE",
"656 1039 QCURVE SMOOTH"
);
},
{
closed = 1;
nodes = (
"590 100 LINE",
"411 73 LINE",
"399 0 LINE",
"1015 0 LINE",
"1027 73 LINE",
"862 100 LINE",
"882 222 LINE",
"1001 222 LINE SMOOTH",
"1274 222 OFFCURVE",
"1583 491 OFFCURVE",
"1583 726 QCURVE SMOOTH",
"1583 914 OFFCURVE",
"1326 1137 OFFCURVE",
"1106 1137 QCURVE SMOOTH",
"1045 1137 LINE",
"1062 1242 LINE",
"1240 1268 LINE",
"1253 1341 LINE",
"637 1341 LINE",
"624 1268 LINE",
"790 1242 LINE",
"773 1137 LINE",
"644 1137 LINE SMOOTH",
"372 1137 OFFCURVE",
"70 870 OFFCURVE",
"70 635 QCURVE SMOOTH",
"70 442 OFFCURVE",
"322 222 OFFCURVE",
"539 222 QCURVE SMOOTH",
"610 222 LINE"
);
}
);
width = 1616;
}
);
note = Phi;
unicode = 03A6;
},
{
glyphname = alpha;
lastChange = "2019-12-20 15:51:09 +0000";
layers = (
{
layerId = "1E4AACC9-6A88-4B03-8BB8-E9E25DEE74AF";
paths = (
{
closed = 1;
nodes = (
"960 80 LINE",
"916 138 OFFCURVE",
"873 332 OFFCURVE",
"858 475 QCURVE",
"947 619 OFFCURVE",
"1114 860 OFFCURVE",
"1151 900 QCURVE",
"1159 940 LINE",
"892 940 LINE",
"800 709 LINE",
"752 966 OFFCURVE",
"537 966 QCURVE SMOOTH",
"396 966 OFFCURVE",
"159 810 OFFCURVE",
"27 528 OFFCURVE",
"27 347 QCURVE SMOOTH",
"27 177 OFFCURVE",
"202 -21 OFFCURVE",
"351 -21 QCURVE SMOOTH",
"449 -21 OFFCURVE",
"605 89 OFFCURVE",
"678 204 QCURVE",
"690 87 OFFCURVE",
"721 0 QCURVE",
"1004 0 LINE",
"1017 65 LINE"
);
},
{
closed = 1;
nodes = (
"673 482 LINE",
"672 416 LINE",
"596 247 OFFCURVE",
"458 98 OFFCURVE",
"387 98 QCURVE SMOOTH",
"346 98 OFFCURVE",
"293 203 OFFCURVE",
"293 316 QCURVE SMOOTH",
"293 447 OFFCURVE",
"362 716 OFFCURVE",
"471 866 OFFCURVE",
"536 866 QCURVE SMOOTH",
"599 866 OFFCURVE",
"673 698 OFFCURVE",
"673 542 QCURVE SMOOTH"
);
}
);
width = 1133;
}
);
note = alpha;
unicode = 03B1;
},
{
glyphname = delta;
lastChange = "2019-12-20 15:51:09 +0000";
layers = (
{
layerId = "1E4AACC9-6A88-4B03-8BB8-E9E25DEE74AF";
paths = (
{
closed = 1;
nodes = (
"566 -20 OFFCURVE",
"813 112 OFFCURVE",
"954 354 OFFCURVE",
"954 494 QCURVE SMOOTH",
"954 609 OFFCURVE",
"867 806 OFFCURVE",
"777 901 QCURVE SMOOTH",
"663 1014 OFFCURVE",
"592 1132 OFFCURVE",
"592 1185 QCURVE SMOOTH",
"592 1259 OFFCURVE",
"667 1331 OFFCURVE",
"727 1331 QCURVE SMOOTH",
"768 1331 OFFCURVE",
"841 1307 OFFCURVE",
"861 1284 QCURVE",
"884 1170 LINE",
"951 1170 LINE",
"989 1393 LINE",
"851 1431 OFFCURVE",
"739 1431 QCURVE SMOOTH",
"549 1431 OFFCURVE",
"344 1293 OFFCURVE",
"344 1169 QCURVE SMOOTH",
"344 1026 OFFCURVE",
"490 870 QCURVE",
"262 803 OFFCURVE",
"32 536 OFFCURVE",
"32 353 QCURVE SMOOTH",
"32 180 OFFCURVE",
"231 -20 OFFCURVE",
"406 -20 QCURVE SMOOTH"
);
},
{
closed = 1;
nodes = (
"365 79 OFFCURVE",
"297 196 OFFCURVE",
"297 308 QCURVE SMOOTH",
"297 470 OFFCURVE",
"433 735 OFFCURVE",
"558 786 QCURVE",
"683 665 OFFCURVE",
"683 503 QCURVE SMOOTH",
"683 387 OFFCURVE",
"617 181 OFFCURVE",
"504 79 OFFCURVE",
"429 79 QCURVE SMOOTH"
);
}
);
width = 1049;
}
);
note = delta;
unicode = 03B4;
},
{
glyphname = epsilon;
lastChange = "2019-12-20 15:51:09 +0000";
layers = (
{
layerId = "1E4AACC9-6A88-4B03-8BB8-E9E25DEE74AF";
paths = (
{
closed = 1;
nodes = (
"362 965 OFFCURVE",
"144 830 OFFCURVE",
"144 711 QCURVE SMOOTH",
"144 646 OFFCURVE",
"221 539 OFFCURVE",
"289 513 QCURVE",
"287 506 LINE",
"167 487 OFFCURVE",
"24 343 OFFCURVE",
"24 239 QCURVE SMOOTH",
"24 116 OFFCURVE",
"199 -20 OFFCURVE",
"363 -20 QCURVE SMOOTH",
"466 -20 OFFCURVE",
"656 50 OFFCURVE",
"752 132 QCURVE",
"705 200 LINE",
"575 104 OFFCURVE",
"435 104 QCURVE SMOOTH",
"367 104 OFFCURVE",
"290 180 OFFCURVE",
"290 254 QCURVE SMOOTH",
"290 410 OFFCURVE",
"445 459 QCURVE",
"556 446 OFFCURVE",
"582 446 QCURVE SMOOTH",
"654 446 LINE",
"674 569 LINE",
"599 569 LINE SMOOTH",
"583 569 OFFCURVE",
"516 558 OFFCURVE",
"492 553 OFFCURVE",
"482 551 QCURVE",
"449 564 OFFCURVE",
"402 647 OFFCURVE",
"402 695 QCURVE SMOOTH",
"402 776 OFFCURVE",
"492 867 OFFCURVE",
"564 867 QCURVE SMOOTH",
"603 867 OFFCURVE",
"675 843 OFFCURVE",
"692 828 QCURVE",
"715 713 LINE",
"783 713 LINE",
"825 929 LINE",
"778 945 OFFCURVE",
"619 965 OFFCURVE",
"550 965 QCURVE SMOOTH"
);
}
);
width = 840;
}
);
note = epsilon;
unicode = 03B5;
},
{
glyphname = sigma;
lastChange = "2019-12-20 15:51:09 +0000";
layers = (
{
layerId = "1E4AACC9-6A88-4B03-8BB8-E9E25DEE74AF";
paths = (
{
closed = 1;
nodes = (
"400 79 OFFCURVE",
"324 231 OFFCURVE",
"324 359 QCURVE SMOOTH",
"324 505 OFFCURVE",
"412 719 OFFCURVE",
"571 836 OFFCURVE",
"672 836 QCURVE",
"720 740 OFFCURVE",
"720 575 QCURVE SMOOTH",
"720 380 OFFCURVE",
"573 79 OFFCURVE",
"466 79 QCURVE SMOOTH"
);
},
{
closed = 1;
nodes = (
"1091 836 LINE",
"1152 1076 LINE",
"1075 1076 LINE",
"989 940 LINE",
"632 940 LINE SMOOTH",
"363 940 OFFCURVE",
"59 646 OFFCURVE",
"59 389 QCURVE SMOOTH",
"59 197 OFFCURVE",
"263 -20 OFFCURVE",
"441 -20 QCURVE SMOOTH",
"590 -20 OFFCURVE",
"828 115 OFFCURVE",
"961 366 OFFCURVE",
"961 521 QCURVE SMOOTH",
"961 689 OFFCURVE",
"855 830 QCURVE",
"856 836 LINE"
);
}
);
width = 1104;
}
);
note = sigma;
unicode = 03C3;
},
{
glyphname = tau;
lastChange = "2019-12-20 15:51:09 +0000";
layers = (
{
layerId = "1E4AACC9-6A88-4B03-8BB8-E9E25DEE74AF";
paths = (
{
closed = 1;
nodes = (
"529 -20 OFFCURVE",
"678 37 OFFCURVE",
"732 85 QCURVE",
"699 139 LINE",
"645 104 OFFCURVE",
"600 104 QCURVE SMOOTH",
"570 104 OFFCURVE",
"536 145 OFFCURVE",
"536 183 QCURVE",
"541 235 LINE",
"647 836 LINE",
"943 836 LINE",
"961 940 LINE",
"101 940 LINE",
"42 703 LINE",
"115 703 LINE",
"200 836 LINE",
"377 836 LINE",
"270 227 LINE SMOOTH",
"263 183 OFFCURVE",
"263 156 QCURVE SMOOTH",
"263 -20 OFFCURVE",
"455 -20 QCURVE SMOOTH"
);
}
);
width = 909;
}
);
note = tau;
unicode = 03C4;
},
{
glyphname = phi;
lastChange = "2019-12-20 15:51:09 +0000";
layers = (
{
layerId = "1E4AACC9-6A88-4B03-8BB8-E9E25DEE74AF";
paths = (
{
closed = 1;
nodes = (
"711 966 OFFCURVE",
"567 826 OFFCURVE",
"539 670 QCURVE SMOOTH",
"433 78 LINE",
"363 91 OFFCURVE",
"283 224 OFFCURVE",
"283 349 QCURVE SMOOTH",
"283 435 OFFCURVE",
"333 696 OFFCURVE",
"421 838 OFFCURVE",
"498 872 QCURVE",
"476 954 LINE",
"335 935 OFFCURVE",
"133 777 OFFCURVE",
"33 528 OFFCURVE",
"33 375 QCURVE SMOOTH",
"33 201 OFFCURVE",
"235 -2 OFFCURVE",
"418 -16 QCURVE",
"344 -436 LINE",
"480 -436 LINE",
"554 -17 LINE",
"839 -1 OFFCURVE",
"1127 325 OFFCURVE",
"1127 630 QCURVE SMOOTH",
"1127 790 OFFCURVE",
"976 966 OFFCURVE",
"833 966 QCURVE SMOOTH"
);
},
{
closed = 1;
nodes = (
"880 861 OFFCURVE",
"880 683 QCURVE SMOOTH",
"880 542 OFFCURVE",
"815 240 OFFCURVE",
"680 87 OFFCURVE",
"569 78 QCURVE",
"675 670 LINE SMOOTH",
"692 765 OFFCURVE",
"747 861 OFFCURVE",
"798 861 QCURVE SMOOTH"
);
}
);
width = 1198;
}
);
note = phi;
unicode = 03C6;
},
{
glyphname = uni207F;
lastChange = "2019-12-20 15:51:09 +0000";
layers = (
{
layerId = "1E4AACC9-6A88-4B03-8BB8-E9E25DEE74AF";
paths = (
{
closed = 1;
nodes = (
"513 945 OFFCURVE",
"500 877 QCURVE SMOOTH",
"438 535 LINE",
"685 535 LINE",
"693 575 LINE",
"623 589 LINE",
"683 928 OFFCURVE",
"690 978 OFFCURVE",
"690 988 QCURVE SMOOTH",
"690 1054 OFFCURVE",
"616 1114 OFFCURVE",
"559 1114 QCURVE SMOOTH",
"424 1114 OFFCURVE",
"328 994 QCURVE",
"333 1099 LINE",
"118 1099 LINE",
"110 1060 LINE",
"163 1045 LINE",
"75 535 LINE",
"249 535 LINE",
"313 892 LINE",
"334 943 OFFCURVE",
"425 1028 OFFCURVE",
"461 1028 QCURVE SMOOTH",
"513 1028 OFFCURVE",
"513 970 QCURVE SMOOTH"
);
}
);
width = 712;
}
);
note = uni207F;
unicode = 207F;
},
{
glyphname = peseta;
lastChange = "2019-12-20 15:51:09 +0000";
layers = (
{
layerId = "1E4AACC9-6A88-4B03-8BB8-E9E25DEE74AF";
paths = (
{
closed = 1;
nodes = (
"1529 710 OFFCURVE",
"1363 584 OFFCURVE",
"1363 471 QCURVE SMOOTH",
"1363 335 OFFCURVE",
"1537 274 QCURVE SMOOTH",
"1610 247 OFFCURVE",
"1653 222 OFFCURVE",
"1677 191 OFFCURVE",
"1677 170 QCURVE SMOOTH",
"1677 121 OFFCURVE",
"1607 73 OFFCURVE",
"1551 73 QCURVE SMOOTH",
"1500 73 OFFCURVE",
"1433 114 OFFCURVE",
"1410 160 QCURVE",
"1391 237 LINE",
"1325 237 LINE",
"1300 99 LINE",
"1246 84 OFFCURVE",
"1202 84 QCURVE SMOOTH",
"1179 84 OFFCURVE",
"1151 112 OFFCURVE",
"1151 153 QCURVE SMOOTH",
"1151 177 OFFCURVE",
"1157 215 QCURVE SMOOTH",
"1222 586 LINE",
"1360 586 LINE",
"1377 680 LINE",
"1239 680 LINE",
"1276 893 LINE",
"1170 893 LINE",
"1011 674 LINE",
"924 663 LINE",
"987 732 OFFCURVE",
"1057 924 OFFCURVE",
"1057 1019 QCURVE SMOOTH",
"1057 1185 OFFCURVE",
"826 1341 OFFCURVE",
"584 1341 QCURVE SMOOTH",
"169 1341 LINE",
"157 1268 LINE",
"254 1242 LINE",
"53 100 LINE",
"-40 73 LINE",
"-53 0 LINE",
"444 0 LINE",
"457 73 LINE",
"339 100 LINE",
"414 526 LINE",
"526 526 LINE SMOOTH",
"746 526 OFFCURVE",
"879 625 QCURVE",
"872 586 LINE",
"973 586 LINE",
"908 217 LINE SMOOTH",
"901 170 OFFCURVE",
"901 143 QCURVE SMOOTH",
"901 58 OFFCURVE",
"1003 -20 OFFCURVE",
"1104 -20 QCURVE SMOOTH",
"1219 -20 OFFCURVE",
"1299 30 QCURVE",
"1338 9 OFFCURVE",
"1480 -20 OFFCURVE",
"1547 -20 QCURVE SMOOTH",
"1714 -20 OFFCURVE",
"1892 105 OFFCURVE",
"1892 229 QCURVE SMOOTH",
"1892 275 OFFCURVE",
"1851 348 OFFCURVE",
"1775 403 OFFCURVE",
"1665 446 QCURVE SMOOTH",
"1573 480 OFFCURVE",
"1573 531 QCURVE SMOOTH",
"1573 571 OFFCURVE",
"1634 616 OFFCURVE",
"1682 616 QCURVE SMOOTH",
"1717 616 OFFCURVE",
"1781 582 OFFCURVE",
"1794 556 QCURVE",
"1812 476 LINE",
"1878 476 LINE",
"1914 681 LINE",
"1792 710 OFFCURVE",
"1689 710 QCURVE SMOOTH"
);
},
{
closed = 1;
nodes = (
"538 1231 LINE",
"574 1231 LINE SMOOTH",
"669 1231 OFFCURVE",
"768 1110 OFFCURVE",
"768 1003 QCURVE SMOOTH",
"768 812 OFFCURVE",
"617 636 OFFCURVE",
"464 636 QCURVE SMOOTH",
"433 636 LINE"
);
}
);
width = 1984;
}
);
note = peseta;
unicode = 20A7;
},
{
glyphname = arrowleft;
lastChange = "2019-12-20 15:51:09 +0000";
layers = (
{
layerId = "1E4AACC9-6A88-4B03-8BB8-E9E25DEE74AF";
paths = (
{
closed = 1;
nodes = (
"1630 427 LINE",
"1630 513 LINE",
"641 513 LINE",
"698 580 OFFCURVE",
"760 710 QCURVE",
"688 710 LINE",
"561 561 OFFCURVE",
"418 488 QCURVE",
"418 452 LINE",
"561 379 OFFCURVE",
"688 230 QCURVE",
"760 230 LINE",
"698 360 OFFCURVE",
"641 427 QCURVE"
);
}
);
width = 2048;
}
);
note = arrowleft;
unicode = 2190;
},
{
glyphname = arrowup;
lastChange = "2019-12-20 15:51:09 +0000";
layers = (
{
layerId = "1E4AACC9-6A88-4B03-8BB8-E9E25DEE74AF";
paths = (
{
closed = 1;
nodes = (
"469 -61 LINE",
"555 -61 LINE",
"555 928 LINE",
"622 871 OFFCURVE",
"752 809 QCURVE",
"752 881 LINE",
"603 1008 OFFCURVE",
"530 1151 QCURVE",
"494 1151 LINE",
"421 1008 OFFCURVE",
"272 881 QCURVE",
"272 809 LINE",
"402 871 OFFCURVE",
"469 928 QCURVE"
);
}
);
width = 1024;
}
);
note = arrowup;
unicode = 2191;
},
{
glyphname = arrowright;
lastChange = "2019-12-20 15:51:09 +0000";
layers = (
{
layerId = "1E4AACC9-6A88-4B03-8BB8-E9E25DEE74AF";
paths = (
{
closed = 1;
nodes = (
"418 513 LINE",
"418 427 LINE",
"1407 427 LINE",
"1350 360 OFFCURVE",
"1288 230 QCURVE",
"1360 230 LINE",
"1487 379 OFFCURVE",
"1630 452 QCURVE",
"1630 488 LINE",
"1487 561 OFFCURVE",
"1360 710 QCURVE",
"1288 710 LINE",
"1350 580 OFFCURVE",
"1407 513 QCURVE"
);
}
);
width = 2048;
}
);
note = arrowright;
unicode = 2192;
},
{
glyphname = arrowdown;
lastChange = "2019-12-20 15:51:09 +0000";
layers = (
{
layerId = "1E4AACC9-6A88-4B03-8BB8-E9E25DEE74AF";
paths = (
{
closed = 1;
nodes = (
"555 1151 LINE",
"469 1151 LINE",
"469 162 LINE",
"402 219 OFFCURVE",
"272 281 QCURVE",
"272 209 LINE",
"421 82 OFFCURVE",
"494 -61 QCURVE",
"530 -61 LINE",
"603 82 OFFCURVE",
"752 209 QCURVE",
"752 281 LINE",
"622 219 OFFCURVE",
"555 162 QCURVE"
);
}
);
width = 1024;
}
);
note = arrowdown;
unicode = 2193;
},
{
glyphname = arrowboth;
lastChange = "2019-12-20 15:51:09 +0000";
layers = (
{
layerId = "1E4AACC9-6A88-4B03-8BB8-E9E25DEE74AF";
paths = (
{
closed = 1;
nodes = (
"1407 427 LINE",
"1350 360 OFFCURVE",
"1288 230 QCURVE",
"1360 230 LINE",
"1487 379 OFFCURVE",
"1630 452 QCURVE",
"1630 488 LINE",
"1487 561 OFFCURVE",
"1360 710 QCURVE",
"1288 710 LINE",
"1350 580 OFFCURVE",
"1407 513 QCURVE",
"641 513 LINE",
"698 580 OFFCURVE",
"760 710 QCURVE",
"688 710 LINE",
"561 561 OFFCURVE",
"418 488 QCURVE",
"418 452 LINE",
"561 379 OFFCURVE",
"688 230 QCURVE",
"760 230 LINE",
"698 360 OFFCURVE",
"641 427 QCURVE"
);
}
);
width = 2048;
}
);
note = arrowboth;
unicode = 2194;
},
{
glyphname = arrowupdn;
lastChange = "2019-12-20 15:51:09 +0000";
layers = (
{
layerId = "1E4AACC9-6A88-4B03-8BB8-E9E25DEE74AF";
paths = (
{
closed = 1;
nodes = (
"469 162 LINE",
"402 219 OFFCURVE",
"272 281 QCURVE",
"272 209 LINE",
"421 82 OFFCURVE",
"494 -61 QCURVE",
"530 -61 LINE",
"603 82 OFFCURVE",
"752 209 QCURVE",
"752 281 LINE",
"622 219 OFFCURVE",
"555 162 QCURVE",
"555 928 LINE",
"622 871 OFFCURVE",
"752 809 QCURVE",
"752 881 LINE",
"603 1008 OFFCURVE",
"530 1151 QCURVE",
"494 1151 LINE",
"421 1008 OFFCURVE",
"272 881 QCURVE",
"272 809 LINE",
"402 871 OFFCURVE",
"469 928 QCURVE"
);
}
);
width = 1024;
}
);
note = arrowupdn;
unicode = 2195;
},
{
glyphname = arrowupdnbse;
lastChange = "2019-12-20 15:51:09 +0000";
layers = (
{
layerId = "1E4AACC9-6A88-4B03-8BB8-E9E25DEE74AF";
paths = (
{
closed = 1;
nodes = (
"272 -184 LINE",
"752 -184 LINE",
"752 -104 LINE",
"272 -104 LINE"
);
},
{
closed = 1;
nodes = (
"469 162 LINE",
"402 219 OFFCURVE",
"272 281 QCURVE",
"272 209 LINE",
"421 82 OFFCURVE",
"494 -61 QCURVE",
"530 -61 LINE",
"603 82 OFFCURVE",
"752 209 QCURVE",
"752 281 LINE",
"622 219 OFFCURVE",
"555 162 QCURVE",
"555 928 LINE",
"622 871 OFFCURVE",
"752 809 QCURVE",
"752 881 LINE",
"603 1008 OFFCURVE",
"530 1151 QCURVE",
"494 1151 LINE",
"421 1008 OFFCURVE",
"272 881 QCURVE",
"272 809 LINE",
"402 871 OFFCURVE",
"469 928 QCURVE"
);
}
);
width = 1024;
}
);
note = arrowupdnbse;
unicode = 21A8;
},
{
glyphname = orthogonal;
lastChange = "2019-12-20 15:51:09 +0000";
layers = (
{
layerId = "1E4AACC9-6A88-4B03-8BB8-E9E25DEE74AF";
paths = (
{
closed = 1;
nodes = (
"408 0 LINE",
"1632 0 LINE",
"1632 94 LINE",
"502 94 LINE",
"502 1223 LINE",
"408 1223 LINE"
);
}
);
width = 2005;
}
);
note = orthogonal;
unicode = 221F;
},
{
glyphname = intersection;
lastChange = "2019-12-20 15:51:09 +0000";
layers = (
{
layerId = "1E4AACC9-6A88-4B03-8BB8-E9E25DEE74AF";
paths = (
{
closed = 1;
nodes = (
"381 -2 LINE",
"381 510 LINE SMOOTH",
"381 704 OFFCURVE",
"573 930 OFFCURVE",
"735 930 QCURVE SMOOTH",
"895 930 OFFCURVE",
"1091 702 OFFCURVE",
"1091 512 QCURVE SMOOTH",
"1091 -2 LINE",
"1194 -2 LINE",
"1194 510 LINE SMOOTH",
"1194 658 OFFCURVE",
"1075 900 OFFCURVE",
"864 1032 OFFCURVE",
"733 1032 QCURVE SMOOTH",
"603 1032 OFFCURVE",
"394 899 OFFCURVE",
"278 660 OFFCURVE",
"278 510 QCURVE SMOOTH",
"278 -2 LINE"
);
}
);
width = 1472;
}
);
note = intersection;
unicode = 2229;
},
{
glyphname = equivalence;
lastChange = "2019-12-20 15:51:09 +0000";
layers = (
{
layerId = "1E4AACC9-6A88-4B03-8BB8-E9E25DEE74AF";
paths = (
{
closed = 1;
nodes = (
"102 406 LINE",
"102 263 LINE",
"1054 263 LINE",
"1054 406 LINE"
);
},
{
closed = 1;
nodes = (
"102 1096 LINE",
"102 953 LINE",
"1054 953 LINE",
"1054 1096 LINE"
);
},
{
closed = 1;
nodes = (
"102 751 LINE",
"102 608 LINE",
"1054 608 LINE",
"1054 751 LINE"
);
}
);
width = 1167;
}
);
note = equivalence;
unicode = 2261;
},
{
glyphname = house;
lastChange = "2019-12-20 15:51:09 +0000";
layers = (
{
layerId = "1E4AACC9-6A88-4B03-8BB8-E9E25DEE74AF";
paths = (
{
closed = 1;
nodes = (
"1075 0 LINE",
"1075 635 LINE",
"614 1153 LINE",
"153 635 LINE",
"153 0 LINE"
);
},
{
closed = 1;
nodes = (
"233 600 LINE",
"614 1026 LINE",
"995 600 LINE",
"995 82 LINE",
"233 82 LINE"
);
}
);
width = 1229;
}
);
note = house;
unicode = 2302;
},
{
glyphname = revlogicalnot;
lastChange = "2019-12-20 15:51:09 +0000";
layers = (
{
layerId = "1E4AACC9-6A88-4B03-8BB8-E9E25DEE74AF";
paths = (
{
closed = 1;
nodes = (
"102 752 LINE",
"102 203 LINE",
"244 203 LINE",
"244 608 LINE",
"1055 608 LINE",
"1055 752 LINE"
);
}
);
width = 1167;
}
);
note = revlogicalnot;
unicode = 2310;
},
{
glyphname = integraltp;
lastChange = "2019-12-20 15:51:09 +0000";
layers = (
{
layerId = "1E4AACC9-6A88-4B03-8BB8-E9E25DEE74AF";
paths = (
{
closed = 1;
nodes = (
"693 1423 LINE SMOOTH",
"693 1528 OFFCURVE",
"699 1563 QCURVE SMOOTH",
"708 1602 OFFCURVE",
"744 1602 QCURVE SMOOTH",
"760 1602 OFFCURVE",
"793 1563 QCURVE SMOOTH",
"831 1521 OFFCURVE",
"847 1513 QCURVE",
"860 1503 OFFCURVE",
"890 1503 QCURVE SMOOTH",
"927 1503 OFFCURVE",
"978 1555 OFFCURVE",
"978 1595 QCURVE SMOOTH",
"978 1643 OFFCURVE",
"903 1706 OFFCURVE",
"840 1706 QCURVE SMOOTH",
"714 1706 OFFCURVE",
"546 1460 OFFCURVE",
"546 1264 QCURVE SMOOTH",
"546 -614 LINE",
"693 -614 LINE"
);
}
);
width = 1237;
}
);
note = integraltp;
unicode = 2320;
},
{
glyphname = integralbt;
lastChange = "2019-12-20 15:51:09 +0000";
layers = (
{
layerId = "1E4AACC9-6A88-4B03-8BB8-E9E25DEE74AF";
paths = (
{
closed = 1;
nodes = (
"546 -334 LINE SMOOTH",
"546 -461 OFFCURVE",
"523 -512 OFFCURVE",
"494 -512 QCURVE SMOOTH",
"478 -512 OFFCURVE",
"447 -475 QCURVE SMOOTH",
"416 -434 OFFCURVE",
"406 -430 QCURVE",
"380 -414 OFFCURVE",
"347 -414 QCURVE SMOOTH",
"311 -414 OFFCURVE",
"261 -467 OFFCURVE",
"261 -506 QCURVE SMOOTH",
"261 -553 OFFCURVE",
"339 -614 OFFCURVE",
"398 -614 QCURVE SMOOTH",
"530 -614 OFFCURVE",
"693 -369 OFFCURVE",
"693 -174 QCURVE SMOOTH",
"693 1706 LINE",
"546 1706 LINE"
);
}
);
width = 1237;
}
);
note = integralbt;
unicode = 2321;
},
{
glyphname = uni2500;
lastChange = "2019-12-20 15:51:09 +0000";
layers = (
{
layerId = "1E4AACC9-6A88-4B03-8BB8-E9E25DEE74AF";
paths = (
{
closed = 1;
nodes = (
"1461 549 LINE",
"1461 694 LINE",
"-10 694 LINE",
"-10 549 LINE"
);
}
);
width = 1451;
}
);
note = uni2500;
unicode = 2500;
},
{
glyphname = uni2502;
lastChange = "2019-12-20 15:51:09 +0000";
layers = (
{
layerId = "1E4AACC9-6A88-4B03-8BB8-E9E25DEE74AF";
paths = (
{
closed = 1;
nodes = (
"448 -621 LINE",
"593 -621 LINE",
"593 1864 LINE",
"448 1864 LINE"
);
}
);
width = 1261;
}
);
note = uni2502;
unicode = 2502;
},
{
glyphname = uni250C;
lastChange = "2019-12-20 15:51:09 +0000";
layers = (
{
layerId = "1E4AACC9-6A88-4B03-8BB8-E9E25DEE74AF";
paths = (
{
closed = 1;
nodes = (
"653 -621 LINE",
"798 -621 LINE",
"798 549 LINE",
"1461 549 LINE",
"1461 694 LINE",
"653 694 LINE"
);
}
);
width = 1451;
}
);
note = uni250C;
unicode = 250C;
},
{
glyphname = uni2510;
lastChange = "2019-12-20 15:51:09 +0000";
layers = (
{
layerId = "1E4AACC9-6A88-4B03-8BB8-E9E25DEE74AF";
paths = (
{
closed = 1;
nodes = (
"653 549 LINE",
"653 -621 LINE",
"798 -621 LINE",
"798 694 LINE",
"-10 694 LINE",
"-10 549 LINE"
);
}
);
width = 1451;
}
);
note = uni2510;
unicode = 2510;
},
{
glyphname = uni2514;
lastChange = "2019-12-20 15:51:09 +0000";
layers = (
{
layerId = "1E4AACC9-6A88-4B03-8BB8-E9E25DEE74AF";
paths = (
{
closed = 1;
nodes = (
"653 549 LINE",
"1461 549 LINE",
"1461 694 LINE",
"798 694 LINE",
"798 1864 LINE",
"653 1864 LINE"
);
}
);
width = 1451;
}
);
note = uni2514;
unicode = 2514;
},
{
glyphname = uni2518;
lastChange = "2019-12-20 15:51:09 +0000";
layers = (
{
layerId = "1E4AACC9-6A88-4B03-8BB8-E9E25DEE74AF";
paths = (
{
closed = 1;
nodes = (
"798 549 LINE",
"798 1864 LINE",
"653 1864 LINE",
"653 694 LINE",
"-10 694 LINE",
"-10 549 LINE"
);
}
);
width = 1451;
}
);
note = uni2518;
unicode = 2518;
},
{
glyphname = uni251C;
lastChange = "2019-12-20 15:51:09 +0000";
layers = (
{
layerId = "1E4AACC9-6A88-4B03-8BB8-E9E25DEE74AF";
paths = (
{
closed = 1;
nodes = (
"653 -621 LINE",
"798 -621 LINE",
"798 549 LINE",
"1461 549 LINE",
"1461 694 LINE",
"798 694 LINE",
"798 1864 LINE",
"653 1864 LINE"
);
}
);
width = 1451;
}
);
note = uni251C;
unicode = 251C;
},
{
glyphname = uni2524;
lastChange = "2019-12-20 15:51:09 +0000";
layers = (
{
layerId = "1E4AACC9-6A88-4B03-8BB8-E9E25DEE74AF";
paths = (
{
closed = 1;
nodes = (
"653 549 LINE",
"653 -621 LINE",
"798 -621 LINE",
"798 1864 LINE",
"653 1864 LINE",
"653 694 LINE",
"-10 694 LINE",
"-10 549 LINE"
);
}
);
width = 1451;
}
);
note = uni2524;
unicode = 2524;
},
{
glyphname = uni252C;
lastChange = "2019-12-20 15:51:09 +0000";
layers = (
{
layerId = "1E4AACC9-6A88-4B03-8BB8-E9E25DEE74AF";
paths = (
{
closed = 1;
nodes = (
"653 549 LINE",
"653 -621 LINE",
"798 -621 LINE",
"798 549 LINE",
"1461 549 LINE",
"1461 694 LINE",
"-10 694 LINE",
"-10 549 LINE"
);
}
);
width = 1451;
}
);
note = uni252C;
unicode = 252C;
},
{
glyphname = uni2534;
lastChange = "2019-12-20 15:51:09 +0000";
layers = (
{
layerId = "1E4AACC9-6A88-4B03-8BB8-E9E25DEE74AF";
paths = (
{
closed = 1;
nodes = (
"1461 549 LINE",
"1461 694 LINE",
"798 694 LINE",
"798 1864 LINE",
"653 1864 LINE",
"653 694 LINE",
"-10 694 LINE",
"-10 549 LINE"
);
}
);
width = 1451;
}
);
note = uni2534;
unicode = 2534;
},
{
glyphname = uni253C;
lastChange = "2019-12-20 15:51:09 +0000";
layers = (
{
layerId = "1E4AACC9-6A88-4B03-8BB8-E9E25DEE74AF";
paths = (
{
closed = 1;
nodes = (
"653 549 LINE",
"653 -621 LINE",
"798 -621 LINE",
"798 549 LINE",
"1461 549 LINE",
"1461 694 LINE",
"798 694 LINE",
"798 1864 LINE",
"653 1864 LINE",
"653 694 LINE",
"-10 694 LINE",
"-10 549 LINE"
);
}
);
width = 1451;
}
);
note = uni253C;
unicode = 253C;
},
{
glyphname = uni2550;
lastChange = "2019-12-20 15:51:09 +0000";
layers = (
{
layerId = "1E4AACC9-6A88-4B03-8BB8-E9E25DEE74AF";
paths = (
{
closed = 1;
nodes = (
"1461 729 LINE",
"1461 874 LINE",
"-10 874 LINE",
"-10 729 LINE"
);
},
{
closed = 1;
nodes = (
"1461 369 LINE",
"1461 514 LINE",
"-10 514 LINE",
"-10 369 LINE"
);
}
);
width = 1451;
}
);
note = uni2550;
unicode = 2550;
},
{
glyphname = uni2551;
lastChange = "2019-12-20 15:51:09 +0000";
layers = (
{
layerId = "1E4AACC9-6A88-4B03-8BB8-E9E25DEE74AF";
paths = (
{
closed = 1;
nodes = (
"473 -621 LINE",
"618 -621 LINE",
"618 1864 LINE",
"473 1864 LINE"
);
},
{
closed = 1;
nodes = (
"833 -621 LINE",
"978 -621 LINE",
"978 1864 LINE",
"833 1864 LINE"
);
}
);
width = 1451;
}
);
note = uni2551;
unicode = 2551;
},
{
glyphname = uni2552;
lastChange = "2019-12-20 15:51:09 +0000";
layers = (
{
layerId = "1E4AACC9-6A88-4B03-8BB8-E9E25DEE74AF";
paths = (
{
closed = 1;
nodes = (
"653 -621 LINE",
"798 -621 LINE",
"798 369 LINE",
"1461 369 LINE",
"1461 514 LINE",
"798 514 LINE",
"798 729 LINE",
"1461 729 LINE",
"1461 874 LINE",
"653 874 LINE"
);
}
);
width = 1451;
}
);
note = uni2552;
unicode = 2552;
},
{
glyphname = uni2553;
lastChange = "2019-12-20 15:51:09 +0000";
layers = (
{
layerId = "1E4AACC9-6A88-4B03-8BB8-E9E25DEE74AF";
paths = (
{
closed = 1;
nodes = (
"473 694 LINE",
"473 -621 LINE",
"618 -621 LINE",
"618 549 LINE",
"833 549 LINE",
"833 -621 LINE",
"978 -621 LINE",
"978 549 LINE",
"1461 549 LINE",
"1461 694 LINE"
);
}
);
width = 1451;
}
);
note = uni2553;
unicode = 2553;
},
{
glyphname = uni2554;
lastChange = "2019-12-20 15:51:09 +0000";
layers = (
{
layerId = "1E4AACC9-6A88-4B03-8BB8-E9E25DEE74AF";
paths = (
{
closed = 1;
nodes = (
"473 -621 LINE",
"618 -621 LINE",
"618 729 LINE",
"1461 729 LINE",
"1461 874 LINE",
"473 874 LINE"
);
},
{
closed = 1;
nodes = (
"833 -621 LINE",
"978 -621 LINE",
"978 369 LINE",
"1461 369 LINE",
"1461 514 LINE",
"833 514 LINE"
);
}
);
width = 1451;
}
);
note = uni2554;
unicode = 2554;
},
{
glyphname = uni2555;
lastChange = "2019-12-20 15:51:09 +0000";
layers = (
{
layerId = "1E4AACC9-6A88-4B03-8BB8-E9E25DEE74AF";
paths = (
{
closed = 1;
nodes = (
"653 369 LINE",
"653 -621 LINE",
"798 -621 LINE",
"798 874 LINE",
"-10 874 LINE",
"-10 729 LINE",
"653 729 LINE",
"653 514 LINE",
"-10 514 LINE",
"-10 369 LINE"
);
}
);
width = 1451;
}
);
note = uni2555;
unicode = 2555;
},
{
glyphname = uni2556;
lastChange = "2019-12-20 15:51:09 +0000";
layers = (
{
layerId = "1E4AACC9-6A88-4B03-8BB8-E9E25DEE74AF";
paths = (
{
closed = 1;
nodes = (
"473 549 LINE",
"473 -621 LINE",
"618 -621 LINE",
"618 549 LINE",
"833 549 LINE",
"833 -621 LINE",
"978 -621 LINE",
"978 694 LINE",
"-10 694 LINE",
"-10 549 LINE"
);
}
);
width = 1451;
}
);
note = uni2556;
unicode = 2556;
},
{
glyphname = uni2557;
lastChange = "2019-12-20 15:51:09 +0000";
layers = (
{
layerId = "1E4AACC9-6A88-4B03-8BB8-E9E25DEE74AF";
paths = (
{
closed = 1;
nodes = (
"-10 874 LINE",
"-10 729 LINE",
"833 729 LINE",
"833 -621 LINE",
"978 -621 LINE",
"978 874 LINE"
);
},
{
closed = 1;
nodes = (
"618 514 LINE",
"-10 514 LINE",
"-10 369 LINE",
"473 369 LINE",
"473 -621 LINE",
"618 -621 LINE"
);
}
);
width = 1451;
}
);
note = uni2557;
unicode = 2557;
},
{
glyphname = uni2558;
lastChange = "2019-12-20 15:51:09 +0000";
layers = (
{
layerId = "1E4AACC9-6A88-4B03-8BB8-E9E25DEE74AF";
paths = (
{
closed = 1;
nodes = (
"653 369 LINE",
"1461 369 LINE",
"1461 514 LINE",
"798 514 LINE",
"798 729 LINE",
"1461 729 LINE",
"1461 874 LINE",
"798 874 LINE",
"798 1864 LINE",
"653 1864 LINE"
);
}
);
width = 1451;
}
);
note = uni2558;
unicode = 2558;
},
{
glyphname = uni2559;
lastChange = "2019-12-20 15:51:09 +0000";
layers = (
{
layerId = "1E4AACC9-6A88-4B03-8BB8-E9E25DEE74AF";
paths = (
{
closed = 1;
nodes = (
"833 694 LINE",
"618 694 LINE",
"618 1864 LINE",
"473 1864 LINE",
"473 549 LINE",
"1461 549 LINE",
"1461 694 LINE",
"978 694 LINE",
"978 1864 LINE",
"833 1864 LINE"
);
}
);
width = 1451;
}
);
note = uni2559;
unicode = 2559;
},
{
glyphname = uni255A;
lastChange = "2019-12-20 15:51:09 +0000";
layers = (
{
layerId = "1E4AACC9-6A88-4B03-8BB8-E9E25DEE74AF";
paths = (
{
closed = 1;
nodes = (
"473 369 LINE",
"1461 369 LINE",
"1461 514 LINE",
"618 514 LINE",
"618 1864 LINE",
"473 1864 LINE"
);
},
{
closed = 1;
nodes = (
"833 729 LINE",
"1461 729 LINE",
"1461 874 LINE",
"978 874 LINE",
"978 1864 LINE",
"833 1864 LINE"
);
}
);
width = 1451;
}
);
note = uni255A;
unicode = 255A;
},
{
glyphname = uni255B;
lastChange = "2019-12-20 15:51:09 +0000";
layers = (
{
layerId = "1E4AACC9-6A88-4B03-8BB8-E9E25DEE74AF";
paths = (
{
closed = 1;
nodes = (
"798 369 LINE",
"798 1864 LINE",
"653 1864 LINE",
"653 874 LINE",
"-10 874 LINE",
"-10 729 LINE",
"653 729 LINE",
"653 514 LINE",
"-10 514 LINE",
"-10 369 LINE"
);
}
);
width = 1451;
}
);
note = uni255B;
unicode = 255B;
},
{
glyphname = uni255C;
lastChange = "2019-12-20 15:51:09 +0000";
layers = (
{
layerId = "1E4AACC9-6A88-4B03-8BB8-E9E25DEE74AF";
paths = (
{
closed = 1;
nodes = (
"978 1864 LINE",
"833 1864 LINE",
"833 694 LINE",
"618 694 LINE",
"618 1864 LINE",
"473 1864 LINE",
"473 694 LINE",
"-10 694 LINE",
"-10 549 LINE",
"978 549 LINE"
);
}
);
width = 1451;
}
);
note = uni255C;
unicode = 255C;
},
{
glyphname = uni255D;
lastChange = "2019-12-20 15:51:09 +0000";
layers = (
{
layerId = "1E4AACC9-6A88-4B03-8BB8-E9E25DEE74AF";
paths = (
{
closed = 1;
nodes = (
"978 1864 LINE",
"833 1864 LINE",
"833 514 LINE",
"-10 514 LINE",
"-10 369 LINE",
"978 369 LINE"
);
},
{
closed = 1;
nodes = (
"473 874 LINE",
"-10 874 LINE",
"-10 729 LINE",
"618 729 LINE",
"618 1864 LINE",
"473 1864 LINE"
);
}
);
width = 1451;
}
);
note = uni255D;
unicode = 255D;
},
{
glyphname = uni255E;
lastChange = "2019-12-20 15:51:09 +0000";
layers = (
{
layerId = "1E4AACC9-6A88-4B03-8BB8-E9E25DEE74AF";
paths = (
{
closed = 1;
nodes = (
"653 -621 LINE",
"798 -621 LINE",
"798 369 LINE",
"1461 369 LINE",
"1461 514 LINE",
"798 514 LINE",
"798 729 LINE",
"1461 729 LINE",
"1461 874 LINE",
"798 874 LINE",
"798 1864 LINE",
"653 1864 LINE"
);
}
);
width = 1451;
}
);
note = uni255E;
unicode = 255E;
},
{
glyphname = uni255F;
lastChange = "2019-12-20 15:51:09 +0000";
layers = (
{
layerId = "1E4AACC9-6A88-4B03-8BB8-E9E25DEE74AF";
paths = (
{
closed = 1;
nodes = (
"833 -621 LINE",
"978 -621 LINE",
"978 549 LINE",
"1461 549 LINE",
"1461 694 LINE",
"978 694 LINE",
"978 1864 LINE",
"833 1864 LINE"
);
},
{
closed = 1;
nodes = (
"473 -621 LINE",
"618 -621 LINE",
"618 1864 LINE",
"473 1864 LINE"
);
}
);
width = 1451;
}
);
note = uni255F;
unicode = 255F;
},
{
glyphname = uni2560;
lastChange = "2019-12-20 15:51:09 +0000";
layers = (
{
layerId = "1E4AACC9-6A88-4B03-8BB8-E9E25DEE74AF";
paths = (
{
closed = 1;
nodes = (
"618 1864 LINE",
"473 1864 LINE",
"473 -621 LINE",
"618 -621 LINE"
);
},
{
closed = 1;
nodes = (
"833 -621 LINE",
"978 -621 LINE",
"978 369 LINE",
"1461 369 LINE",
"1461 514 LINE",
"833 514 LINE"
);
},
{
closed = 1;
nodes = (
"833 729 LINE",
"1461 729 LINE",
"1461 874 LINE",
"978 874 LINE",
"978 1864 LINE",
"833 1864 LINE"
);
}
);
width = 1451;
}
);
note = uni2560;
unicode = 2560;
},
{
glyphname = uni2561;
lastChange = "2019-12-20 15:51:09 +0000";
layers = (
{
layerId = "1E4AACC9-6A88-4B03-8BB8-E9E25DEE74AF";
paths = (
{
closed = 1;
nodes = (
"653 369 LINE",
"653 -621 LINE",
"798 -621 LINE",
"798 1864 LINE",
"653 1864 LINE",
"653 874 LINE",
"-10 874 LINE",
"-10 729 LINE",
"653 729 LINE",
"653 514 LINE",
"-10 514 LINE",
"-10 369 LINE"
);
}
);
width = 1451;
}
);
note = uni2561;
unicode = 2561;
},
{
glyphname = uni2562;
lastChange = "2019-12-20 15:51:09 +0000";
layers = (
{
layerId = "1E4AACC9-6A88-4B03-8BB8-E9E25DEE74AF";
paths = (
{
closed = 1;
nodes = (
"473 549 LINE",
"473 -621 LINE",
"618 -621 LINE",
"618 1864 LINE",
"473 1864 LINE",
"473 694 LINE",
"-10 694 LINE",
"-10 549 LINE"
);
},
{
closed = 1;
nodes = (
"833 -621 LINE",
"978 -621 LINE",
"978 1864 LINE",
"833 1864 LINE"
);
}
);
width = 1451;
}
);
note = uni2562;
unicode = 2562;
},
{
glyphname = uni2563;
lastChange = "2019-12-20 15:51:09 +0000";
layers = (
{
layerId = "1E4AACC9-6A88-4B03-8BB8-E9E25DEE74AF";
paths = (
{
closed = 1;
nodes = (
"833 -621 LINE",
"978 -621 LINE",
"978 1864 LINE",
"833 1864 LINE"
);
},
{
closed = 1;
nodes = (
"473 874 LINE",
"-10 874 LINE",
"-10 729 LINE",
"618 729 LINE",
"618 1864 LINE",
"473 1864 LINE"
);
},
{
closed = 1;
nodes = (
"618 514 LINE",
"-10 514 LINE",
"-10 369 LINE",
"473 369 LINE",
"473 -621 LINE",
"618 -621 LINE"
);
}
);
width = 1451;
}
);
note = uni2563;
unicode = 2563;
},
{
glyphname = uni2564;
lastChange = "2019-12-20 15:51:09 +0000";
layers = (
{
layerId = "1E4AACC9-6A88-4B03-8BB8-E9E25DEE74AF";
paths = (
{
closed = 1;
nodes = (
"653 369 LINE",
"653 -621 LINE",
"798 -621 LINE",
"798 369 LINE",
"1461 369 LINE",
"1461 514 LINE",
"-10 514 LINE",
"-10 369 LINE"
);
},
{
closed = 1;
nodes = (
"1461 729 LINE",
"1461 874 LINE",
"-10 874 LINE",
"-10 729 LINE"
);
}
);
width = 1451;
}
);
note = uni2564;
unicode = 2564;
},
{
glyphname = uni2565;
lastChange = "2019-12-20 15:51:09 +0000";
layers = (
{
layerId = "1E4AACC9-6A88-4B03-8BB8-E9E25DEE74AF";
paths = (
{
closed = 1;
nodes = (
"473 549 LINE",
"473 -621 LINE",
"618 -621 LINE",
"618 549 LINE",
"833 549 LINE",
"833 -621 LINE",
"978 -621 LINE",
"978 549 LINE",
"1461 549 LINE",
"1461 694 LINE",
"-10 694 LINE",
"-10 549 LINE"
);
}
);
width = 1451;
}
);
note = uni2565;
unicode = 2565;
},
{
glyphname = uni2566;
lastChange = "2019-12-20 15:51:09 +0000";
layers = (
{
layerId = "1E4AACC9-6A88-4B03-8BB8-E9E25DEE74AF";
paths = (
{
closed = 1;
nodes = (
"618 514 LINE",
"-10 514 LINE",
"-10 369 LINE",
"473 369 LINE",
"473 -621 LINE",
"618 -621 LINE"
);
},
{
closed = 1;
nodes = (
"833 -621 LINE",
"978 -621 LINE",
"978 369 LINE",
"1461 369 LINE",
"1461 514 LINE",
"833 514 LINE"
);
},
{
closed = 1;
nodes = (
"-10 874 LINE",
"-10 729 LINE",
"1461 729 LINE",
"1461 874 LINE"
);
}
);
width = 1451;
}
);
note = uni2566;
unicode = 2566;
},
{
glyphname = uni2567;
lastChange = "2019-12-20 15:51:09 +0000";
layers = (
{
layerId = "1E4AACC9-6A88-4B03-8BB8-E9E25DEE74AF";
paths = (
{
closed = 1;
nodes = (
"1461 729 LINE",
"1461 874 LINE",
"798 874 LINE",
"798 1864 LINE",
"653 1864 LINE",
"653 874 LINE",
"-10 874 LINE",
"-10 729 LINE"
);
},
{
closed = 1;
nodes = (
"1461 369 LINE",
"1461 514 LINE",
"-10 514 LINE",
"-10 369 LINE"
);
}
);
width = 1451;
}
);
note = uni2567;
unicode = 2567;
},
{
glyphname = uni2568;
lastChange = "2019-12-20 15:51:09 +0000";
layers = (
{
layerId = "1E4AACC9-6A88-4B03-8BB8-E9E25DEE74AF";
paths = (
{
closed = 1;
nodes = (
"1461 549 LINE",
"1461 694 LINE",
"978 694 LINE",
"978 1864 LINE",
"833 1864 LINE",
"833 694 LINE",
"618 694 LINE",
"618 1864 LINE",
"473 1864 LINE",
"473 694 LINE",
"-10 694 LINE",
"-10 549 LINE"
);
}
);
width = 1451;
}
);
note = uni2568;
unicode = 2568;
},
{
glyphname = uni2569;
lastChange = "2019-12-20 15:51:09 +0000";
layers = (
{
layerId = "1E4AACC9-6A88-4B03-8BB8-E9E25DEE74AF";
paths = (
{
closed = 1;
nodes = (
"833 729 LINE",
"1461 729 LINE",
"1461 874 LINE",
"978 874 LINE",
"978 1864 LINE",
"833 1864 LINE"
);
},
{
closed = 1;
nodes = (
"473 874 LINE",
"-10 874 LINE",
"-10 729 LINE",
"618 729 LINE",
"618 1864 LINE",
"473 1864 LINE"
);
},
{
closed = 1;
nodes = (
"1461 369 LINE",
"1461 514 LINE",
"-10 514 LINE",
"-10 369 LINE"
);
}
);
width = 1451;
}
);
note = uni2569;
unicode = 2569;
},
{
glyphname = uni256A;
lastChange = "2019-12-20 15:51:09 +0000";
layers = (
{
layerId = "1E4AACC9-6A88-4B03-8BB8-E9E25DEE74AF";
paths = (
{
closed = 1;
nodes = (
"653 369 LINE",
"653 -621 LINE",
"798 -621 LINE",
"798 369 LINE",
"1461 369 LINE",
"1461 514 LINE",
"798 514 LINE",
"798 729 LINE",
"1461 729 LINE",
"1461 874 LINE",
"798 874 LINE",
"798 1864 LINE",
"653 1864 LINE",
"653 874 LINE",
"-10 874 LINE",
"-10 729 LINE",
"653 729 LINE",
"653 514 LINE",
"-10 514 LINE",
"-10 369 LINE"
);
}
);
width = 1451;
}
);
note = uni256A;
unicode = 256A;
},
{
glyphname = uni256B;
lastChange = "2019-12-20 15:51:09 +0000";
layers = (
{
layerId = "1E4AACC9-6A88-4B03-8BB8-E9E25DEE74AF";
paths = (
{
closed = 1;
nodes = (
"833 694 LINE",
"618 694 LINE",
"618 1864 LINE",
"473 1864 LINE",
"473 694 LINE",
"-10 694 LINE",
"-10 549 LINE",
"473 549 LINE",
"473 -621 LINE",
"618 -621 LINE",
"618 549 LINE",
"833 549 LINE",
"833 -621 LINE",
"978 -621 LINE",
"978 549 LINE",
"1461 549 LINE",
"1461 694 LINE",
"978 694 LINE",
"978 1864 LINE",
"833 1864 LINE"
);
}
);
width = 1451;
}
);
note = uni256B;
unicode = 256B;
},
{
glyphname = uni256C;
lastChange = "2019-12-20 15:51:09 +0000";
layers = (
{
layerId = "1E4AACC9-6A88-4B03-8BB8-E9E25DEE74AF";
paths = (
{
closed = 1;
nodes = (
"833 729 LINE",
"1461 729 LINE",
"1461 874 LINE",
"978 874 LINE",
"978 1864 LINE",
"833 1864 LINE"
);
},
{
closed = 1;
nodes = (
"618 514 LINE",
"-10 514 LINE",
"-10 369 LINE",
"473 369 LINE",
"473 -621 LINE",
"618 -621 LINE"
);
},
{
closed = 1;
nodes = (
"833 -621 LINE",
"978 -621 LINE",
"978 369 LINE",
"1461 369 LINE",
"1461 514 LINE",
"833 514 LINE"
);
},
{
closed = 1;
nodes = (
"473 874 LINE",
"-10 874 LINE",
"-10 729 LINE",
"618 729 LINE",
"618 1864 LINE",
"473 1864 LINE"
);
}
);
width = 1451;
}
);
note = uni256C;
unicode = 256C;
},
{
glyphname = upblock;
lastChange = "2019-12-20 15:51:09 +0000";
layers = (
{
layerId = "1E4AACC9-6A88-4B03-8BB8-E9E25DEE74AF";
paths = (
{
closed = 1;
nodes = (
"1451 1864 LINE",
"0 1864 LINE",
"0 621 LINE",
"1451 621 LINE"
);
}
);
width = 1451;
}
);
note = upblock;
unicode = 2580;
},
{
glyphname = dnblock;
lastChange = "2019-12-20 15:51:09 +0000";
layers = (
{
layerId = "1E4AACC9-6A88-4B03-8BB8-E9E25DEE74AF";
paths = (
{
closed = 1;
nodes = (
"1451 621 LINE",
"0 621 LINE",
"0 -621 LINE",
"1451 -621 LINE"
);
}
);
width = 1451;
}
);
note = dnblock;
unicode = 2584;
},
{
glyphname = block;
lastChange = "2019-12-20 15:51:09 +0000";
layers = (
{
layerId = "1E4AACC9-6A88-4B03-8BB8-E9E25DEE74AF";
paths = (
{
closed = 1;
nodes = (
"1451 1864 LINE",
"0 1864 LINE",
"0 -621 LINE",
"1451 -621 LINE"
);
}
);
width = 1451;
}
);
note = block;
unicode = 2588;
},
{
glyphname = lfblock;
lastChange = "2019-12-20 15:51:09 +0000";
layers = (
{
layerId = "1E4AACC9-6A88-4B03-8BB8-E9E25DEE74AF";
paths = (
{
closed = 1;
nodes = (
"726 1864 LINE",
"0 1864 LINE",
"0 -621 LINE",
"726 -621 LINE"
);
}
);
width = 1451;
}
);
note = lfblock;
unicode = 258C;
},
{
glyphname = rtblock;
lastChange = "2019-12-20 15:51:09 +0000";
layers = (
{
layerId = "1E4AACC9-6A88-4B03-8BB8-E9E25DEE74AF";
paths = (
{
closed = 1;
nodes = (
"1451 1864 LINE",
"725 1864 LINE",
"725 -621 LINE",
"1451 -621 LINE"
);
}
);
width = 1451;
}
);
note = rtblock;
unicode = 2590;
},
{
glyphname = ltshade;
lastChange = "2019-12-20 15:51:09 +0000";
layers = (
{
layerId = "1E4AACC9-6A88-4B03-8BB8-E9E25DEE74AF";
paths = (
{
closed = 1;
nodes = (
"103 1216 LINE",
"207 1216 LINE",
"207 1314 LINE",
"103 1314 LINE"
);
},
{
closed = 1;
nodes = (
"517 1216 LINE",
"621 1216 LINE",
"621 1314 LINE",
"517 1314 LINE"
);
},
{
closed = 1;
nodes = (
"933 1216 LINE",
"1036 1216 LINE",
"1036 1314 LINE",
"933 1314 LINE"
);
},
{
closed = 1;
nodes = (
"310 1023 LINE",
"414 1023 LINE",
"414 1119 LINE",
"310 1119 LINE"
);
},
{
closed = 1;
nodes = (
"725 1023 LINE",
"829 1023 LINE",
"829 1119 LINE",
"725 1119 LINE"
);
},
{
closed = 1;
nodes = (
"1140 1023 LINE",
"1244 1023 LINE",
"1244 1119 LINE",
"1140 1119 LINE"
);
},
{
closed = 1;
nodes = (
"933 831 LINE",
"1036 831 LINE",
"1036 927 LINE",
"933 927 LINE"
);
},
{
closed = 1;
nodes = (
"517 831 LINE",
"621 831 LINE",
"621 927 LINE",
"517 927 LINE"
);
},
{
closed = 1;
nodes = (
"103 831 LINE",
"207 831 LINE",
"207 927 LINE",
"103 927 LINE"
);
},
{
closed = 1;
nodes = (
"1140 636 LINE",
"1244 636 LINE",
"1244 732 LINE",
"1140 732 LINE"
);
},
{
closed = 1;
nodes = (
"725 636 LINE",
"829 636 LINE",
"829 732 LINE",
"725 732 LINE"
);
},
{
closed = 1;
nodes = (
"310 636 LINE",
"414 636 LINE",
"414 732 LINE",
"310 732 LINE"
);
},
{
closed = 1;
nodes = (
"103 444 LINE",
"207 444 LINE",
"207 540 LINE",
"103 540 LINE"
);
},
{
closed = 1;
nodes = (
"517 444 LINE",
"621 444 LINE",
"621 540 LINE",
"517 540 LINE"
);
},
{
closed = 1;
nodes = (
"933 444 LINE",
"1036 444 LINE",
"1036 540 LINE",
"933 540 LINE"
);
},
{
closed = 1;
nodes = (
"1140 249 LINE",
"1244 249 LINE",
"1244 345 LINE",
"1140 345 LINE"
);
},
{
closed = 1;
nodes = (
"725 249 LINE",
"829 249 LINE",
"829 345 LINE",
"725 345 LINE"
);
},
{
closed = 1;
nodes = (
"310 249 LINE",
"414 249 LINE",
"414 345 LINE",
"310 345 LINE"
);
},
{
closed = 1;
nodes = (
"103 56 LINE",
"207 56 LINE",
"207 153 LINE",
"103 153 LINE"
);
},
{
closed = 1;
nodes = (
"517 56 LINE",
"621 56 LINE",
"621 153 LINE",
"517 153 LINE"
);
},
{
closed = 1;
nodes = (
"933 56 LINE",
"1036 56 LINE",
"1036 153 LINE",
"933 153 LINE"
);
},
{
closed = 1;
nodes = (
"310 -136 LINE",
"414 -136 LINE",
"414 -42 LINE",
"310 -42 LINE"
);
},
{
closed = 1;
nodes = (
"725 -136 LINE",
"829 -136 LINE",
"829 -42 LINE",
"725 -42 LINE"
);
},
{
closed = 1;
nodes = (
"1140 -136 LINE",
"1244 -136 LINE",
"1244 -42 LINE",
"1140 -42 LINE"
);
},
{
closed = 1;
nodes = (
"933 -331 LINE",
"1036 -331 LINE",
"1036 -234 LINE",
"933 -234 LINE"
);
},
{
closed = 1;
nodes = (
"517 -331 LINE",
"621 -331 LINE",
"621 -234 LINE",
"517 -234 LINE"
);
},
{
closed = 1;
nodes = (
"103 -331 LINE",
"207 -331 LINE",
"207 -234 LINE",
"103 -234 LINE"
);
},
{
closed = 1;
nodes = (
"310 -523 LINE",
"414 -523 LINE",
"414 -427 LINE",
"310 -427 LINE"
);
},
{
closed = 1;
nodes = (
"725 -523 LINE",
"829 -523 LINE",
"829 -427 LINE",
"725 -427 LINE"
);
},
{
closed = 1;
nodes = (
"1140 -523 LINE",
"1244 -523 LINE",
"1244 -427 LINE",
"1140 -427 LINE"
);
},
{
closed = 1;
nodes = (
"310 1408 LINE",
"414 1408 LINE",
"414 1506 LINE",
"310 1506 LINE"
);
},
{
closed = 1;
nodes = (
"725 1408 LINE",
"829 1408 LINE",
"829 1506 LINE",
"725 1506 LINE"
);
},
{
closed = 1;
nodes = (
"1140 1408 LINE",
"1244 1408 LINE",
"1244 1506 LINE",
"1140 1506 LINE"
);
},
{
closed = 1;
nodes = (
"103 1603 LINE",
"207 1603 LINE",
"207 1699 LINE",
"103 1699 LINE"
);
},
{
closed = 1;
nodes = (
"517 1603 LINE",
"621 1603 LINE",
"621 1699 LINE",
"517 1699 LINE"
);
},
{
closed = 1;
nodes = (
"933 1603 LINE",
"1036 1603 LINE",
"1036 1699 LINE",
"933 1699 LINE"
);
},
{
closed = 1;
nodes = (
"1347 1216 LINE",
"1451 1216 LINE",
"1451 1314 LINE",
"1347 1314 LINE"
);
},
{
closed = 1;
nodes = (
"1347 831 LINE",
"1451 831 LINE",
"1451 927 LINE",
"1347 927 LINE"
);
},
{
closed = 1;
nodes = (
"1347 444 LINE",
"1451 444 LINE",
"1451 540 LINE",
"1347 540 LINE"
);
},
{
closed = 1;
nodes = (
"1347 56 LINE",
"1451 56 LINE",
"1451 153 LINE",
"1347 153 LINE"
);
},
{
closed = 1;
nodes = (
"1347 -331 LINE",
"1451 -331 LINE",
"1451 -234 LINE",
"1347 -234 LINE"
);
},
{
closed = 1;
nodes = (
"1347 1603 LINE",
"1451 1603 LINE",
"1451 1699 LINE",
"1347 1699 LINE"
);
}
);
width = 1451;
}
);
note = ltshade;
unicode = 2591;
},
{
glyphname = shade;
lastChange = "2019-12-20 15:51:09 +0000";
layers = (
{
layerId = "1E4AACC9-6A88-4B03-8BB8-E9E25DEE74AF";
paths = (
{
closed = 1;
nodes = (
"103 1216 LINE",
"207 1216 LINE",
"207 1314 LINE",
"103 1314 LINE"
);
},
{
closed = 1;
nodes = (
"310 1216 LINE",
"414 1216 LINE",
"414 1314 LINE",
"310 1314 LINE"
);
},
{
closed = 1;
nodes = (
"517 1216 LINE",
"621 1216 LINE",
"621 1314 LINE",
"517 1314 LINE"
);
},
{
closed = 1;
nodes = (
"725 1216 LINE",
"829 1216 LINE",
"829 1314 LINE",
"725 1314 LINE"
);
},
{
closed = 1;
nodes = (
"933 1216 LINE",
"1037 1216 LINE",
"1037 1314 LINE",
"933 1314 LINE"
);
},
{
closed = 1;
nodes = (
"1140 1216 LINE",
"1244 1216 LINE",
"1244 1314 LINE",
"1140 1314 LINE"
);
},
{
closed = 1;
nodes = (
"0 1023 LINE",
"103 1023 LINE",
"103 1119 LINE",
"0 1119 LINE"
);
},
{
closed = 1;
nodes = (
"207 1023 LINE",
"310 1023 LINE",
"310 1119 LINE",
"207 1119 LINE"
);
},
{
closed = 1;
nodes = (
"414 1023 LINE",
"517 1023 LINE",
"517 1119 LINE",
"414 1119 LINE"
);
},
{
closed = 1;
nodes = (
"621 1023 LINE",
"725 1023 LINE",
"725 1119 LINE",
"621 1119 LINE"
);
},
{
closed = 1;
nodes = (
"829 1023 LINE",
"933 1023 LINE",
"933 1119 LINE",
"829 1119 LINE"
);
},
{
closed = 1;
nodes = (
"1037 1023 LINE",
"1140 1023 LINE",
"1140 1119 LINE",
"1037 1119 LINE"
);
},
{
closed = 1;
nodes = (
"103 831 LINE",
"207 831 LINE",
"207 927 LINE",
"103 927 LINE"
);
},
{
closed = 1;
nodes = (
"310 831 LINE",
"414 831 LINE",
"414 927 LINE",
"310 927 LINE"
);
},
{
closed = 1;
nodes = (
"517 831 LINE",
"621 831 LINE",
"621 927 LINE",
"517 927 LINE"
);
},
{
closed = 1;
nodes = (
"725 831 LINE",
"829 831 LINE",
"829 927 LINE",
"725 927 LINE"
);
},
{
closed = 1;
nodes = (
"933 831 LINE",
"1037 831 LINE",
"1037 927 LINE",
"933 927 LINE"
);
},
{
closed = 1;
nodes = (
"1140 831 LINE",
"1244 831 LINE",
"1244 927 LINE",
"1140 927 LINE"
);
},
{
closed = 1;
nodes = (
"0 636 LINE",
"103 636 LINE",
"103 732 LINE",
"0 732 LINE"
);
},
{
closed = 1;
nodes = (
"207 636 LINE",
"310 636 LINE",
"310 732 LINE",
"207 732 LINE"
);
},
{
closed = 1;
nodes = (
"414 636 LINE",
"517 636 LINE",
"517 732 LINE",
"414 732 LINE"
);
},
{
closed = 1;
nodes = (
"621 636 LINE",
"725 636 LINE",
"725 732 LINE",
"621 732 LINE"
);
},
{
closed = 1;
nodes = (
"829 636 LINE",
"933 636 LINE",
"933 732 LINE",
"829 732 LINE"
);
},
{
closed = 1;
nodes = (
"1037 636 LINE",
"1140 636 LINE",
"1140 732 LINE",
"1037 732 LINE"
);
},
{
closed = 1;
nodes = (
"103 444 LINE",
"207 444 LINE",
"207 540 LINE",
"103 540 LINE"
);
},
{
closed = 1;
nodes = (
"310 444 LINE",
"414 444 LINE",
"414 540 LINE",
"310 540 LINE"
);
},
{
closed = 1;
nodes = (
"517 444 LINE",
"621 444 LINE",
"621 540 LINE",
"517 540 LINE"
);
},
{
closed = 1;
nodes = (
"725 444 LINE",
"829 444 LINE",
"829 540 LINE",
"725 540 LINE"
);
},
{
closed = 1;
nodes = (
"933 444 LINE",
"1037 444 LINE",
"1037 540 LINE",
"933 540 LINE"
);
},
{
closed = 1;
nodes = (
"1140 444 LINE",
"1244 444 LINE",
"1244 540 LINE",
"1140 540 LINE"
);
},
{
closed = 1;
nodes = (
"0 249 LINE",
"103 249 LINE",
"103 345 LINE",
"0 345 LINE"
);
},
{
closed = 1;
nodes = (
"414 249 LINE",
"517 249 LINE",
"517 345 LINE",
"414 345 LINE"
);
},
{
closed = 1;
nodes = (
"621 249 LINE",
"725 249 LINE",
"725 345 LINE",
"621 345 LINE"
);
},
{
closed = 1;
nodes = (
"829 249 LINE",
"933 249 LINE",
"933 345 LINE",
"829 345 LINE"
);
},
{
closed = 1;
nodes = (
"1037 249 LINE",
"1140 249 LINE",
"1140 345 LINE",
"1037 345 LINE"
);
},
{
closed = 1;
nodes = (
"207 249 LINE",
"310 249 LINE",
"310 345 LINE",
"207 345 LINE"
);
},
{
closed = 1;
nodes = (
"1140 56 LINE",
"1244 56 LINE",
"1244 153 LINE",
"1140 153 LINE"
);
},
{
closed = 1;
nodes = (
"933 56 LINE",
"1037 56 LINE",
"1037 153 LINE",
"933 153 LINE"
);
},
{
closed = 1;
nodes = (
"725 56 LINE",
"829 56 LINE",
"829 153 LINE",
"725 153 LINE"
);
},
{
closed = 1;
nodes = (
"517 56 LINE",
"621 56 LINE",
"621 153 LINE",
"517 153 LINE"
);
},
{
closed = 1;
nodes = (
"310 56 LINE",
"414 56 LINE",
"414 153 LINE",
"310 153 LINE"
);
},
{
closed = 1;
nodes = (
"103 56 LINE",
"207 56 LINE",
"207 153 LINE",
"103 153 LINE"
);
},
{
closed = 1;
nodes = (
"0 -136 LINE",
"103 -136 LINE",
"103 -42 LINE",
"0 -42 LINE"
);
},
{
closed = 1;
nodes = (
"207 -136 LINE",
"310 -136 LINE",
"310 -42 LINE",
"207 -42 LINE"
);
},
{
closed = 1;
nodes = (
"414 -136 LINE",
"517 -136 LINE",
"517 -42 LINE",
"414 -42 LINE"
);
},
{
closed = 1;
nodes = (
"621 -136 LINE",
"725 -136 LINE",
"725 -42 LINE",
"621 -42 LINE"
);
},
{
closed = 1;
nodes = (
"829 -136 LINE",
"933 -136 LINE",
"933 -42 LINE",
"829 -42 LINE"
);
},
{
closed = 1;
nodes = (
"1037 -136 LINE",
"1140 -136 LINE",
"1140 -42 LINE",
"1037 -42 LINE"
);
},
{
closed = 1;
nodes = (
"1140 -331 LINE",
"1244 -331 LINE",
"1244 -234 LINE",
"1140 -234 LINE"
);
},
{
closed = 1;
nodes = (
"933 -331 LINE",
"1037 -331 LINE",
"1037 -234 LINE",
"933 -234 LINE"
);
},
{
closed = 1;
nodes = (
"725 -331 LINE",
"829 -331 LINE",
"829 -234 LINE",
"725 -234 LINE"
);
},
{
closed = 1;
nodes = (
"517 -331 LINE",
"621 -331 LINE",
"621 -234 LINE",
"517 -234 LINE"
);
},
{
closed = 1;
nodes = (
"310 -331 LINE",
"414 -331 LINE",
"414 -234 LINE",
"310 -234 LINE"
);
},
{
closed = 1;
nodes = (
"103 -331 LINE",
"207 -331 LINE",
"207 -234 LINE",
"103 -234 LINE"
);
},
{
closed = 1;
nodes = (
"0 -523 LINE",
"103 -523 LINE",
"103 -427 LINE",
"0 -427 LINE"
);
},
{
closed = 1;
nodes = (
"207 -523 LINE",
"310 -523 LINE",
"310 -427 LINE",
"207 -427 LINE"
);
},
{
closed = 1;
nodes = (
"414 -523 LINE",
"517 -523 LINE",
"517 -427 LINE",
"414 -427 LINE"
);
},
{
closed = 1;
nodes = (
"621 -523 LINE",
"725 -523 LINE",
"725 -427 LINE",
"621 -427 LINE"
);
},
{
closed = 1;
nodes = (
"829 -523 LINE",
"933 -523 LINE",
"933 -427 LINE",
"829 -427 LINE"
);
},
{
closed = 1;
nodes = (
"1037 -523 LINE",
"1140 -523 LINE",
"1140 -427 LINE",
"1037 -427 LINE"
);
},
{
closed = 1;
nodes = (
"0 1408 LINE",
"103 1408 LINE",
"103 1506 LINE",
"0 1506 LINE"
);
},
{
closed = 1;
nodes = (
"207 1408 LINE",
"310 1408 LINE",
"310 1506 LINE",
"207 1506 LINE"
);
},
{
closed = 1;
nodes = (
"414 1408 LINE",
"517 1408 LINE",
"517 1506 LINE",
"414 1506 LINE"
);
},
{
closed = 1;
nodes = (
"621 1408 LINE",
"725 1408 LINE",
"725 1506 LINE",
"621 1506 LINE"
);
},
{
closed = 1;
nodes = (
"829 1408 LINE",
"933 1408 LINE",
"933 1506 LINE",
"829 1506 LINE"
);
},
{
closed = 1;
nodes = (
"1037 1408 LINE",
"1140 1408 LINE",
"1140 1506 LINE",
"1037 1506 LINE"
);
},
{
closed = 1;
nodes = (
"103 1603 LINE",
"207 1603 LINE",
"207 1699 LINE",
"103 1699 LINE"
);
},
{
closed = 1;
nodes = (
"310 1603 LINE",
"414 1603 LINE",
"414 1699 LINE",
"310 1699 LINE"
);
},
{
closed = 1;
nodes = (
"517 1603 LINE",
"621 1603 LINE",
"621 1699 LINE",
"517 1699 LINE"
);
},
{
closed = 1;
nodes = (
"725 1603 LINE",
"829 1603 LINE",
"829 1699 LINE",
"725 1699 LINE"
);
},
{
closed = 1;
nodes = (
"933 1603 LINE",
"1037 1603 LINE",
"1037 1699 LINE",
"933 1699 LINE"
);
},
{
closed = 1;
nodes = (
"1140 1603 LINE",
"1244 1603 LINE",
"1244 1699 LINE",
"1140 1699 LINE"
);
},
{
closed = 1;
nodes = (
"1347 1216 LINE",
"1451 1216 LINE",
"1451 1314 LINE",
"1347 1314 LINE"
);
},
{
closed = 1;
nodes = (
"1244 1023 LINE",
"1347 1023 LINE",
"1347 1119 LINE",
"1244 1119 LINE"
);
},
{
closed = 1;
nodes = (
"1347 831 LINE",
"1451 831 LINE",
"1451 927 LINE",
"1347 927 LINE"
);
},
{
closed = 1;
nodes = (
"1244 636 LINE",
"1347 636 LINE",
"1347 732 LINE",
"1244 732 LINE"
);
},
{
closed = 1;
nodes = (
"1347 444 LINE",
"1451 444 LINE",
"1451 540 LINE",
"1347 540 LINE"
);
},
{
closed = 1;
nodes = (
"1244 249 LINE",
"1347 249 LINE",
"1347 345 LINE",
"1244 345 LINE"
);
},
{
closed = 1;
nodes = (
"1347 56 LINE",
"1451 56 LINE",
"1451 153 LINE",
"1347 153 LINE"
);
},
{
closed = 1;
nodes = (
"1244 -136 LINE",
"1347 -136 LINE",
"1347 -42 LINE",
"1244 -42 LINE"
);
},
{
closed = 1;
nodes = (
"1347 -331 LINE",
"1451 -331 LINE",
"1451 -234 LINE",
"1347 -234 LINE"
);
},
{
closed = 1;
nodes = (
"1244 -523 LINE",
"1347 -523 LINE",
"1347 -427 LINE",
"1244 -427 LINE"
);
},
{
closed = 1;
nodes = (
"1244 1408 LINE",
"1347 1408 LINE",
"1347 1506 LINE",
"1244 1506 LINE"
);
},
{
closed = 1;
nodes = (
"1347 1603 LINE",
"1451 1603 LINE",
"1451 1699 LINE",
"1347 1699 LINE"
);
}
);
width = 1451;
}
);
note = shade;
unicode = 2592;
},
{
glyphname = dkshade;
lastChange = "2019-12-20 15:51:09 +0000";
layers = (
{
layerId = "1E4AACC9-6A88-4B03-8BB8-E9E25DEE74AF";
paths = (
{
closed = 1;
nodes = (
"1493 -523 LINE",
"1386 -523 LINE",
"1386 -427 LINE",
"1493 -427 LINE",
"1493 -136 LINE",
"1386 -136 LINE",
"1386 -42 LINE",
"1493 -42 LINE",
"1493 249 LINE",
"1386 249 LINE",
"1386 345 LINE",
"1493 345 LINE",
"1493 636 LINE",
"1386 636 LINE",
"1386 732 LINE",
"1493 732 LINE",
"1493 1023 LINE",
"1386 1023 LINE",
"1386 1119 LINE",
"1493 1119 LINE",
"1493 1408 LINE",
"1386 1408 LINE",
"1386 1506 LINE",
"1493 1506 LINE",
"1493 1699 LINE",
"1386 1699 LINE",
"1386 1603 LINE",
"1280 1603 LINE",
"1280 1699 LINE",
"1173 1699 LINE",
"1173 1603 LINE",
"1067 1603 LINE",
"1067 1699 LINE",
"960 1699 LINE",
"960 1603 LINE",
"853 1603 LINE",
"853 1699 LINE",
"746 1699 LINE",
"746 1603 LINE",
"639 1603 LINE",
"639 1699 LINE",
"532 1699 LINE",
"532 1603 LINE",
"426 1603 LINE",
"426 1699 LINE",
"319 1699 LINE",
"319 1603 LINE",
"213 1603 LINE",
"213 1699 LINE",
"106 1699 LINE",
"106 1603 LINE",
"0 1603 LINE",
"0 1314 LINE",
"106 1314 LINE",
"106 1216 LINE",
"0 1216 LINE",
"0 927 LINE",
"106 927 LINE",
"106 829 LINE",
"0 829 LINE",
"0 540 LINE",
"106 540 LINE",
"106 444 LINE",
"0 444 LINE",
"0 153 LINE",
"106 153 LINE",
"106 56 LINE",
"0 56 LINE",
"0 -234 LINE",
"106 -234 LINE",
"106 -331 LINE",
"0 -331 LINE",
"0 -621 LINE",
"1493 -621 LINE"
);
},
{
closed = 1;
nodes = (
"213 1119 LINE",
"213 1023 LINE",
"106 1023 LINE",
"106 1119 LINE"
);
},
{
closed = 1;
nodes = (
"426 1119 LINE",
"426 1023 LINE",
"319 1023 LINE",
"319 1119 LINE"
);
},
{
closed = 1;
nodes = (
"639 1119 LINE",
"639 1023 LINE",
"532 1023 LINE",
"532 1119 LINE"
);
},
{
closed = 1;
nodes = (
"853 1119 LINE",
"853 1023 LINE",
"746 1023 LINE",
"746 1119 LINE"
);
},
{
closed = 1;
nodes = (
"960 829 LINE",
"853 829 LINE",
"853 927 LINE",
"960 927 LINE"
);
},
{
closed = 1;
nodes = (
"746 829 LINE",
"639 829 LINE",
"639 927 LINE",
"746 927 LINE"
);
},
{
closed = 1;
nodes = (
"532 829 LINE",
"426 829 LINE",
"426 927 LINE",
"532 927 LINE"
);
},
{
closed = 1;
nodes = (
"319 829 LINE",
"213 829 LINE",
"213 927 LINE",
"319 927 LINE"
);
},
{
closed = 1;
nodes = (
"213 732 LINE",
"213 636 LINE",
"106 636 LINE",
"106 732 LINE"
);
},
{
closed = 1;
nodes = (
"426 732 LINE",
"426 636 LINE",
"319 636 LINE",
"319 732 LINE"
);
},
{
closed = 1;
nodes = (
"639 732 LINE",
"639 636 LINE",
"532 636 LINE",
"532 732 LINE"
);
},
{
closed = 1;
nodes = (
"853 732 LINE",
"853 636 LINE",
"746 636 LINE",
"746 732 LINE"
);
},
{
closed = 1;
nodes = (
"319 444 LINE",
"213 444 LINE",
"213 540 LINE",
"319 540 LINE"
);
},
{
closed = 1;
nodes = (
"532 540 LINE",
"532 444 LINE",
"426 444 LINE",
"426 540 LINE"
);
},
{
closed = 1;
nodes = (
"746 540 LINE",
"746 444 LINE",
"639 444 LINE",
"639 540 LINE"
);
},
{
closed = 1;
nodes = (
"960 540 LINE",
"960 444 LINE",
"853 444 LINE",
"853 540 LINE"
);
},
{
closed = 1;
nodes = (
"213 345 LINE",
"213 249 LINE",
"106 249 LINE",
"106 345 LINE"
);
},
{
closed = 1;
nodes = (
"639 345 LINE",
"639 249 LINE",
"532 249 LINE",
"532 345 LINE"
);
},
{
closed = 1;
nodes = (
"319 249 LINE",
"319 345 LINE",
"426 345 LINE",
"426 249 LINE"
);
},
{
closed = 1;
nodes = (
"853 345 LINE",
"853 249 LINE",
"746 249 LINE",
"746 345 LINE"
);
},
{
closed = 1;
nodes = (
"853 56 LINE",
"853 153 LINE",
"960 153 LINE",
"960 56 LINE"
);
},
{
closed = 1;
nodes = (
"639 56 LINE",
"639 153 LINE",
"746 153 LINE",
"746 56 LINE"
);
},
{
closed = 1;
nodes = (
"426 56 LINE",
"426 153 LINE",
"532 153 LINE",
"532 56 LINE"
);
},
{
closed = 1;
nodes = (
"213 56 LINE",
"213 153 LINE",
"319 153 LINE",
"319 56 LINE"
);
},
{
closed = 1;
nodes = (
"213 -42 LINE",
"213 -136 LINE",
"106 -136 LINE",
"106 -42 LINE"
);
},
{
closed = 1;
nodes = (
"426 -42 LINE",
"426 -136 LINE",
"319 -136 LINE",
"319 -42 LINE"
);
},
{
closed = 1;
nodes = (
"639 -42 LINE",
"639 -136 LINE",
"532 -136 LINE",
"532 -42 LINE"
);
},
{
closed = 1;
nodes = (
"853 -42 LINE",
"853 -136 LINE",
"746 -136 LINE",
"746 -42 LINE"
);
},
{
closed = 1;
nodes = (
"853 -331 LINE",
"853 -234 LINE",
"960 -234 LINE",
"960 -331 LINE"
);
},
{
closed = 1;
nodes = (
"639 -331 LINE",
"639 -234 LINE",
"746 -234 LINE",
"746 -331 LINE"
);
},
{
closed = 1;
nodes = (
"426 -331 LINE",
"426 -234 LINE",
"532 -234 LINE",
"532 -331 LINE"
);
},
{
closed = 1;
nodes = (
"213 -331 LINE",
"213 -234 LINE",
"319 -234 LINE",
"319 -331 LINE"
);
},
{
closed = 1;
nodes = (
"213 -427 LINE",
"213 -523 LINE",
"106 -523 LINE",
"106 -427 LINE"
);
},
{
closed = 1;
nodes = (
"426 -427 LINE",
"426 -523 LINE",
"319 -523 LINE",
"319 -427 LINE"
);
},
{
closed = 1;
nodes = (
"639 -427 LINE",
"639 -523 LINE",
"532 -523 LINE",
"532 -427 LINE"
);
},
{
closed = 1;
nodes = (
"853 -427 LINE",
"853 -523 LINE",
"746 -523 LINE",
"746 -427 LINE"
);
},
{
closed = 1;
nodes = (
"960 1216 LINE",
"853 1216 LINE",
"853 1314 LINE",
"960 1314 LINE"
);
},
{
closed = 1;
nodes = (
"746 1216 LINE",
"639 1216 LINE",
"639 1314 LINE",
"746 1314 LINE"
);
},
{
closed = 1;
nodes = (
"532 1216 LINE",
"426 1216 LINE",
"426 1314 LINE",
"532 1314 LINE"
);
},
{
closed = 1;
nodes = (
"319 1216 LINE",
"213 1216 LINE",
"213 1314 LINE",
"319 1314 LINE"
);
},
{
closed = 1;
nodes = (
"853 1408 LINE",
"746 1408 LINE",
"746 1506 LINE",
"853 1506 LINE"
);
},
{
closed = 1;
nodes = (
"639 1408 LINE",
"532 1408 LINE",
"532 1506 LINE",
"639 1506 LINE"
);
},
{
closed = 1;
nodes = (
"426 1408 LINE",
"319 1408 LINE",
"319 1506 LINE",
"426 1506 LINE"
);
},
{
closed = 1;
nodes = (
"213 1408 LINE",
"106 1408 LINE",
"106 1506 LINE",
"213 1506 LINE"
);
},
{
closed = 1;
nodes = (
"1067 1119 LINE",
"1067 1023 LINE",
"960 1023 LINE",
"960 1119 LINE"
);
},
{
closed = 1;
nodes = (
"1280 1119 LINE",
"1280 1023 LINE",
"1173 1023 LINE",
"1173 1119 LINE"
);
},
{
closed = 1;
nodes = (
"1386 829 LINE",
"1280 829 LINE",
"1280 927 LINE",
"1386 927 LINE"
);
},
{
closed = 1;
nodes = (
"1173 829 LINE",
"1067 829 LINE",
"1067 927 LINE",
"1173 927 LINE"
);
},
{
closed = 1;
nodes = (
"1067 732 LINE",
"1067 636 LINE",
"960 636 LINE",
"960 732 LINE"
);
},
{
closed = 1;
nodes = (
"1280 732 LINE",
"1280 636 LINE",
"1173 636 LINE",
"1173 732 LINE"
);
},
{
closed = 1;
nodes = (
"1173 444 LINE",
"1067 444 LINE",
"1067 540 LINE",
"1173 540 LINE"
);
},
{
closed = 1;
nodes = (
"1386 540 LINE",
"1386 444 LINE",
"1280 444 LINE",
"1280 540 LINE"
);
},
{
closed = 1;
nodes = (
"1067 345 LINE",
"1067 249 LINE",
"960 249 LINE",
"960 345 LINE"
);
},
{
closed = 1;
nodes = (
"1173 249 LINE",
"1173 345 LINE",
"1280 345 LINE",
"1280 249 LINE"
);
},
{
closed = 1;
nodes = (
"1280 56 LINE",
"1280 153 LINE",
"1386 153 LINE",
"1386 56 LINE"
);
},
{
closed = 1;
nodes = (
"1067 56 LINE",
"1067 153 LINE",
"1173 153 LINE",
"1173 56 LINE"
);
},
{
closed = 1;
nodes = (
"1067 -42 LINE",
"1067 -136 LINE",
"960 -136 LINE",
"960 -42 LINE"
);
},
{
closed = 1;
nodes = (
"1280 -42 LINE",
"1280 -136 LINE",
"1173 -136 LINE",
"1173 -42 LINE"
);
},
{
closed = 1;
nodes = (
"1280 -331 LINE",
"1280 -234 LINE",
"1386 -234 LINE",
"1386 -331 LINE"
);
},
{
closed = 1;
nodes = (
"1067 -331 LINE",
"1067 -234 LINE",
"1173 -234 LINE",
"1173 -331 LINE"
);
},
{
closed = 1;
nodes = (
"1067 -427 LINE",
"1067 -523 LINE",
"960 -523 LINE",
"960 -427 LINE"
);
},
{
closed = 1;
nodes = (
"1280 -427 LINE",
"1280 -523 LINE",
"1173 -523 LINE",
"1173 -427 LINE"
);
},
{
closed = 1;
nodes = (
"1386 1216 LINE",
"1280 1216 LINE",
"1280 1314 LINE",
"1386 1314 LINE"
);
},
{
closed = 1;
nodes = (
"1173 1216 LINE",
"1067 1216 LINE",
"1067 1314 LINE",
"1173 1314 LINE"
);
},
{
closed = 1;
nodes = (
"1280 1408 LINE",
"1173 1408 LINE",
"1173 1506 LINE",
"1280 1506 LINE"
);
},
{
closed = 1;
nodes = (
"1067 1408 LINE",
"960 1408 LINE",
"960 1506 LINE",
"1067 1506 LINE"
);
}
);
width = 1493;
}
);
note = dkshade;
unicode = 2593;
},
{
glyphname = filledbox;
lastChange = "2019-12-20 15:51:09 +0000";
layers = (
{
layerId = "1E4AACC9-6A88-4B03-8BB8-E9E25DEE74AF";
paths = (
{
closed = 1;
nodes = (
"123 117 LINE",
"1114 117 LINE",
"1114 1108 LINE",
"123 1108 LINE"
);
}
);
width = 1237;
}
);
note = filledbox;
unicode = 25A0;
},
{
glyphname = filledrect;
lastChange = "2019-12-20 15:51:09 +0000";
layers = (
{
layerId = "1E4AACC9-6A88-4B03-8BB8-E9E25DEE74AF";
paths = (
{
closed = 1;
nodes = (
"0 0 LINE",
"2048 0 LINE",
"2048 616 LINE",
"0 616 LINE"
);
}
);
width = 2048;
}
);
note = filledrect;
unicode = 25AC;
},
{
glyphname = triagup;
lastChange = "2019-12-20 15:51:09 +0000";
layers = (
{
layerId = "1E4AACC9-6A88-4B03-8BB8-E9E25DEE74AF";
paths = (
{
closed = 1;
nodes = (
"1612 0 LINE",
"1014 1198 LINE",
"414 0 LINE"
);
}
);
width = 2027;
}
);
note = triagup;
unicode = 25B2;
},
{
glyphname = triagrt;
lastChange = "2019-12-20 15:51:09 +0000";
layers = (
{
layerId = "1E4AACC9-6A88-4B03-8BB8-E9E25DEE74AF";
paths = (
{
closed = 1;
nodes = (
"401 -27 LINE",
"1626 586 LINE",
"401 1196 LINE"
);
}
);
width = 2027;
}
);
note = triagrt;
unicode = 25BA;
},
{
glyphname = triagdn;
lastChange = "2019-12-20 15:51:09 +0000";
layers = (
{
layerId = "1E4AACC9-6A88-4B03-8BB8-E9E25DEE74AF";
paths = (
{
closed = 1;
nodes = (
"414 1171 LINE",
"1014 -27 LINE",
"1612 1171 LINE"
);
}
);
width = 2027;
}
);
note = triagdn;
unicode = 25BC;
},
{
glyphname = triaglf;
lastChange = "2019-12-20 15:51:09 +0000";
layers = (
{
layerId = "1E4AACC9-6A88-4B03-8BB8-E9E25DEE74AF";
paths = (
{
closed = 1;
nodes = (
"401 586 LINE",
"1626 -27 LINE",
"1626 1196 LINE"
);
}
);
width = 2027;
}
);
note = triaglf;
unicode = 25C4;
},
{
glyphname = circle;
lastChange = "2019-12-20 15:51:09 +0000";
layers = (
{
layerId = "1E4AACC9-6A88-4B03-8BB8-E9E25DEE74AF";
paths = (
{
closed = 1;
nodes = (
"167 490 OFFCURVE",
"287 282 OFFCURVE",
"495 162 OFFCURVE",
"617 162 QCURVE SMOOTH",
"740 162 OFFCURVE",
"949 282 OFFCURVE",
"1070 491 OFFCURVE",
"1070 612 QCURVE SMOOTH",
"1070 733 OFFCURVE",
"949 944 OFFCURVE",
"739 1065 OFFCURVE",
"617 1065 QCURVE SMOOTH",
"496 1065 OFFCURVE",
"287 944 OFFCURVE",
"167 734 OFFCURVE",
"167 612 QCURVE SMOOTH"
);
},
{
closed = 1;
nodes = (
"253 712 OFFCURVE",
"351 881 OFFCURVE",
"520 979 OFFCURVE",
"617 979 QCURVE SMOOTH",
"715 979 OFFCURVE",
"886 881 OFFCURVE",
"984 710 OFFCURVE",
"984 612 QCURVE SMOOTH",
"984 514 OFFCURVE",
"884 344 OFFCURVE",
"715 248 OFFCURVE",
"617 248 QCURVE SMOOTH",
"518 248 OFFCURVE",
"351 345 OFFCURVE",
"253 514 OFFCURVE",
"253 612 QCURVE SMOOTH"
);
}
);
width = 1237;
}
);
note = circle;
unicode = 25CB;
},
{
glyphname = invbullet;
lastChange = "2019-12-20 15:51:09 +0000";
layers = (
{
layerId = "1E4AACC9-6A88-4B03-8BB8-E9E25DEE74AF";
paths = (
{
closed = 1;
nodes = (
"1196 0 LINE",
"1196 1155 LINE",
"41 1155 LINE",
"41 0 LINE"
);
},
{
closed = 1;
nodes = (
"176 695 OFFCURVE",
"293 899 OFFCURVE",
"498 1018 OFFCURVE",
"616 1018 QCURVE SMOOTH",
"735 1018 OFFCURVE",
"939 900 OFFCURVE",
"1057 695 OFFCURVE",
"1057 577 QCURVE SMOOTH",
"1057 460 OFFCURVE",
"939 255 OFFCURVE",
"734 137 OFFCURVE",
"616 137 QCURVE SMOOTH",
"497 137 OFFCURVE",
"294 255 OFFCURVE",
"176 459 OFFCURVE",
"176 577 QCURVE SMOOTH"
);
}
);
width = 1237;
}
);
note = invbullet;
unicode = 25D8;
},
{
glyphname = invcircle;
lastChange = "2019-12-20 15:51:09 +0000";
layers = (
{
layerId = "1E4AACC9-6A88-4B03-8BB8-E9E25DEE74AF";
paths = (
{
closed = 1;
nodes = (
"1196 0 LINE",
"1196 1155 LINE",
"41 1155 LINE",
"41 0 LINE"
);
},
{
closed = 1;
nodes = (
"253 480 OFFCURVE",
"351 310 OFFCURVE",
"521 212 OFFCURVE",
"618 212 QCURVE SMOOTH",
"715 212 OFFCURVE",
"885 310 OFFCURVE",
"983 480 OFFCURVE",
"983 577 QCURVE SMOOTH",
"983 674 OFFCURVE",
"885 844 OFFCURVE",
"715 942 OFFCURVE",
"618 942 QCURVE SMOOTH",
"521 942 OFFCURVE",
"351 844 OFFCURVE",
"253 674 OFFCURVE",
"253 577 QCURVE SMOOTH"
);
},
{
closed = 1;
nodes = (
"176 695 OFFCURVE",
"293 899 OFFCURVE",
"498 1018 OFFCURVE",
"616 1018 QCURVE SMOOTH",
"735 1018 OFFCURVE",
"939 900 OFFCURVE",
"1057 695 OFFCURVE",
"1057 577 QCURVE SMOOTH",
"1057 460 OFFCURVE",
"939 255 OFFCURVE",
"734 137 OFFCURVE",
"616 137 QCURVE SMOOTH",
"497 137 OFFCURVE",
"294 255 OFFCURVE",
"176 459 OFFCURVE",
"176 577 QCURVE SMOOTH"
);
}
);
width = 1237;
}
);
note = invcircle;
unicode = 25D9;
},
{
glyphname = smileface;
lastChange = "2019-12-20 15:51:09 +0000";
layers = (
{
layerId = "1E4AACC9-6A88-4B03-8BB8-E9E25DEE74AF";
paths = (
{
closed = 1;
nodes = (
"1657 833 OFFCURVE",
"1303 1196 OFFCURVE",
"1045 1196 QCURVE SMOOTH",
"787 1196 OFFCURVE",
"433 834 OFFCURVE",
"433 584 QCURVE SMOOTH",
"434 331 OFFCURVE",
"792 -27 OFFCURVE",
"1045 -27 QCURVE SMOOTH",
"1297 -26 OFFCURVE",
"1657 330 OFFCURVE",
"1657 584 QCURVE SMOOTH"
);
},
{
closed = 1;
nodes = (
"1566 369 OFFCURVE",
"1262 61 OFFCURVE",
"1045 61 QCURVE SMOOTH",
"829 62 OFFCURVE",
"523 368 OFFCURVE",
"523 584 QCURVE SMOOTH",
"523 801 OFFCURVE",
"676 954 QCURVE SMOOTH",
"827 1108 OFFCURVE",
"1045 1108 QCURVE SMOOTH",
"1261 1107 OFFCURVE",
"1567 801 OFFCURVE",
"1567 584 QCURVE SMOOTH"
);
},
{
closed = 1;
nodes = (
"889 743 OFFCURVE",
"843 788 OFFCURVE",
"811 788 QCURVE SMOOTH",
"779 788 OFFCURVE",
"734 743 OFFCURVE",
"734 711 QCURVE SMOOTH",
"734 679 OFFCURVE",
"779 633 OFFCURVE",
"811 633 QCURVE SMOOTH",
"843 633 OFFCURVE",
"889 679 OFFCURVE",
"889 711 QCURVE SMOOTH"
);
},
{
closed = 1;
nodes = (
"1356 743 OFFCURVE",
"1312 788 OFFCURVE",
"1280 788 QCURVE SMOOTH",
"1248 788 OFFCURVE",
"1201 743 OFFCURVE",
"1201 711 QCURVE SMOOTH",
"1201 679 OFFCURVE",
"1248 633 OFFCURVE",
"1280 633 QCURVE SMOOTH",
"1312 633 OFFCURVE",
"1356 679 OFFCURVE",
"1356 711 QCURVE SMOOTH"
);
},
{
closed = 1;
nodes = (
"762 387 LINE",
"860 201 OFFCURVE",
"1045 201 QCURVE SMOOTH",
"1230 201 OFFCURVE",
"1328 387 QCURVE",
"1266 422 LINE",
"1190 285 OFFCURVE",
"1045 285 QCURVE SMOOTH",
"898 285 OFFCURVE",
"822 422 QCURVE"
);
}
);
width = 2091;
}
);
note = smileface;
unicode = 263A;
},
